<svg version="1.1" xmlns="http://www.w3.org/2000/svg" xmlns:xlink="http://www.w3.org/1999/xlink" width="986" height="551"><defs><clipPath id="bHFBlJyglZBx"><path fill="none" stroke="none" d=" M 0 0 L 986 0 L 986 551 L 0 551 L 0 0 Z"/></clipPath></defs><g transform="scale(1,1)" clip-path="url(#bHFBlJyglZBx)"><g><rect fill="rgb(255,255,255)" stroke="none" x="0" y="0" width="986" height="551" fill-opacity="1"/><path fill="none" stroke="rgb(192,192,192)" paint-order="fill stroke markers" d=" M -28.5 0.5 L -28.5 551.5 M -28.5 0.5 L -28.5 551.5 M 20.5 0.5 L 20.5 551.5 M 70.5 0.5 L 70.5 551.5 M 120.5 0.5 L 120.5 551.5 M 170.5 0.5 L 170.5 551.5 M 220.5 0.5 L 220.5 551.5 M 270.5 0.5 L 270.5 551.5 M 320.5 0.5 L 320.5 551.5 M 370.5 0.5 L 370.5 551.5 M 420.5 0.5 L 420.5 551.5 M 470.5 0.5 L 470.5 551.5 M 520.5 0.5 L 520.5 551.5 M 570.5 0.5 L 570.5 551.5 M 620.5 0.5 L 620.5 551.5 M 670.5 0.5 L 670.5 551.5 M 720.5 0.5 L 720.5 551.5 M 770.5 0.5 L 770.5 551.5 M 820.5 0.5 L 820.5 551.5 M 870.5 0.5 L 870.5 551.5 M 920.5 0.5 L 920.5 551.5 M 970.5 0.5 L 970.5 551.5" stroke-opacity="1" stroke-linecap="round" stroke-linejoin="round" stroke-miterlimit="10"/><path fill="none" stroke="rgb(192,192,192)" paint-order="fill stroke markers" d=" M -9.5 0.5 L -9.5 551.5 M 0.5 0.5 L 0.5 551.5 M 10.5 0.5 L 10.5 551.5 M 30.5 0.5 L 30.5 551.5 M 40.5 0.5 L 40.5 551.5 M 50.5 0.5 L 50.5 551.5 M 60.5 0.5 L 60.5 551.5 M 80.5 0.5 L 80.5 551.5 M 90.5 0.5 L 90.5 551.5 M 100.5 0.5 L 100.5 551.5 M 110.5 0.5 L 110.5 551.5 M 130.5 0.5 L 130.5 551.5 M 140.5 0.5 L 140.5 551.5 M 150.5 0.5 L 150.5 551.5 M 160.5 0.5 L 160.5 551.5 M 180.5 0.5 L 180.5 551.5 M 190.5 0.5 L 190.5 551.5 M 200.5 0.5 L 200.5 551.5 M 210.5 0.5 L 210.5 551.5 M 230.5 0.5 L 230.5 551.5 M 240.5 0.5 L 240.5 551.5 M 250.5 0.5 L 250.5 551.5 M 260.5 0.5 L 260.5 551.5 M 280.5 0.5 L 280.5 551.5 M 290.5 0.5 L 290.5 551.5 M 300.5 0.5 L 300.5 551.5 M 310.5 0.5 L 310.5 551.5 M 330.5 0.5 L 330.5 551.5 M 340.5 0.5 L 340.5 551.5 M 350.5 0.5 L 350.5 551.5 M 360.5 0.5 L 360.5 551.5 M 380.5 0.5 L 380.5 551.5 M 390.5 0.5 L 390.5 551.5 M 400.5 0.5 L 400.5 551.5 M 410.5 0.5 L 410.5 551.5 M 430.5 0.5 L 430.5 551.5 M 440.5 0.5 L 440.5 551.5 M 450.5 0.5 L 450.5 551.5 M 460.5 0.5 L 460.5 551.5 M 480.5 0.5 L 480.5 551.5 M 490.5 0.5 L 490.5 551.5 M 500.5 0.5 L 500.5 551.5 M 510.5 0.5 L 510.5 551.5 M 530.5 0.5 L 530.5 551.5 M 540.5 0.5 L 540.5 551.5 M 550.5 0.5 L 550.5 551.5 M 560.5 0.5 L 560.5 551.5 M 580.5 0.5 L 580.5 551.5 M 590.5 0.5 L 590.5 551.5 M 600.5 0.5 L 600.5 551.5 M 610.5 0.5 L 610.5 551.5 M 630.5 0.5 L 630.5 551.5 M 640.5 0.5 L 640.5 551.5 M 650.5 0.5 L 650.5 551.5 M 660.5 0.5 L 660.5 551.5 M 680.5 0.5 L 680.5 551.5 M 690.5 0.5 L 690.5 551.5 M 700.5 0.5 L 700.5 551.5 M 710.5 0.5 L 710.5 551.5 M 730.5 0.5 L 730.5 551.5 M 740.5 0.5 L 740.5 551.5 M 750.5 0.5 L 750.5 551.5 M 760.5 0.5 L 760.5 551.5 M 780.5 0.5 L 780.5 551.5 M 790.5 0.5 L 790.5 551.5 M 800.5 0.5 L 800.5 551.5 M 810.5 0.5 L 810.5 551.5 M 830.5 0.5 L 830.5 551.5 M 840.5 0.5 L 840.5 551.5 M 850.5 0.5 L 850.5 551.5 M 860.5 0.5 L 860.5 551.5 M 880.5 0.5 L 880.5 551.5 M 890.5 0.5 L 890.5 551.5 M 900.5 0.5 L 900.5 551.5 M 910.5 0.5 L 910.5 551.5 M 930.5 0.5 L 930.5 551.5 M 940.5 0.5 L 940.5 551.5 M 950.5 0.5 L 950.5 551.5 M 960.5 0.5 L 960.5 551.5 M 980.5 0.5 L 980.5 551.5" stroke-opacity="0.23529411764705882" stroke-linecap="round" stroke-linejoin="round" stroke-miterlimit="10"/><path fill="none" stroke="rgb(192,192,192)" paint-order="fill stroke markers" d=" M 0.5 40.5 L 986.5 40.5 M 0.5 40.5 L 986.5 40.5 M 0.5 90.5 L 986.5 90.5 M 0.5 140.5 L 986.5 140.5 M 0.5 190.5 L 986.5 190.5 M 0.5 240.5 L 986.5 240.5 M 0.5 290.5 L 986.5 290.5 M 0.5 340.5 L 986.5 340.5 M 0.5 390.5 L 986.5 390.5 M 0.5 440.5 L 986.5 440.5 M 0.5 490.5 L 986.5 490.5 M 0.5 540.5 L 986.5 540.5" stroke-opacity="1" stroke-linecap="round" stroke-linejoin="round" stroke-miterlimit="10"/><path fill="none" stroke="rgb(192,192,192)" paint-order="fill stroke markers" d=" M 0.5 0.5 L 986.5 0.5 M 0.5 10.5 L 986.5 10.5 M 0.5 20.5 L 986.5 20.5 M 0.5 30.5 L 986.5 30.5 M 0.5 50.5 L 986.5 50.5 M 0.5 60.5 L 986.5 60.5 M 0.5 70.5 L 986.5 70.5 M 0.5 80.5 L 986.5 80.5 M 0.5 100.5 L 986.5 100.5 M 0.5 110.5 L 986.5 110.5 M 0.5 120.5 L 986.5 120.5 M 0.5 130.5 L 986.5 130.5 M 0.5 150.5 L 986.5 150.5 M 0.5 160.5 L 986.5 160.5 M 0.5 170.5 L 986.5 170.5 M 0.5 180.5 L 986.5 180.5 M 0.5 200.5 L 986.5 200.5 M 0.5 210.5 L 986.5 210.5 M 0.5 220.5 L 986.5 220.5 M 0.5 230.5 L 986.5 230.5 M 0.5 250.5 L 986.5 250.5 M 0.5 260.5 L 986.5 260.5 M 0.5 270.5 L 986.5 270.5 M 0.5 280.5 L 986.5 280.5 M 0.5 300.5 L 986.5 300.5 M 0.5 310.5 L 986.5 310.5 M 0.5 320.5 L 986.5 320.5 M 0.5 330.5 L 986.5 330.5 M 0.5 350.5 L 986.5 350.5 M 0.5 360.5 L 986.5 360.5 M 0.5 370.5 L 986.5 370.5 M 0.5 380.5 L 986.5 380.5 M 0.5 400.5 L 986.5 400.5 M 0.5 410.5 L 986.5 410.5 M 0.5 420.5 L 986.5 420.5 M 0.5 430.5 L 986.5 430.5 M 0.5 450.5 L 986.5 450.5 M 0.5 460.5 L 986.5 460.5 M 0.5 470.5 L 986.5 470.5 M 0.5 480.5 L 986.5 480.5 M 0.5 500.5 L 986.5 500.5 M 0.5 510.5 L 986.5 510.5 M 0.5 520.5 L 986.5 520.5 M 0.5 530.5 L 986.5 530.5 M 0.5 550.5 L 986.5 550.5" stroke-opacity="0.23529411764705882" stroke-linecap="round" stroke-linejoin="round" stroke-miterlimit="10"/><path fill="rgb(211,47,47)" stroke="none" paint-order="stroke fill markers" fill-rule="evenodd" d=" M 271.9999999999999 280.0000000000001 L 341.9999999999999 151.00000000000017 L 493.9999999999999 141.0000000000001 L 564.9999999999999 235.0000000000001 L 523.9999999999999 335.0000000000001 L 429.99999999999983 350.0000000000001 L 318.9999999999999 328.00000000000006 Z" fill-opacity="0.09803921568627451"/><path fill="none" stroke="rgb(211,47,47)" paint-order="fill stroke markers" d=" M 271.9999999999999 280.0000000000001 L 341.9999999999999 151.00000000000017" stroke-opacity="0.6980392156862745" stroke-linecap="round" stroke-linejoin="round" stroke-miterlimit="10" stroke-width="2.5"/><path fill="none" stroke="rgb(211,47,47)" paint-order="fill stroke markers" d=" M 341.9999999999999 151.00000000000017 L 493.9999999999999 141.0000000000001" stroke-opacity="0.6980392156862745" stroke-linecap="round" stroke-linejoin="round" stroke-miterlimit="10" stroke-width="2.5"/><path fill="none" stroke="rgb(211,47,47)" paint-order="fill stroke markers" d=" M 493.9999999999999 141.0000000000001 L 564.9999999999999 235.0000000000001" stroke-opacity="0.6980392156862745" stroke-linecap="round" stroke-linejoin="round" stroke-miterlimit="10" stroke-width="2.5"/><path fill="none" stroke="rgb(211,47,47)" paint-order="fill stroke markers" d=" M 564.9999999999999 235.0000000000001 L 523.9999999999999 335.0000000000001" stroke-opacity="0.6980392156862745" stroke-linecap="round" stroke-linejoin="round" stroke-miterlimit="10" stroke-width="2.5"/><path fill="none" stroke="rgb(211,47,47)" paint-order="fill stroke markers" d=" M 523.9999999999999 335.0000000000001 L 429.99999999999983 350.0000000000001" stroke-opacity="0.6980392156862745" stroke-linecap="round" stroke-linejoin="round" stroke-miterlimit="10" stroke-width="2.5"/><path fill="none" stroke="rgb(211,47,47)" paint-order="fill stroke markers" d=" M 429.99999999999983 350.0000000000001 L 318.9999999999999 328.00000000000006" stroke-opacity="0.6980392156862745" stroke-linecap="round" stroke-linejoin="round" stroke-miterlimit="10" stroke-width="2.5"/><path fill="none" stroke="rgb(211,47,47)" paint-order="fill stroke markers" d=" M 318.9999999999999 328.00000000000006 L 271.9999999999999 280.0000000000001" stroke-opacity="0.6980392156862745" stroke-linecap="round" stroke-linejoin="round" stroke-miterlimit="10" stroke-width="2.5"/><path fill="rgb(21,101,192)" stroke="none" paint-order="stroke fill markers" d=" M 276.9999999999999 280.0000000000001 C 276.9999999999999 282.76142374915406 274.76142374915383 285.0000000000001 271.9999999999999 285.0000000000001 C 269.23857625084594 285.0000000000001 266.9999999999999 282.76142374915406 266.9999999999999 280.0000000000001 C 266.9999999999999 277.23857625084617 269.23857625084594 275.0000000000001 271.9999999999999 275.0000000000001 C 274.76142374915383 275.0000000000001 276.9999999999999 277.23857625084617 276.9999999999999 280.0000000000001 Z" fill-opacity="1"/><path fill="none" stroke="rgb(0,0,0)" paint-order="fill stroke markers" d=" M 276.9999999999999 280.0000000000001 C 276.9999999999999 282.76142374915406 274.76142374915383 285.0000000000001 271.9999999999999 285.0000000000001 C 269.23857625084594 285.0000000000001 266.9999999999999 282.76142374915406 266.9999999999999 280.0000000000001 C 266.9999999999999 277.23857625084617 269.23857625084594 275.0000000000001 271.9999999999999 275.0000000000001 C 274.76142374915383 275.0000000000001 276.9999999999999 277.23857625084617 276.9999999999999 280.0000000000001 Z" stroke-opacity="1" stroke-linecap="round" stroke-linejoin="round" stroke-miterlimit="10"/><text fill="rgb(21,101,192)" stroke="none" font-family="geogebra-sans-serif, sans-serif" font-size="16px" font-style="normal" font-weight="normal" text-decoration="normal" x="276" y="270" text-anchor="start" dominant-baseline="alphabetic" fill-opacity="1">A</text><text fill="none" stroke="rgb(255,255,255)" font-family="geogebra-sans-serif, sans-serif" font-size="16px" font-style="normal" font-weight="normal" text-decoration="normal" x="276" y="270" text-anchor="start" dominant-baseline="alphabetic" stroke-opacity="1" stroke-linejoin="bevel" stroke-miterlimit="10" stroke-width="3">A</text><text fill="rgb(21,101,192)" stroke="none" font-family="geogebra-sans-serif, sans-serif" font-size="16px" font-style="normal" font-weight="normal" text-decoration="normal" x="276" y="270" text-anchor="start" dominant-baseline="alphabetic" fill-opacity="1">A</text><path fill="rgb(21,101,192)" stroke="none" paint-order="stroke fill markers" d=" M 346.9999999999999 151.00000000000017 C 346.9999999999999 153.76142374915415 344.76142374915383 156.00000000000017 341.9999999999999 156.00000000000017 C 339.23857625084594 156.00000000000017 336.9999999999999 153.76142374915415 336.9999999999999 151.00000000000017 C 336.9999999999999 148.2385762508462 339.23857625084594 146.00000000000017 341.9999999999999 146.00000000000017 C 344.76142374915383 146.00000000000017 346.9999999999999 148.2385762508462 346.9999999999999 151.00000000000017 Z" fill-opacity="1"/><path fill="none" stroke="rgb(0,0,0)" paint-order="fill stroke markers" d=" M 346.9999999999999 151.00000000000017 C 346.9999999999999 153.76142374915415 344.76142374915383 156.00000000000017 341.9999999999999 156.00000000000017 C 339.23857625084594 156.00000000000017 336.9999999999999 153.76142374915415 336.9999999999999 151.00000000000017 C 336.9999999999999 148.2385762508462 339.23857625084594 146.00000000000017 341.9999999999999 146.00000000000017 C 344.76142374915383 146.00000000000017 346.9999999999999 148.2385762508462 346.9999999999999 151.00000000000017 Z" stroke-opacity="1" stroke-linecap="round" stroke-linejoin="round" stroke-miterlimit="10"/><text fill="rgb(21,101,192)" stroke="none" font-family="geogebra-sans-serif, sans-serif" font-size="16px" font-style="normal" font-weight="normal" text-decoration="normal" x="346" y="141" text-anchor="start" dominant-baseline="alphabetic" fill-opacity="1">B</text><text fill="none" stroke="rgb(255,255,255)" font-family="geogebra-sans-serif, sans-serif" font-size="16px" font-style="normal" font-weight="normal" text-decoration="normal" x="346" y="141" text-anchor="start" dominant-baseline="alphabetic" stroke-opacity="1" stroke-linejoin="bevel" stroke-miterlimit="10" stroke-width="3">B</text><text fill="rgb(21,101,192)" stroke="none" font-family="geogebra-sans-serif, sans-serif" font-size="16px" font-style="normal" font-weight="normal" text-decoration="normal" x="346" y="141" text-anchor="start" dominant-baseline="alphabetic" fill-opacity="1">B</text><path fill="rgb(21,101,192)" stroke="none" paint-order="stroke fill markers" d=" M 498.9999999999999 141.0000000000001 C 498.9999999999999 143.7614237491541 496.76142374915383 146.0000000000001 493.9999999999999 146.0000000000001 C 491.23857625084594 146.0000000000001 488.9999999999999 143.7614237491541 488.9999999999999 141.0000000000001 C 488.9999999999999 138.23857625084614 491.23857625084594 136.0000000000001 493.9999999999999 136.0000000000001 C 496.76142374915383 136.0000000000001 498.9999999999999 138.23857625084614 498.9999999999999 141.0000000000001 Z" fill-opacity="1"/><path fill="none" stroke="rgb(0,0,0)" paint-order="fill stroke markers" d=" M 498.9999999999999 141.0000000000001 C 498.9999999999999 143.7614237491541 496.76142374915383 146.0000000000001 493.9999999999999 146.0000000000001 C 491.23857625084594 146.0000000000001 488.9999999999999 143.7614237491541 488.9999999999999 141.0000000000001 C 488.9999999999999 138.23857625084614 491.23857625084594 136.0000000000001 493.9999999999999 136.0000000000001 C 496.76142374915383 136.0000000000001 498.9999999999999 138.23857625084614 498.9999999999999 141.0000000000001 Z" stroke-opacity="1" stroke-linecap="round" stroke-linejoin="round" stroke-miterlimit="10"/><text fill="rgb(21,101,192)" stroke="none" font-family="geogebra-sans-serif, sans-serif" font-size="16px" font-style="normal" font-weight="normal" text-decoration="normal" x="498" y="131" text-anchor="start" dominant-baseline="alphabetic" fill-opacity="1">C</text><text fill="none" stroke="rgb(255,255,255)" font-family="geogebra-sans-serif, sans-serif" font-size="16px" font-style="normal" font-weight="normal" text-decoration="normal" x="498" y="131" text-anchor="start" dominant-baseline="alphabetic" stroke-opacity="1" stroke-linejoin="bevel" stroke-miterlimit="10" stroke-width="3">C</text><text fill="rgb(21,101,192)" stroke="none" font-family="geogebra-sans-serif, sans-serif" font-size="16px" font-style="normal" font-weight="normal" text-decoration="normal" x="498" y="131" text-anchor="start" dominant-baseline="alphabetic" fill-opacity="1">C</text><path fill="rgb(21,101,192)" stroke="none" paint-order="stroke fill markers" d=" M 569.9999999999999 235.0000000000001 C 569.9999999999999 237.7614237491541 567.7614237491539 240.0000000000001 564.9999999999999 240.0000000000001 C 562.2385762508459 240.0000000000001 559.9999999999999 237.7614237491541 559.9999999999999 235.0000000000001 C 559.9999999999999 232.23857625084614 562.2385762508459 230.0000000000001 564.9999999999999 230.0000000000001 C 567.7614237491539 230.0000000000001 569.9999999999999 232.23857625084614 569.9999999999999 235.0000000000001 Z" fill-opacity="1"/><path fill="none" stroke="rgb(0,0,0)" paint-order="fill stroke markers" d=" M 569.9999999999999 235.0000000000001 C 569.9999999999999 237.7614237491541 567.7614237491539 240.0000000000001 564.9999999999999 240.0000000000001 C 562.2385762508459 240.0000000000001 559.9999999999999 237.7614237491541 559.9999999999999 235.0000000000001 C 559.9999999999999 232.23857625084614 562.2385762508459 230.0000000000001 564.9999999999999 230.0000000000001 C 567.7614237491539 230.0000000000001 569.9999999999999 232.23857625084614 569.9999999999999 235.0000000000001 Z" stroke-opacity="1" stroke-linecap="round" stroke-linejoin="round" stroke-miterlimit="10"/><text fill="rgb(21,101,192)" stroke="none" font-family="geogebra-sans-serif, sans-serif" font-size="16px" font-style="normal" font-weight="normal" text-decoration="normal" x="569" y="225" text-anchor="start" dominant-baseline="alphabetic" fill-opacity="1">D</text><text fill="none" stroke="rgb(255,255,255)" font-family="geogebra-sans-serif, sans-serif" font-size="16px" font-style="normal" font-weight="normal" text-decoration="normal" x="569" y="225" text-anchor="start" dominant-baseline="alphabetic" stroke-opacity="1" stroke-linejoin="bevel" stroke-miterlimit="10" stroke-width="3">D</text><text fill="rgb(21,101,192)" stroke="none" font-family="geogebra-sans-serif, sans-serif" font-size="16px" font-style="normal" font-weight="normal" text-decoration="normal" x="569" y="225" text-anchor="start" dominant-baseline="alphabetic" fill-opacity="1">D</text><path fill="rgb(21,101,192)" stroke="none" paint-order="stroke fill markers" d=" M 528.9999999999999 335.0000000000001 C 528.9999999999999 337.76142374915406 526.7614237491539 340.0000000000001 523.9999999999999 340.0000000000001 C 521.2385762508459 340.0000000000001 518.9999999999999 337.76142374915406 518.9999999999999 335.0000000000001 C 518.9999999999999 332.23857625084617 521.2385762508459 330.0000000000001 523.9999999999999 330.0000000000001 C 526.7614237491539 330.0000000000001 528.9999999999999 332.23857625084617 528.9999999999999 335.0000000000001 Z" fill-opacity="1"/><path fill="none" stroke="rgb(0,0,0)" paint-order="fill stroke markers" d=" M 528.9999999999999 335.0000000000001 C 528.9999999999999 337.76142374915406 526.7614237491539 340.0000000000001 523.9999999999999 340.0000000000001 C 521.2385762508459 340.0000000000001 518.9999999999999 337.76142374915406 518.9999999999999 335.0000000000001 C 518.9999999999999 332.23857625084617 521.2385762508459 330.0000000000001 523.9999999999999 330.0000000000001 C 526.7614237491539 330.0000000000001 528.9999999999999 332.23857625084617 528.9999999999999 335.0000000000001 Z" stroke-opacity="1" stroke-linecap="round" stroke-linejoin="round" stroke-miterlimit="10"/><text fill="rgb(21,101,192)" stroke="none" font-family="geogebra-sans-serif, sans-serif" font-size="16px" font-style="normal" font-weight="normal" text-decoration="normal" x="528" y="325" text-anchor="start" dominant-baseline="alphabetic" fill-opacity="1">E</text><text fill="none" stroke="rgb(255,255,255)" font-family="geogebra-sans-serif, sans-serif" font-size="16px" font-style="normal" font-weight="normal" text-decoration="normal" x="528" y="325" text-anchor="start" dominant-baseline="alphabetic" stroke-opacity="1" stroke-linejoin="bevel" stroke-miterlimit="10" stroke-width="3">E</text><text fill="rgb(21,101,192)" stroke="none" font-family="geogebra-sans-serif, sans-serif" font-size="16px" font-style="normal" font-weight="normal" text-decoration="normal" x="528" y="325" text-anchor="start" dominant-baseline="alphabetic" fill-opacity="1">E</text><path fill="rgb(21,101,192)" stroke="none" paint-order="stroke fill markers" d=" M 434.99999999999983 350.0000000000001 C 434.99999999999983 352.76142374915406 432.7614237491538 355.0000000000001 429.99999999999983 355.0000000000001 C 427.2385762508459 355.0000000000001 424.99999999999983 352.76142374915406 424.99999999999983 350.0000000000001 C 424.99999999999983 347.23857625084617 427.2385762508459 345.0000000000001 429.99999999999983 345.0000000000001 C 432.7614237491538 345.0000000000001 434.99999999999983 347.23857625084617 434.99999999999983 350.0000000000001 Z" fill-opacity="1"/><path fill="none" stroke="rgb(0,0,0)" paint-order="fill stroke markers" d=" M 434.99999999999983 350.0000000000001 C 434.99999999999983 352.76142374915406 432.7614237491538 355.0000000000001 429.99999999999983 355.0000000000001 C 427.2385762508459 355.0000000000001 424.99999999999983 352.76142374915406 424.99999999999983 350.0000000000001 C 424.99999999999983 347.23857625084617 427.2385762508459 345.0000000000001 429.99999999999983 345.0000000000001 C 432.7614237491538 345.0000000000001 434.99999999999983 347.23857625084617 434.99999999999983 350.0000000000001 Z" stroke-opacity="1" stroke-linecap="round" stroke-linejoin="round" stroke-miterlimit="10"/><text fill="rgb(21,101,192)" stroke="none" font-family="geogebra-sans-serif, sans-serif" font-size="16px" font-style="normal" font-weight="normal" text-decoration="normal" x="434" y="340" text-anchor="start" dominant-baseline="alphabetic" fill-opacity="1">F</text><text fill="none" stroke="rgb(255,255,255)" font-family="geogebra-sans-serif, sans-serif" font-size="16px" font-style="normal" font-weight="normal" text-decoration="normal" x="434" y="340" text-anchor="start" dominant-baseline="alphabetic" stroke-opacity="1" stroke-linejoin="bevel" stroke-miterlimit="10" stroke-width="3">F</text><text fill="rgb(21,101,192)" stroke="none" font-family="geogebra-sans-serif, sans-serif" font-size="16px" font-style="normal" font-weight="normal" text-decoration="normal" x="434" y="340" text-anchor="start" dominant-baseline="alphabetic" fill-opacity="1">F</text><path fill="rgb(21,101,192)" stroke="none" paint-order="stroke fill markers" d=" M 323.9999999999999 328.00000000000006 C 323.9999999999999 330.761423749154 321.76142374915383 333.00000000000006 318.9999999999999 333.00000000000006 C 316.23857625084594 333.00000000000006 313.9999999999999 330.761423749154 313.9999999999999 328.00000000000006 C 313.9999999999999 325.2385762508461 316.23857625084594 323.00000000000006 318.9999999999999 323.00000000000006 C 321.76142374915383 323.00000000000006 323.9999999999999 325.2385762508461 323.9999999999999 328.00000000000006 Z" fill-opacity="1"/><path fill="none" stroke="rgb(0,0,0)" paint-order="fill stroke markers" d=" M 323.9999999999999 328.00000000000006 C 323.9999999999999 330.761423749154 321.76142374915383 333.00000000000006 318.9999999999999 333.00000000000006 C 316.23857625084594 333.00000000000006 313.9999999999999 330.761423749154 313.9999999999999 328.00000000000006 C 313.9999999999999 325.2385762508461 316.23857625084594 323.00000000000006 318.9999999999999 323.00000000000006 C 321.76142374915383 323.00000000000006 323.9999999999999 325.2385762508461 323.9999999999999 328.00000000000006 Z" stroke-opacity="1" stroke-linecap="round" stroke-linejoin="round" stroke-miterlimit="10"/><text fill="rgb(21,101,192)" stroke="none" font-family="geogebra-sans-serif, sans-serif" font-size="16px" font-style="normal" font-weight="normal" text-decoration="normal" x="323" y="318" text-anchor="start" dominant-baseline="alphabetic" fill-opacity="1">G</text><text fill="none" stroke="rgb(255,255,255)" font-family="geogebra-sans-serif, sans-serif" font-size="16px" font-style="normal" font-weight="normal" text-decoration="normal" x="323" y="318" text-anchor="start" dominant-baseline="alphabetic" stroke-opacity="1" stroke-linejoin="bevel" stroke-miterlimit="10" stroke-width="3">G</text><text fill="rgb(21,101,192)" stroke="none" font-family="geogebra-sans-serif, sans-serif" font-size="16px" font-style="normal" font-weight="normal" text-decoration="normal" x="323" y="318" text-anchor="start" dominant-baseline="alphabetic" fill-opacity="1">G</text><path fill="rgb(21,101,192)" stroke="none" paint-order="stroke fill markers" d=" M 387.9999999999999 185.00000000000017 C 387.9999999999999 187.76142374915415 385.76142374915383 190.00000000000017 382.9999999999999 190.00000000000017 C 380.23857625084594 190.00000000000017 377.9999999999999 187.76142374915415 377.9999999999999 185.00000000000017 C 377.9999999999999 182.2385762508462 380.23857625084594 180.00000000000017 382.9999999999999 180.00000000000017 C 385.76142374915383 180.00000000000017 387.9999999999999 182.2385762508462 387.9999999999999 185.00000000000017 Z" fill-opacity="1"/><path fill="none" stroke="rgb(0,0,0)" paint-order="fill stroke markers" d=" M 387.9999999999999 185.00000000000017 C 387.9999999999999 187.76142374915415 385.76142374915383 190.00000000000017 382.9999999999999 190.00000000000017 C 380.23857625084594 190.00000000000017 377.9999999999999 187.76142374915415 377.9999999999999 185.00000000000017 C 377.9999999999999 182.2385762508462 380.23857625084594 180.00000000000017 382.9999999999999 180.00000000000017 C 385.76142374915383 180.00000000000017 387.9999999999999 182.2385762508462 387.9999999999999 185.00000000000017 Z" stroke-opacity="1" stroke-linecap="round" stroke-linejoin="round" stroke-miterlimit="10"/><text fill="rgb(21,101,192)" stroke="none" font-family="geogebra-sans-serif, sans-serif" font-size="16px" font-style="normal" font-weight="normal" text-decoration="normal" x="387" y="175" text-anchor="start" dominant-baseline="alphabetic" fill-opacity="1">H</text><text fill="none" stroke="rgb(255,255,255)" font-family="geogebra-sans-serif, sans-serif" font-size="16px" font-style="normal" font-weight="normal" text-decoration="normal" x="387" y="175" text-anchor="start" dominant-baseline="alphabetic" stroke-opacity="1" stroke-linejoin="bevel" stroke-miterlimit="10" stroke-width="3">H</text><text fill="rgb(21,101,192)" stroke="none" font-family="geogebra-sans-serif, sans-serif" font-size="16px" font-style="normal" font-weight="normal" text-decoration="normal" x="387" y="175" text-anchor="start" dominant-baseline="alphabetic" fill-opacity="1">H</text><path fill="rgb(21,101,192)" stroke="none" paint-order="stroke fill markers" d=" M 492.9999999999999 203.0000000000001 C 492.9999999999999 205.7614237491541 490.76142374915383 208.0000000000001 487.9999999999999 208.0000000000001 C 485.23857625084594 208.0000000000001 482.9999999999999 205.7614237491541 482.9999999999999 203.0000000000001 C 482.9999999999999 200.23857625084614 485.23857625084594 198.0000000000001 487.9999999999999 198.0000000000001 C 490.76142374915383 198.0000000000001 492.9999999999999 200.23857625084614 492.9999999999999 203.0000000000001 Z" fill-opacity="1"/><path fill="none" stroke="rgb(0,0,0)" paint-order="fill stroke markers" d=" M 492.9999999999999 203.0000000000001 C 492.9999999999999 205.7614237491541 490.76142374915383 208.0000000000001 487.9999999999999 208.0000000000001 C 485.23857625084594 208.0000000000001 482.9999999999999 205.7614237491541 482.9999999999999 203.0000000000001 C 482.9999999999999 200.23857625084614 485.23857625084594 198.0000000000001 487.9999999999999 198.0000000000001 C 490.76142374915383 198.0000000000001 492.9999999999999 200.23857625084614 492.9999999999999 203.0000000000001 Z" stroke-opacity="1" stroke-linecap="round" stroke-linejoin="round" stroke-miterlimit="10"/><text fill="rgb(21,101,192)" stroke="none" font-family="geogebra-sans-serif, sans-serif" font-size="16px" font-style="normal" font-weight="normal" text-decoration="normal" x="492" y="193" text-anchor="start" dominant-baseline="alphabetic" fill-opacity="1">I</text><text fill="none" stroke="rgb(255,255,255)" font-family="geogebra-sans-serif, sans-serif" font-size="16px" font-style="normal" font-weight="normal" text-decoration="normal" x="492" y="193" text-anchor="start" dominant-baseline="alphabetic" stroke-opacity="1" stroke-linejoin="bevel" stroke-miterlimit="10" stroke-width="3">I</text><text fill="rgb(21,101,192)" stroke="none" font-family="geogebra-sans-serif, sans-serif" font-size="16px" font-style="normal" font-weight="normal" text-decoration="normal" x="492" y="193" text-anchor="start" dominant-baseline="alphabetic" fill-opacity="1">I</text><path fill="rgb(21,101,192)" stroke="none" paint-order="stroke fill markers" d=" M 338.9999999999999 277.0000000000001 C 338.9999999999999 279.76142374915406 336.76142374915383 282.0000000000001 333.9999999999999 282.0000000000001 C 331.23857625084594 282.0000000000001 328.9999999999999 279.76142374915406 328.9999999999999 277.0000000000001 C 328.9999999999999 274.23857625084617 331.23857625084594 272.0000000000001 333.9999999999999 272.0000000000001 C 336.76142374915383 272.0000000000001 338.9999999999999 274.23857625084617 338.9999999999999 277.0000000000001 Z" fill-opacity="1"/><path fill="none" stroke="rgb(0,0,0)" paint-order="fill stroke markers" d=" M 338.9999999999999 277.0000000000001 C 338.9999999999999 279.76142374915406 336.76142374915383 282.0000000000001 333.9999999999999 282.0000000000001 C 331.23857625084594 282.0000000000001 328.9999999999999 279.76142374915406 328.9999999999999 277.0000000000001 C 328.9999999999999 274.23857625084617 331.23857625084594 272.0000000000001 333.9999999999999 272.0000000000001 C 336.76142374915383 272.0000000000001 338.9999999999999 274.23857625084617 338.9999999999999 277.0000000000001 Z" stroke-opacity="1" stroke-linecap="round" stroke-linejoin="round" stroke-miterlimit="10"/><text fill="rgb(21,101,192)" stroke="none" font-family="geogebra-sans-serif, sans-serif" font-size="16px" font-style="normal" font-weight="normal" text-decoration="normal" x="338" y="267" text-anchor="start" dominant-baseline="alphabetic" fill-opacity="1">J</text><text fill="none" stroke="rgb(255,255,255)" font-family="geogebra-sans-serif, sans-serif" font-size="16px" font-style="normal" font-weight="normal" text-decoration="normal" x="338" y="267" text-anchor="start" dominant-baseline="alphabetic" stroke-opacity="1" stroke-linejoin="bevel" stroke-miterlimit="10" stroke-width="3">J</text><text fill="rgb(21,101,192)" stroke="none" font-family="geogebra-sans-serif, sans-serif" font-size="16px" font-style="normal" font-weight="normal" text-decoration="normal" x="338" y="267" text-anchor="start" dominant-baseline="alphabetic" fill-opacity="1">J</text><path fill="rgb(21,101,192)" stroke="none" paint-order="stroke fill markers" d=" M 408.9999999999999 225.00000000000006 C 408.9999999999999 227.76142374915403 406.76142374915383 230.00000000000006 403.9999999999999 230.00000000000006 C 401.23857625084594 230.00000000000006 398.9999999999999 227.76142374915403 398.9999999999999 225.00000000000006 C 398.9999999999999 222.23857625084608 401.23857625084594 220.00000000000006 403.9999999999999 220.00000000000006 C 406.76142374915383 220.00000000000006 408.9999999999999 222.23857625084608 408.9999999999999 225.00000000000006 Z" fill-opacity="1"/><path fill="none" stroke="rgb(0,0,0)" paint-order="fill stroke markers" d=" M 408.9999999999999 225.00000000000006 C 408.9999999999999 227.76142374915403 406.76142374915383 230.00000000000006 403.9999999999999 230.00000000000006 C 401.23857625084594 230.00000000000006 398.9999999999999 227.76142374915403 398.9999999999999 225.00000000000006 C 398.9999999999999 222.23857625084608 401.23857625084594 220.00000000000006 403.9999999999999 220.00000000000006 C 406.76142374915383 220.00000000000006 408.9999999999999 222.23857625084608 408.9999999999999 225.00000000000006 Z" stroke-opacity="1" stroke-linecap="round" stroke-linejoin="round" stroke-miterlimit="10"/><text fill="rgb(21,101,192)" stroke="none" font-family="geogebra-sans-serif, sans-serif" font-size="16px" font-style="normal" font-weight="normal" text-decoration="normal" x="408" y="215" text-anchor="start" dominant-baseline="alphabetic" fill-opacity="1">K</text><text fill="none" stroke="rgb(255,255,255)" font-family="geogebra-sans-serif, sans-serif" font-size="16px" font-style="normal" font-weight="normal" text-decoration="normal" x="408" y="215" text-anchor="start" dominant-baseline="alphabetic" stroke-opacity="1" stroke-linejoin="bevel" stroke-miterlimit="10" stroke-width="3">K</text><text fill="rgb(21,101,192)" stroke="none" font-family="geogebra-sans-serif, sans-serif" font-size="16px" font-style="normal" font-weight="normal" text-decoration="normal" x="408" y="215" text-anchor="start" dominant-baseline="alphabetic" fill-opacity="1">K</text><path fill="rgb(21,101,192)" stroke="none" paint-order="stroke fill markers" d=" M 484.99999999999983 264.0000000000001 C 484.99999999999983 266.76142374915406 482.7614237491538 269.0000000000001 479.99999999999983 269.0000000000001 C 477.2385762508459 269.0000000000001 474.99999999999983 266.76142374915406 474.99999999999983 264.0000000000001 C 474.99999999999983 261.23857625084617 477.2385762508459 259.0000000000001 479.99999999999983 259.0000000000001 C 482.7614237491538 259.0000000000001 484.99999999999983 261.23857625084617 484.99999999999983 264.0000000000001 Z" fill-opacity="1"/><path fill="none" stroke="rgb(0,0,0)" paint-order="fill stroke markers" d=" M 484.99999999999983 264.0000000000001 C 484.99999999999983 266.76142374915406 482.7614237491538 269.0000000000001 479.99999999999983 269.0000000000001 C 477.2385762508459 269.0000000000001 474.99999999999983 266.76142374915406 474.99999999999983 264.0000000000001 C 474.99999999999983 261.23857625084617 477.2385762508459 259.0000000000001 479.99999999999983 259.0000000000001 C 482.7614237491538 259.0000000000001 484.99999999999983 261.23857625084617 484.99999999999983 264.0000000000001 Z" stroke-opacity="1" stroke-linecap="round" stroke-linejoin="round" stroke-miterlimit="10"/><text fill="rgb(21,101,192)" stroke="none" font-family="geogebra-sans-serif, sans-serif" font-size="16px" font-style="normal" font-weight="normal" text-decoration="normal" x="484" y="254" text-anchor="start" dominant-baseline="alphabetic" fill-opacity="1">L</text><text fill="none" stroke="rgb(255,255,255)" font-family="geogebra-sans-serif, sans-serif" font-size="16px" font-style="normal" font-weight="normal" text-decoration="normal" x="484" y="254" text-anchor="start" dominant-baseline="alphabetic" stroke-opacity="1" stroke-linejoin="bevel" stroke-miterlimit="10" stroke-width="3">L</text><text fill="rgb(21,101,192)" stroke="none" font-family="geogebra-sans-serif, sans-serif" font-size="16px" font-style="normal" font-weight="normal" text-decoration="normal" x="484" y="254" text-anchor="start" dominant-baseline="alphabetic" fill-opacity="1">L</text><path fill="rgb(21,101,192)" stroke="none" paint-order="stroke fill markers" d=" M 425.9999999999999 290.0000000000001 C 425.9999999999999 292.76142374915406 423.76142374915383 295.0000000000001 420.9999999999999 295.0000000000001 C 418.23857625084594 295.0000000000001 415.9999999999999 292.76142374915406 415.9999999999999 290.0000000000001 C 415.9999999999999 287.23857625084617 418.23857625084594 285.0000000000001 420.9999999999999 285.0000000000001 C 423.76142374915383 285.0000000000001 425.9999999999999 287.23857625084617 425.9999999999999 290.0000000000001 Z" fill-opacity="1"/><path fill="none" stroke="rgb(0,0,0)" paint-order="fill stroke markers" d=" M 425.9999999999999 290.0000000000001 C 425.9999999999999 292.76142374915406 423.76142374915383 295.0000000000001 420.9999999999999 295.0000000000001 C 418.23857625084594 295.0000000000001 415.9999999999999 292.76142374915406 415.9999999999999 290.0000000000001 C 415.9999999999999 287.23857625084617 418.23857625084594 285.0000000000001 420.9999999999999 285.0000000000001 C 423.76142374915383 285.0000000000001 425.9999999999999 287.23857625084617 425.9999999999999 290.0000000000001 Z" stroke-opacity="1" stroke-linecap="round" stroke-linejoin="round" stroke-miterlimit="10"/><text fill="rgb(21,101,192)" stroke="none" font-family="geogebra-sans-serif, sans-serif" font-size="16px" font-style="normal" font-weight="normal" text-decoration="normal" x="425" y="280" text-anchor="start" dominant-baseline="alphabetic" fill-opacity="1">M</text><text fill="none" stroke="rgb(255,255,255)" font-family="geogebra-sans-serif, sans-serif" font-size="16px" font-style="normal" font-weight="normal" text-decoration="normal" x="425" y="280" text-anchor="start" dominant-baseline="alphabetic" stroke-opacity="1" stroke-linejoin="bevel" stroke-miterlimit="10" stroke-width="3">M</text><text fill="rgb(21,101,192)" stroke="none" font-family="geogebra-sans-serif, sans-serif" font-size="16px" font-style="normal" font-weight="normal" text-decoration="normal" x="425" y="280" text-anchor="start" dominant-baseline="alphabetic" fill-opacity="1">M</text><path fill="rgb(21,101,192)" stroke="none" paint-order="stroke fill markers" d=" M 479.9999999999999 310.0000000000001 C 479.9999999999999 312.76142374915406 477.76142374915383 315.0000000000001 474.9999999999999 315.0000000000001 C 472.23857625084594 315.0000000000001 469.9999999999999 312.76142374915406 469.9999999999999 310.0000000000001 C 469.9999999999999 307.23857625084617 472.23857625084594 305.0000000000001 474.9999999999999 305.0000000000001 C 477.76142374915383 305.0000000000001 479.9999999999999 307.23857625084617 479.9999999999999 310.0000000000001 Z" fill-opacity="1"/><path fill="none" stroke="rgb(0,0,0)" paint-order="fill stroke markers" d=" M 479.9999999999999 310.0000000000001 C 479.9999999999999 312.76142374915406 477.76142374915383 315.0000000000001 474.9999999999999 315.0000000000001 C 472.23857625084594 315.0000000000001 469.9999999999999 312.76142374915406 469.9999999999999 310.0000000000001 C 469.9999999999999 307.23857625084617 472.23857625084594 305.0000000000001 474.9999999999999 305.0000000000001 C 477.76142374915383 305.0000000000001 479.9999999999999 307.23857625084617 479.9999999999999 310.0000000000001 Z" stroke-opacity="1" stroke-linecap="round" stroke-linejoin="round" stroke-miterlimit="10"/><text fill="rgb(21,101,192)" stroke="none" font-family="geogebra-sans-serif, sans-serif" font-size="16px" font-style="normal" font-weight="normal" text-decoration="normal" x="479" y="300" text-anchor="start" dominant-baseline="alphabetic" fill-opacity="1">N</text><text fill="none" stroke="rgb(255,255,255)" font-family="geogebra-sans-serif, sans-serif" font-size="16px" font-style="normal" font-weight="normal" text-decoration="normal" x="479" y="300" text-anchor="start" dominant-baseline="alphabetic" stroke-opacity="1" stroke-linejoin="bevel" stroke-miterlimit="10" stroke-width="3">N</text><text fill="rgb(21,101,192)" stroke="none" font-family="geogebra-sans-serif, sans-serif" font-size="16px" font-style="normal" font-weight="normal" text-decoration="normal" x="479" y="300" text-anchor="start" dominant-baseline="alphabetic" fill-opacity="1">N</text></g></g></svg>