<svg version="1.1" xmlns="http://www.w3.org/2000/svg" xmlns:xlink="http://www.w3.org/1999/xlink" width="986" height="600"><defs><clipPath id="MVJnkHPZdntS"><path fill="none" stroke="none" d=" M 0 0 L 986 0 L 986 600 L 0 600 L 0 0 Z"/></clipPath></defs><g transform="scale(1,1)" clip-path="url(#MVJnkHPZdntS)"><g><rect fill="rgb(255,255,255)" stroke="none" x="0" y="0" width="986" height="600" fill-opacity="1"/><path fill="none" stroke="rgb(211,47,47)" paint-order="fill stroke markers" d=" M 203.0640317108442 501.12832100380524 L 198.0640317108442 506.12832100380524 L 203.0640317108442 511.12832100380524 L 208.0640317108442 506.12832100380524 Z" stroke-opacity="1" stroke-linecap="square" stroke-miterlimit="10" stroke-width="2.5"/><path fill="rgb(211,47,47)" stroke="none" paint-order="stroke fill markers" fill-rule="evenodd" d=" M 203.0640317108442 501.12832100380524 L 198.0640317108442 506.12832100380524 L 203.0640317108442 511.12832100380524 L 208.0640317108442 506.12832100380524 Z" fill-opacity="1"/><text fill="rgb(211,47,47)" stroke="none" font-family="geogebra-sans-serif, sans-serif" font-size="16px" font-style="normal" font-weight="normal" text-decoration="normal" x="181" y="530" text-anchor="start" dominant-baseline="alphabetic" fill-opacity="1">0</text><text fill="rgb(211,47,47)" stroke="none" font-family="geogebra-sans-serif, sans-serif" font-size="16px" font-style="normal" font-weight="normal" text-decoration="normal" x="181" y="530" text-anchor="start" dominant-baseline="alphabetic" fill-opacity="1">0</text><path fill="rgb(21,101,192)" stroke="none" paint-order="stroke fill markers" d=" M 172.3556254594829 242.23152857122568 C 172.3556254594829 244.99295232037966 170.11704920863687 247.23152857122568 167.3556254594829 247.23152857122568 C 164.59420171032892 247.23152857122568 162.3556254594829 244.99295232037966 162.3556254594829 242.23152857122568 C 162.3556254594829 239.4701048220717 164.59420171032892 237.23152857122568 167.3556254594829 237.23152857122568 C 170.11704920863687 237.23152857122568 172.3556254594829 239.4701048220717 172.3556254594829 242.23152857122568 Z" fill-opacity="1"/><path fill="none" stroke="rgb(0,0,0)" paint-order="fill stroke markers" d=" M 172.3556254594829 242.23152857122568 C 172.3556254594829 244.99295232037966 170.11704920863687 247.23152857122568 167.3556254594829 247.23152857122568 C 164.59420171032892 247.23152857122568 162.3556254594829 244.99295232037966 162.3556254594829 242.23152857122568 C 162.3556254594829 239.4701048220717 164.59420171032892 237.23152857122568 167.3556254594829 237.23152857122568 C 170.11704920863687 237.23152857122568 172.3556254594829 239.4701048220717 172.3556254594829 242.23152857122568 Z" stroke-opacity="1" stroke-linecap="round" stroke-linejoin="round" stroke-miterlimit="10"/><text fill="rgb(21,101,192)" stroke="none" font-family="geogebra-sans-serif, sans-serif" font-size="16px" font-style="normal" font-weight="normal" text-decoration="normal" x="180" y="246" text-anchor="start" dominant-baseline="alphabetic" fill-opacity="1">F</text><text fill="rgb(21,101,192)" stroke="none" font-family="geogebra-sans-serif, sans-serif" font-size="16px" font-style="normal" font-weight="normal" text-decoration="normal" x="180" y="246" text-anchor="start" dominant-baseline="alphabetic" fill-opacity="1">F</text><path fill="rgb(21,101,192)" stroke="none" paint-order="stroke fill markers" d=" M 440.1686723446928 137.81193444322662 C 440.1686723446928 140.5733581923806 437.93009609384677 142.81193444322662 435.1686723446928 142.81193444322662 C 432.4072485955389 142.81193444322662 430.1686723446928 140.5733581923806 430.1686723446928 137.81193444322662 C 430.1686723446928 135.05051069407264 432.4072485955389 132.81193444322662 435.1686723446928 132.81193444322662 C 437.93009609384677 132.81193444322662 440.1686723446928 135.05051069407264 440.1686723446928 137.81193444322662 Z" fill-opacity="1"/><path fill="none" stroke="rgb(0,0,0)" paint-order="fill stroke markers" d=" M 440.1686723446928 137.81193444322662 C 440.1686723446928 140.5733581923806 437.93009609384677 142.81193444322662 435.1686723446928 142.81193444322662 C 432.4072485955389 142.81193444322662 430.1686723446928 140.5733581923806 430.1686723446928 137.81193444322662 C 430.1686723446928 135.05051069407264 432.4072485955389 132.81193444322662 435.1686723446928 132.81193444322662 C 437.93009609384677 132.81193444322662 440.1686723446928 135.05051069407264 440.1686723446928 137.81193444322662 Z" stroke-opacity="1" stroke-linecap="round" stroke-linejoin="round" stroke-miterlimit="10"/><text fill="rgb(21,101,192)" stroke="none" font-family="geogebra-sans-serif, sans-serif" font-size="16px" font-style="normal" font-weight="normal" text-decoration="normal" x="450" y="142" text-anchor="start" dominant-baseline="alphabetic" fill-opacity="1">D</text><text fill="rgb(21,101,192)" stroke="none" font-family="geogebra-sans-serif, sans-serif" font-size="16px" font-style="normal" font-weight="normal" text-decoration="normal" x="450" y="142" text-anchor="start" dominant-baseline="alphabetic" fill-opacity="1">D</text><path fill="rgb(21,101,192)" stroke="none" paint-order="stroke fill markers" d=" M 794.7021344117801 342.85404654911576 C 794.7021344117801 345.6154702982697 792.4635581609341 347.85404654911576 789.7021344117801 347.85404654911576 C 786.9407106626261 347.85404654911576 784.7021344117801 345.6154702982697 784.7021344117801 342.85404654911576 C 784.7021344117801 340.0926227999618 786.9407106626261 337.85404654911576 789.7021344117801 337.85404654911576 C 792.4635581609341 337.85404654911576 794.7021344117801 340.0926227999618 794.7021344117801 342.85404654911576 Z" fill-opacity="1"/><path fill="none" stroke="rgb(0,0,0)" paint-order="fill stroke markers" d=" M 794.7021344117801 342.85404654911576 C 794.7021344117801 345.6154702982697 792.4635581609341 347.85404654911576 789.7021344117801 347.85404654911576 C 786.9407106626261 347.85404654911576 784.7021344117801 345.6154702982697 784.7021344117801 342.85404654911576 C 784.7021344117801 340.0926227999618 786.9407106626261 337.85404654911576 789.7021344117801 337.85404654911576 C 792.4635581609341 337.85404654911576 794.7021344117801 340.0926227999618 794.7021344117801 342.85404654911576 Z" stroke-opacity="1" stroke-linecap="round" stroke-linejoin="round" stroke-miterlimit="10"/><text fill="rgb(21,101,192)" stroke="none" font-family="geogebra-sans-serif, sans-serif" font-size="16px" font-style="normal" font-weight="normal" text-decoration="normal" x="806" y="361" text-anchor="start" dominant-baseline="alphabetic" fill-opacity="1">E</text><text fill="rgb(21,101,192)" stroke="none" font-family="geogebra-sans-serif, sans-serif" font-size="16px" font-style="normal" font-weight="normal" text-decoration="normal" x="806" y="361" text-anchor="start" dominant-baseline="alphabetic" fill-opacity="1">E</text><path fill="rgb(21,101,192)" stroke="none" paint-order="stroke fill markers" d=" M 409.56146698638304 335.25989424889764 C 409.56146698638304 338.0213179980516 407.322890735537 340.25989424889764 404.56146698638304 340.25989424889764 C 401.8000432372291 340.25989424889764 399.56146698638304 338.0213179980516 399.56146698638304 335.25989424889764 C 399.56146698638304 332.4984704997437 401.8000432372291 330.25989424889764 404.56146698638304 330.25989424889764 C 407.322890735537 330.25989424889764 409.56146698638304 332.4984704997437 409.56146698638304 335.25989424889764 Z" fill-opacity="1"/><path fill="none" stroke="rgb(0,0,0)" paint-order="fill stroke markers" d=" M 409.56146698638304 335.25989424889764 C 409.56146698638304 338.0213179980516 407.322890735537 340.25989424889764 404.56146698638304 340.25989424889764 C 401.8000432372291 340.25989424889764 399.56146698638304 338.0213179980516 399.56146698638304 335.25989424889764 C 399.56146698638304 332.4984704997437 401.8000432372291 330.25989424889764 404.56146698638304 330.25989424889764 C 407.322890735537 330.25989424889764 409.56146698638304 332.4984704997437 409.56146698638304 335.25989424889764 Z" stroke-opacity="1" stroke-linecap="round" stroke-linejoin="round" stroke-miterlimit="10"/><text fill="rgb(21,101,192)" stroke="none" font-family="geogebra-sans-serif, sans-serif" font-size="16px" font-style="normal" font-weight="normal" text-decoration="normal" x="422" y="340" text-anchor="start" dominant-baseline="alphabetic" fill-opacity="1">C</text><text fill="rgb(21,101,192)" stroke="none" font-family="geogebra-sans-serif, sans-serif" font-size="16px" font-style="normal" font-weight="normal" text-decoration="normal" x="422" y="340" text-anchor="start" dominant-baseline="alphabetic" fill-opacity="1">C</text><path fill="rgb(21,101,192)" stroke="none" paint-order="stroke fill markers" d=" M 626.3625049410768 481.44732602809637 C 626.3625049410768 484.2087497772503 624.1239286902309 486.44732602809637 621.3625049410768 486.44732602809637 C 618.6010811919228 486.44732602809637 616.3625049410768 484.2087497772503 616.3625049410768 481.44732602809637 C 616.3625049410768 478.6859022789424 618.6010811919228 476.44732602809637 621.3625049410768 476.44732602809637 C 624.1239286902309 476.44732602809637 626.3625049410768 478.6859022789424 626.3625049410768 481.44732602809637 Z" fill-opacity="1"/><path fill="none" stroke="rgb(0,0,0)" paint-order="fill stroke markers" d=" M 626.3625049410768 481.44732602809637 C 626.3625049410768 484.2087497772503 624.1239286902309 486.44732602809637 621.3625049410768 486.44732602809637 C 618.6010811919228 486.44732602809637 616.3625049410768 484.2087497772503 616.3625049410768 481.44732602809637 C 616.3625049410768 478.6859022789424 618.6010811919228 476.44732602809637 621.3625049410768 476.44732602809637 C 624.1239286902309 476.44732602809637 626.3625049410768 478.6859022789424 626.3625049410768 481.44732602809637 Z" stroke-opacity="1" stroke-linecap="round" stroke-linejoin="round" stroke-miterlimit="10"/><text fill="rgb(21,101,192)" stroke="none" font-family="geogebra-sans-serif, sans-serif" font-size="16px" font-style="normal" font-weight="normal" text-decoration="normal" x="625" y="471" text-anchor="start" dominant-baseline="alphabetic" fill-opacity="1">B</text><text fill="rgb(21,101,192)" stroke="none" font-family="geogebra-sans-serif, sans-serif" font-size="16px" font-style="normal" font-weight="normal" text-decoration="normal" x="625" y="471" text-anchor="start" dominant-baseline="alphabetic" fill-opacity="1">B</text></g></g></svg>