<svg version="1.1" xmlns="http://www.w3.org/2000/svg" xmlns:xlink="http://www.w3.org/1999/xlink" width="986" height="600"><defs><clipPath id="kLgeTTBUuRBn"><path fill="none" stroke="none" d=" M 0 0 L 986 0 L 986 600 L 0 600 L 0 0 Z"/></clipPath></defs><g transform="scale(1,1)" clip-path="url(#kLgeTTBUuRBn)"><g><rect fill="rgb(255,255,255)" stroke="none" x="0" y="0" width="986" height="600" fill-opacity="1"/><path fill="none" stroke="rgb(192,192,192)" paint-order="fill stroke markers" d=" M -21.5 0.5 L -21.5 600.5 M -21.5 0.5 L -21.5 600.5 M 53.5 0.5 L 53.5 600.5 M 128.5 0.5 L 128.5 600.5 M 203.5 0.5 L 203.5 600.5 M 278.5 0.5 L 278.5 600.5 M 354.5 0.5 L 354.5 600.5 M 429.5 0.5 L 429.5 600.5 M 504.5 0.5 L 504.5 600.5 M 579.5 0.5 L 579.5 600.5 M 654.5 0.5 L 654.5 600.5 M 730.5 0.5 L 730.5 600.5 M 805.5 0.5 L 805.5 600.5 M 880.5 0.5 L 880.5 600.5 M 955.5 0.5 L 955.5 600.5" stroke-opacity="1" stroke-linecap="round" stroke-linejoin="round" stroke-miterlimit="10"/><path fill="none" stroke="rgb(192,192,192)" paint-order="fill stroke markers" d=" M -6.5 0.5 L -6.5 600.5 M 8.5 0.5 L 8.5 600.5 M 23.5 0.5 L 23.5 600.5 M 38.5 0.5 L 38.5 600.5 M 68.5 0.5 L 68.5 600.5 M 83.5 0.5 L 83.5 600.5 M 98.5 0.5 L 98.5 600.5 M 113.5 0.5 L 113.5 600.5 M 143.5 0.5 L 143.5 600.5 M 158.5 0.5 L 158.5 600.5 M 173.5 0.5 L 173.5 600.5 M 188.5 0.5 L 188.5 600.5 M 218.5 0.5 L 218.5 600.5 M 233.5 0.5 L 233.5 600.5 M 248.5 0.5 L 248.5 600.5 M 263.5 0.5 L 263.5 600.5 M 293.5 0.5 L 293.5 600.5 M 308.5 0.5 L 308.5 600.5 M 324.5 0.5 L 324.5 600.5 M 339.5 0.5 L 339.5 600.5 M 369.5 0.5 L 369.5 600.5 M 384.5 0.5 L 384.5 600.5 M 399.5 0.5 L 399.5 600.5 M 414.5 0.5 L 414.5 600.5 M 444.5 0.5 L 444.5 600.5 M 459.5 0.5 L 459.5 600.5 M 474.5 0.5 L 474.5 600.5 M 489.5 0.5 L 489.5 600.5 M 519.5 0.5 L 519.5 600.5 M 534.5 0.5 L 534.5 600.5 M 549.5 0.5 L 549.5 600.5 M 564.5 0.5 L 564.5 600.5 M 594.5 0.5 L 594.5 600.5 M 609.5 0.5 L 609.5 600.5 M 624.5 0.5 L 624.5 600.5 M 639.5 0.5 L 639.5 600.5 M 669.5 0.5 L 669.5 600.5 M 684.5 0.5 L 684.5 600.5 M 700.5 0.5 L 700.5 600.5 M 715.5 0.5 L 715.5 600.5 M 745.5 0.5 L 745.5 600.5 M 760.5 0.5 L 760.5 600.5 M 775.5 0.5 L 775.5 600.5 M 790.5 0.5 L 790.5 600.5 M 820.5 0.5 L 820.5 600.5 M 835.5 0.5 L 835.5 600.5 M 850.5 0.5 L 850.5 600.5 M 865.5 0.5 L 865.5 600.5 M 895.5 0.5 L 895.5 600.5 M 910.5 0.5 L 910.5 600.5 M 925.5 0.5 L 925.5 600.5 M 940.5 0.5 L 940.5 600.5 M 970.5 0.5 L 970.5 600.5 M 985.5 0.5 L 985.5 600.5" stroke-opacity="0.23529411764705882" stroke-linecap="round" stroke-linejoin="round" stroke-miterlimit="10"/><path fill="none" stroke="rgb(192,192,192)" paint-order="fill stroke markers" d=" M 0.5 5.5 L 986.5 5.5 M 0.5 5.5 L 986.5 5.5 M 0.5 80.5 L 986.5 80.5 M 0.5 156.5 L 986.5 156.5 M 0.5 231.5 L 986.5 231.5 M 0.5 306.5 L 986.5 306.5 M 0.5 381.5 L 986.5 381.5 M 0.5 457.5 L 986.5 457.5 M 0.5 532.5 L 986.5 532.5" stroke-opacity="1" stroke-linecap="round" stroke-linejoin="round" stroke-miterlimit="10"/><path fill="none" stroke="rgb(192,192,192)" paint-order="fill stroke markers" d=" M 0.5 5.5 L 986.5 5.5 M 0.5 20.5 L 986.5 20.5 M 0.5 35.5 L 986.5 35.5 M 0.5 50.5 L 986.5 50.5 M 0.5 65.5 L 986.5 65.5 M 0.5 96.5 L 986.5 96.5 M 0.5 111.5 L 986.5 111.5 M 0.5 126.5 L 986.5 126.5 M 0.5 141.5 L 986.5 141.5 M 0.5 171.5 L 986.5 171.5 M 0.5 186.5 L 986.5 186.5 M 0.5 201.5 L 986.5 201.5 M 0.5 216.5 L 986.5 216.5 M 0.5 246.5 L 986.5 246.5 M 0.5 261.5 L 986.5 261.5 M 0.5 276.5 L 986.5 276.5 M 0.5 291.5 L 986.5 291.5 M 0.5 321.5 L 986.5 321.5 M 0.5 336.5 L 986.5 336.5 M 0.5 351.5 L 986.5 351.5 M 0.5 366.5 L 986.5 366.5 M 0.5 396.5 L 986.5 396.5 M 0.5 411.5 L 986.5 411.5 M 0.5 426.5 L 986.5 426.5 M 0.5 441.5 L 986.5 441.5 M 0.5 472.5 L 986.5 472.5 M 0.5 487.5 L 986.5 487.5 M 0.5 502.5 L 986.5 502.5 M 0.5 517.5 L 986.5 517.5 M 0.5 547.5 L 986.5 547.5 M 0.5 562.5 L 986.5 562.5 M 0.5 577.5 L 986.5 577.5 M 0.5 592.5 L 986.5 592.5" stroke-opacity="0.23529411764705882" stroke-linecap="round" stroke-linejoin="round" stroke-miterlimit="10"/><path fill="rgb(211,47,47)" stroke="none" paint-order="stroke fill markers" fill-rule="evenodd" d=" M 280.3844516874999 366.76690231250063 L 385.67237481249987 172.73630112500075 L 614.2975793124999 157.69516925000073 L 721.0896156249999 299.08180887500066 L 659.4209749375 449.4931276250006 L 518.0343353124999 472.0548254375006 L 351.07777149999987 438.96433531250057 Z" fill-opacity="0.09803921568627451"/><path fill="rgb(0,0,0)" stroke="none" paint-order="stroke fill markers" d=" M 294.69269656916543 340.3988510305744 C 283.1194639106299 334.1188023011365 268.80390646857603 336.1193950950259 259.3957079092536 345.33158951769576 L 280.38445168749996 366.76690231250063 Z" fill-opacity="0.09803921568627451"/><path fill="none" stroke="rgb(0,0,0)" paint-order="fill stroke markers" d=" M 294.69269656916543 340.3988510305744 C 283.1194639106299 334.1188023011365 268.80390646857603 336.1193950950259 259.3957079092536 345.33158951769576 L 280.38445168749996 366.76690231250063 Z" stroke-opacity="0.6" stroke-linecap="round" stroke-linejoin="round" stroke-miterlimit="10" stroke-width="2.5"/><path fill="rgb(0,0,0)" stroke="none" paint-order="stroke fill markers" d=" M 415.6076609876224 170.76687440295348 C 414.93161003771905 160.49089996442274 409.03205883464415 151.2798834851949 399.9806196941652 146.36824984307464 L 385.67237481249987 172.73630112500098 Z" fill-opacity="0.09803921568627451"/><path fill="none" stroke="rgb(0,0,0)" paint-order="fill stroke markers" d=" M 415.6076609876224 170.76687440295348 C 414.93161003771905 160.49089996442274 409.03205883464415 151.2798834851949 399.9806196941652 146.36824984307464 L 385.67237481249987 172.73630112500098 Z" stroke-opacity="0.6" stroke-linecap="round" stroke-linejoin="round" stroke-miterlimit="10" stroke-width="2.5"/><path fill="rgb(0,0,0)" stroke="none" paint-order="stroke fill markers" d=" M 632.3789691312907 181.63391070023044 C 640.4406676971632 175.54475540047576 644.8960968698461 165.8068595377473 644.2328654876228 155.72574252795334 L 614.2975793125001 157.69516925000084 Z" fill-opacity="0.09803921568627451"/><path fill="none" stroke="rgb(0,0,0)" paint-order="fill stroke markers" d=" M 632.3789691312907 181.63391070023044 C 640.4406676971632 175.54475540047576 644.8960968698461 165.8068595377473 644.2328654876228 155.72574252795334 L 614.2975793125001 157.69516925000084 Z" stroke-opacity="0.6" stroke-linecap="round" stroke-linejoin="round" stroke-miterlimit="10" stroke-width="2.5"/><path fill="rgb(0,0,0)" stroke="none" paint-order="stroke fill markers" d=" M 709.7090171909365 326.83936603125244 C 719.5148157859121 330.8597434551923 730.7142642415022 329.40808889291566 739.1710054437904 323.02055032523003 L 721.0896156249999 299.08180887500043 Z" fill-opacity="0.09803921568627451"/><path fill="none" stroke="rgb(0,0,0)" paint-order="fill stroke markers" d=" M 709.7090171909365 326.83936603125244 C 719.5148157859121 330.8597434551923 730.7142642415022 329.40808889291566 739.1710054437904 323.02055032523003 L 721.0896156249999 299.08180887500043 Z" stroke-opacity="0.6" stroke-linecap="round" stroke-linejoin="round" stroke-miterlimit="10" stroke-width="2.5"/><path fill="rgb(0,0,0)" stroke="none" paint-order="stroke fill markers" d=" M 629.7957918435959 454.2205504591345 C 631.444707031615 464.5537523040548 638.3585986758255 473.2811558719325 648.0403765034362 477.2506847812529 L 659.4209749374995 449.49312762500097 Z" fill-opacity="0.09803921568627451"/><path fill="none" stroke="rgb(0,0,0)" paint-order="fill stroke markers" d=" M 629.7957918435959 454.2205504591345 C 631.444707031615 464.5537523040548 638.3585986758255 473.2811558719325 648.0403765034362 477.2506847812529 L 659.4209749374995 449.49312762500097 Z" stroke-opacity="0.6" stroke-linecap="round" stroke-linejoin="round" stroke-miterlimit="10" stroke-width="2.5"/><path fill="rgb(0,0,0)" stroke="none" paint-order="stroke fill markers" d=" M 488.60676255723723 466.22233354006124 C 487.91691655113806 469.7029202071984 487.85000977680426 473.2782889697345 488.4091522185967 476.78224827163433 L 518.0343353125004 472.05482543750077 Z" fill-opacity="0.09803921568627451"/><path fill="none" stroke="rgb(0,0,0)" paint-order="fill stroke markers" d=" M 488.60676255723723 466.22233354006124 C 487.91691655113806 469.7029202071984 487.85000977680426 473.2782889697345 488.4091522185967 476.78224827163433 L 518.0343353125004 472.05482543750077 Z" stroke-opacity="0.6" stroke-linecap="round" stroke-linejoin="round" stroke-miterlimit="10" stroke-width="2.5"/><path fill="rgb(0,0,0)" stroke="none" paint-order="stroke fill markers" d=" M 330.0890277217538 417.52902251769603 C 325.76760805672166 421.76041260637334 322.8260456018842 427.19916154491017 321.6501987447371 433.1318434150613 L 351.0777715000002 438.96433531250085 Z" fill-opacity="0.09803921568627451"/><path fill="none" stroke="rgb(0,0,0)" paint-order="fill stroke markers" d=" M 330.0890277217538 417.52902251769603 C 325.76760805672166 421.76041260637334 322.8260456018842 427.19916154491017 321.6501987447371 433.1318434150613 L 351.0777715000002 438.96433531250085 Z" stroke-opacity="0.6" stroke-linecap="round" stroke-linejoin="round" stroke-miterlimit="10" stroke-width="2.5"/><path fill="none" stroke="rgb(211,47,47)" paint-order="fill stroke markers" d=" M 280.3844516874999 366.76690231250063 L 385.67237481249987 172.73630112500075" stroke-opacity="0.6980392156862745" stroke-linecap="round" stroke-linejoin="round" stroke-miterlimit="10" stroke-width="2.5"/><path fill="none" stroke="rgb(211,47,47)" paint-order="fill stroke markers" d=" M 385.67237481249987 172.73630112500075 L 614.2975793124999 157.69516925000073" stroke-opacity="0.6980392156862745" stroke-linecap="round" stroke-linejoin="round" stroke-miterlimit="10" stroke-width="2.5"/><path fill="none" stroke="rgb(211,47,47)" paint-order="fill stroke markers" d=" M 614.2975793124999 157.69516925000073 L 721.0896156249999 299.08180887500066" stroke-opacity="0.6980392156862745" stroke-linecap="round" stroke-linejoin="round" stroke-miterlimit="10" stroke-width="2.5"/><path fill="none" stroke="rgb(211,47,47)" paint-order="fill stroke markers" d=" M 721.0896156249999 299.08180887500066 L 659.4209749375 449.4931276250006" stroke-opacity="0.6980392156862745" stroke-linecap="round" stroke-linejoin="round" stroke-miterlimit="10" stroke-width="2.5"/><path fill="none" stroke="rgb(211,47,47)" paint-order="fill stroke markers" d=" M 659.4209749375 449.4931276250006 L 518.0343353124999 472.0548254375006" stroke-opacity="0.6980392156862745" stroke-linecap="round" stroke-linejoin="round" stroke-miterlimit="10" stroke-width="2.5"/><path fill="none" stroke="rgb(211,47,47)" paint-order="fill stroke markers" d=" M 518.0343353124999 472.0548254375006 L 351.07777149999987 438.96433531250057" stroke-opacity="0.6980392156862745" stroke-linecap="round" stroke-linejoin="round" stroke-miterlimit="10" stroke-width="2.5"/><path fill="none" stroke="rgb(211,47,47)" paint-order="fill stroke markers" d=" M 351.07777149999987 438.96433531250057 L 280.3844516874999 366.76690231250063" stroke-opacity="0.6980392156862745" stroke-linecap="round" stroke-linejoin="round" stroke-miterlimit="10" stroke-width="2.5"/><path fill="none" stroke="rgb(0,0,0)" paint-order="fill stroke markers" d=" M 280.3844516874999 366.76690231250063 L 479.4052513919578 0" stroke-opacity="0.6980392156862745" stroke-linecap="round" stroke-linejoin="round" stroke-miterlimit="10" stroke-width="2.5"/><path fill="none" stroke="rgb(0,0,0)" paint-order="fill stroke markers" d=" M 385.67237481249987 172.73630112500075 L 986 133.2410626258229" stroke-opacity="0.6980392156862745" stroke-linecap="round" stroke-linejoin="round" stroke-miterlimit="10" stroke-width="2.5"/><path fill="none" stroke="rgb(0,0,0)" paint-order="fill stroke markers" d=" M 614.2975793124999 157.69516925000073 L 948.3788876449462 600" stroke-opacity="0.6980392156862745" stroke-linecap="round" stroke-linejoin="round" stroke-miterlimit="10" stroke-width="2.5"/><path fill="none" stroke="rgb(0,0,0)" paint-order="fill stroke markers" d=" M 721.0896156249999 299.08180887500066 L 597.71315726375 600" stroke-opacity="0.6980392156862745" stroke-linecap="round" stroke-linejoin="round" stroke-miterlimit="10" stroke-width="2.5"/><path fill="none" stroke="rgb(0,0,0)" paint-order="fill stroke markers" d=" M 659.4209749375 449.4931276250006 L 0 554.7198789448144" stroke-opacity="0.6980392156862745" stroke-linecap="round" stroke-linejoin="round" stroke-miterlimit="10" stroke-width="2.5"/><path fill="none" stroke="rgb(0,0,0)" paint-order="fill stroke markers" d=" M 518.0343353124999 472.0548254375006 L 0 369.3813535737618" stroke-opacity="0.6980392156862745" stroke-linecap="round" stroke-linejoin="round" stroke-miterlimit="10" stroke-width="2.5"/><path fill="none" stroke="rgb(0,0,0)" paint-order="fill stroke markers" d=" M 351.07777149999987 438.96433531250057 L -78.74147349349062 0" stroke-opacity="0.6980392156862745" stroke-linecap="round" stroke-linejoin="round" stroke-miterlimit="10" stroke-width="2.5"/><path fill="rgb(21,101,192)" stroke="none" paint-order="stroke fill markers" d=" M 285.3844516874999 366.76690231250063 C 285.3844516874999 369.5283260616546 283.14587543665385 371.76690231250063 280.3844516874999 371.76690231250063 C 277.62302793834596 371.76690231250063 275.3844516874999 369.5283260616546 275.3844516874999 366.76690231250063 C 275.3844516874999 364.0054785633467 277.62302793834596 361.76690231250063 280.3844516874999 361.76690231250063 C 283.14587543665385 361.76690231250063 285.3844516874999 364.0054785633467 285.3844516874999 366.76690231250063 Z" fill-opacity="1"/><path fill="none" stroke="rgb(0,0,0)" paint-order="fill stroke markers" d=" M 285.3844516874999 366.76690231250063 C 285.3844516874999 369.5283260616546 283.14587543665385 371.76690231250063 280.3844516874999 371.76690231250063 C 277.62302793834596 371.76690231250063 275.3844516874999 369.5283260616546 275.3844516874999 366.76690231250063 C 275.3844516874999 364.0054785633467 277.62302793834596 361.76690231250063 280.3844516874999 361.76690231250063 C 283.14587543665385 361.76690231250063 285.3844516874999 364.0054785633467 285.3844516874999 366.76690231250063 Z" stroke-opacity="1" stroke-linecap="round" stroke-linejoin="round" stroke-miterlimit="10"/><text fill="rgb(21,101,192)" stroke="none" font-family="geogebra-sans-serif, sans-serif" font-size="16px" font-style="normal" font-weight="normal" text-decoration="normal" x="284" y="357" text-anchor="start" dominant-baseline="alphabetic" fill-opacity="1">A</text><text fill="none" stroke="rgb(255,255,255)" font-family="geogebra-sans-serif, sans-serif" font-size="16px" font-style="normal" font-weight="normal" text-decoration="normal" x="284" y="357" text-anchor="start" dominant-baseline="alphabetic" stroke-opacity="1" stroke-linejoin="bevel" stroke-miterlimit="10" stroke-width="3">A</text><text fill="rgb(21,101,192)" stroke="none" font-family="geogebra-sans-serif, sans-serif" font-size="16px" font-style="normal" font-weight="normal" text-decoration="normal" x="284" y="357" text-anchor="start" dominant-baseline="alphabetic" fill-opacity="1">A</text><path fill="rgb(21,101,192)" stroke="none" paint-order="stroke fill markers" d=" M 390.67237481249987 172.73630112500075 C 390.67237481249987 175.49772487415473 388.4337985616538 177.73630112500075 385.67237481249987 177.73630112500075 C 382.9109510633459 177.73630112500075 380.67237481249987 175.49772487415473 380.67237481249987 172.73630112500075 C 380.67237481249987 169.97487737584677 382.9109510633459 167.73630112500075 385.67237481249987 167.73630112500075 C 388.4337985616538 167.73630112500075 390.67237481249987 169.97487737584677 390.67237481249987 172.73630112500075 Z" fill-opacity="1"/><path fill="none" stroke="rgb(0,0,0)" paint-order="fill stroke markers" d=" M 390.67237481249987 172.73630112500075 C 390.67237481249987 175.49772487415473 388.4337985616538 177.73630112500075 385.67237481249987 177.73630112500075 C 382.9109510633459 177.73630112500075 380.67237481249987 175.49772487415473 380.67237481249987 172.73630112500075 C 380.67237481249987 169.97487737584677 382.9109510633459 167.73630112500075 385.67237481249987 167.73630112500075 C 388.4337985616538 167.73630112500075 390.67237481249987 169.97487737584677 390.67237481249987 172.73630112500075 Z" stroke-opacity="1" stroke-linecap="round" stroke-linejoin="round" stroke-miterlimit="10"/><text fill="rgb(21,101,192)" stroke="none" font-family="geogebra-sans-serif, sans-serif" font-size="16px" font-style="normal" font-weight="normal" text-decoration="normal" x="390" y="163" text-anchor="start" dominant-baseline="alphabetic" fill-opacity="1">B</text><text fill="none" stroke="rgb(255,255,255)" font-family="geogebra-sans-serif, sans-serif" font-size="16px" font-style="normal" font-weight="normal" text-decoration="normal" x="390" y="163" text-anchor="start" dominant-baseline="alphabetic" stroke-opacity="1" stroke-linejoin="bevel" stroke-miterlimit="10" stroke-width="3">B</text><text fill="rgb(21,101,192)" stroke="none" font-family="geogebra-sans-serif, sans-serif" font-size="16px" font-style="normal" font-weight="normal" text-decoration="normal" x="390" y="163" text-anchor="start" dominant-baseline="alphabetic" fill-opacity="1">B</text><path fill="rgb(21,101,192)" stroke="none" paint-order="stroke fill markers" d=" M 619.2975793124999 157.69516925000073 C 619.2975793124999 160.4565929991547 617.0590030616539 162.69516925000073 614.2975793124999 162.69516925000073 C 611.5361555633459 162.69516925000073 609.2975793124999 160.4565929991547 609.2975793124999 157.69516925000073 C 609.2975793124999 154.93374550084675 611.5361555633459 152.69516925000073 614.2975793124999 152.69516925000073 C 617.0590030616539 152.69516925000073 619.2975793124999 154.93374550084675 619.2975793124999 157.69516925000073 Z" fill-opacity="1"/><path fill="none" stroke="rgb(0,0,0)" paint-order="fill stroke markers" d=" M 619.2975793124999 157.69516925000073 C 619.2975793124999 160.4565929991547 617.0590030616539 162.69516925000073 614.2975793124999 162.69516925000073 C 611.5361555633459 162.69516925000073 609.2975793124999 160.4565929991547 609.2975793124999 157.69516925000073 C 609.2975793124999 154.93374550084675 611.5361555633459 152.69516925000073 614.2975793124999 152.69516925000073 C 617.0590030616539 152.69516925000073 619.2975793124999 154.93374550084675 619.2975793124999 157.69516925000073 Z" stroke-opacity="1" stroke-linecap="round" stroke-linejoin="round" stroke-miterlimit="10"/><text fill="rgb(21,101,192)" stroke="none" font-family="geogebra-sans-serif, sans-serif" font-size="16px" font-style="normal" font-weight="normal" text-decoration="normal" x="618" y="148" text-anchor="start" dominant-baseline="alphabetic" fill-opacity="1">C</text><text fill="none" stroke="rgb(255,255,255)" font-family="geogebra-sans-serif, sans-serif" font-size="16px" font-style="normal" font-weight="normal" text-decoration="normal" x="618" y="148" text-anchor="start" dominant-baseline="alphabetic" stroke-opacity="1" stroke-linejoin="bevel" stroke-miterlimit="10" stroke-width="3">C</text><text fill="rgb(21,101,192)" stroke="none" font-family="geogebra-sans-serif, sans-serif" font-size="16px" font-style="normal" font-weight="normal" text-decoration="normal" x="618" y="148" text-anchor="start" dominant-baseline="alphabetic" fill-opacity="1">C</text><path fill="rgb(21,101,192)" stroke="none" paint-order="stroke fill markers" d=" M 726.0896156249999 299.08180887500066 C 726.0896156249999 301.8432326241546 723.8510393741539 304.08180887500066 721.0896156249999 304.08180887500066 C 718.3281918758458 304.08180887500066 716.0896156249999 301.8432326241546 716.0896156249999 299.08180887500066 C 716.0896156249999 296.3203851258467 718.3281918758458 294.08180887500066 721.0896156249999 294.08180887500066 C 723.8510393741539 294.08180887500066 726.0896156249999 296.3203851258467 726.0896156249999 299.08180887500066 Z" fill-opacity="1"/><path fill="none" stroke="rgb(0,0,0)" paint-order="fill stroke markers" d=" M 726.0896156249999 299.08180887500066 C 726.0896156249999 301.8432326241546 723.8510393741539 304.08180887500066 721.0896156249999 304.08180887500066 C 718.3281918758458 304.08180887500066 716.0896156249999 301.8432326241546 716.0896156249999 299.08180887500066 C 716.0896156249999 296.3203851258467 718.3281918758458 294.08180887500066 721.0896156249999 294.08180887500066 C 723.8510393741539 294.08180887500066 726.0896156249999 296.3203851258467 726.0896156249999 299.08180887500066 Z" stroke-opacity="1" stroke-linecap="round" stroke-linejoin="round" stroke-miterlimit="10"/><text fill="rgb(21,101,192)" stroke="none" font-family="geogebra-sans-serif, sans-serif" font-size="16px" font-style="normal" font-weight="normal" text-decoration="normal" x="725" y="289" text-anchor="start" dominant-baseline="alphabetic" fill-opacity="1">D</text><text fill="none" stroke="rgb(255,255,255)" font-family="geogebra-sans-serif, sans-serif" font-size="16px" font-style="normal" font-weight="normal" text-decoration="normal" x="725" y="289" text-anchor="start" dominant-baseline="alphabetic" stroke-opacity="1" stroke-linejoin="bevel" stroke-miterlimit="10" stroke-width="3">D</text><text fill="rgb(21,101,192)" stroke="none" font-family="geogebra-sans-serif, sans-serif" font-size="16px" font-style="normal" font-weight="normal" text-decoration="normal" x="725" y="289" text-anchor="start" dominant-baseline="alphabetic" fill-opacity="1">D</text><path fill="rgb(21,101,192)" stroke="none" paint-order="stroke fill markers" d=" M 664.4209749375 449.4931276250006 C 664.4209749375 452.2545513741546 662.182398686654 454.4931276250006 659.4209749375 454.4931276250006 C 656.659551188346 454.4931276250006 654.4209749375 452.2545513741546 654.4209749375 449.4931276250006 C 654.4209749375 446.7317038758467 656.659551188346 444.4931276250006 659.4209749375 444.4931276250006 C 662.182398686654 444.4931276250006 664.4209749375 446.7317038758467 664.4209749375 449.4931276250006 Z" fill-opacity="1"/><path fill="none" stroke="rgb(0,0,0)" paint-order="fill stroke markers" d=" M 664.4209749375 449.4931276250006 C 664.4209749375 452.2545513741546 662.182398686654 454.4931276250006 659.4209749375 454.4931276250006 C 656.659551188346 454.4931276250006 654.4209749375 452.2545513741546 654.4209749375 449.4931276250006 C 654.4209749375 446.7317038758467 656.659551188346 444.4931276250006 659.4209749375 444.4931276250006 C 662.182398686654 444.4931276250006 664.4209749375 446.7317038758467 664.4209749375 449.4931276250006 Z" stroke-opacity="1" stroke-linecap="round" stroke-linejoin="round" stroke-miterlimit="10"/><text fill="rgb(21,101,192)" stroke="none" font-family="geogebra-sans-serif, sans-serif" font-size="16px" font-style="normal" font-weight="normal" text-decoration="normal" x="663" y="439" text-anchor="start" dominant-baseline="alphabetic" fill-opacity="1">E</text><text fill="none" stroke="rgb(255,255,255)" font-family="geogebra-sans-serif, sans-serif" font-size="16px" font-style="normal" font-weight="normal" text-decoration="normal" x="663" y="439" text-anchor="start" dominant-baseline="alphabetic" stroke-opacity="1" stroke-linejoin="bevel" stroke-miterlimit="10" stroke-width="3">E</text><text fill="rgb(21,101,192)" stroke="none" font-family="geogebra-sans-serif, sans-serif" font-size="16px" font-style="normal" font-weight="normal" text-decoration="normal" x="663" y="439" text-anchor="start" dominant-baseline="alphabetic" fill-opacity="1">E</text><path fill="rgb(21,101,192)" stroke="none" paint-order="stroke fill markers" d=" M 523.0343353124999 472.0548254375006 C 523.0343353124999 474.81624918665455 520.7957590616539 477.0548254375006 518.0343353124999 477.0548254375006 C 515.2729115633459 477.0548254375006 513.0343353124999 474.81624918665455 513.0343353124999 472.0548254375006 C 513.0343353124999 469.29340168834665 515.2729115633459 467.0548254375006 518.0343353124999 467.0548254375006 C 520.7957590616539 467.0548254375006 523.0343353124999 469.29340168834665 523.0343353124999 472.0548254375006 Z" fill-opacity="1"/><path fill="none" stroke="rgb(0,0,0)" paint-order="fill stroke markers" d=" M 523.0343353124999 472.0548254375006 C 523.0343353124999 474.81624918665455 520.7957590616539 477.0548254375006 518.0343353124999 477.0548254375006 C 515.2729115633459 477.0548254375006 513.0343353124999 474.81624918665455 513.0343353124999 472.0548254375006 C 513.0343353124999 469.29340168834665 515.2729115633459 467.0548254375006 518.0343353124999 467.0548254375006 C 520.7957590616539 467.0548254375006 523.0343353124999 469.29340168834665 523.0343353124999 472.0548254375006 Z" stroke-opacity="1" stroke-linecap="round" stroke-linejoin="round" stroke-miterlimit="10"/><text fill="rgb(21,101,192)" stroke="none" font-family="geogebra-sans-serif, sans-serif" font-size="16px" font-style="normal" font-weight="normal" text-decoration="normal" x="522" y="462" text-anchor="start" dominant-baseline="alphabetic" fill-opacity="1">F</text><text fill="none" stroke="rgb(255,255,255)" font-family="geogebra-sans-serif, sans-serif" font-size="16px" font-style="normal" font-weight="normal" text-decoration="normal" x="522" y="462" text-anchor="start" dominant-baseline="alphabetic" stroke-opacity="1" stroke-linejoin="bevel" stroke-miterlimit="10" stroke-width="3">F</text><text fill="rgb(21,101,192)" stroke="none" font-family="geogebra-sans-serif, sans-serif" font-size="16px" font-style="normal" font-weight="normal" text-decoration="normal" x="522" y="462" text-anchor="start" dominant-baseline="alphabetic" fill-opacity="1">F</text><path fill="rgb(21,101,192)" stroke="none" paint-order="stroke fill markers" d=" M 356.07777149999987 438.96433531250057 C 356.07777149999987 441.7257590616545 353.8391952491538 443.96433531250057 351.07777149999987 443.96433531250057 C 348.3163477508459 443.96433531250057 346.07777149999987 441.7257590616545 346.07777149999987 438.96433531250057 C 346.07777149999987 436.2029115633466 348.3163477508459 433.96433531250057 351.07777149999987 433.96433531250057 C 353.8391952491538 433.96433531250057 356.07777149999987 436.2029115633466 356.07777149999987 438.96433531250057 Z" fill-opacity="1"/><path fill="none" stroke="rgb(0,0,0)" paint-order="fill stroke markers" d=" M 356.07777149999987 438.96433531250057 C 356.07777149999987 441.7257590616545 353.8391952491538 443.96433531250057 351.07777149999987 443.96433531250057 C 348.3163477508459 443.96433531250057 346.07777149999987 441.7257590616545 346.07777149999987 438.96433531250057 C 346.07777149999987 436.2029115633466 348.3163477508459 433.96433531250057 351.07777149999987 433.96433531250057 C 353.8391952491538 433.96433531250057 356.07777149999987 436.2029115633466 356.07777149999987 438.96433531250057 Z" stroke-opacity="1" stroke-linecap="round" stroke-linejoin="round" stroke-miterlimit="10"/><text fill="rgb(21,101,192)" stroke="none" font-family="geogebra-sans-serif, sans-serif" font-size="16px" font-style="normal" font-weight="normal" text-decoration="normal" x="355" y="429" text-anchor="start" dominant-baseline="alphabetic" fill-opacity="1">G</text><text fill="none" stroke="rgb(255,255,255)" font-family="geogebra-sans-serif, sans-serif" font-size="16px" font-style="normal" font-weight="normal" text-decoration="normal" x="355" y="429" text-anchor="start" dominant-baseline="alphabetic" stroke-opacity="1" stroke-linejoin="bevel" stroke-miterlimit="10" stroke-width="3">G</text><text fill="rgb(21,101,192)" stroke="none" font-family="geogebra-sans-serif, sans-serif" font-size="16px" font-style="normal" font-weight="normal" text-decoration="normal" x="355" y="429" text-anchor="start" dominant-baseline="alphabetic" fill-opacity="1">G</text></g></g></svg>