<svg version="1.1" xmlns="http://www.w3.org/2000/svg" xmlns:xlink="http://www.w3.org/1999/xlink" width="986" height="600"><defs><clipPath id="TExBOgEUgWnE"><path fill="none" stroke="none" d=" M 0 0 L 986 0 L 986 600 L 0 600 L 0 0 Z"/></clipPath></defs><g transform="scale(1,1)" clip-path="url(#TExBOgEUgWnE)"><g><rect fill="rgb(255,255,255)" stroke="none" x="0" y="0" width="986" height="600" fill-opacity="1"/><path fill="none" stroke="rgb(0,0,0)" paint-order="fill stroke markers" d=" M 89.06403171084457 568.1283210038054 L 986 515.2061289720579" stroke-opacity="0.6980392156862745" stroke-linecap="round" stroke-linejoin="round" stroke-miterlimit="10" stroke-width="2.5"/><path fill="none" stroke="rgb(0,0,0)" paint-order="fill stroke markers" d=" M 89.06403171084457 568.1283210038054 L 986 318.49133223599017" stroke-opacity="0.6980392156862745" stroke-linecap="round" stroke-linejoin="round" stroke-miterlimit="10" stroke-width="2.5"/><path fill="none" stroke="rgb(0,0,0)" paint-order="fill stroke markers" d=" M 89.06403171084457 568.1283210038054 L 986 -192.46715551868135" stroke-opacity="0.6980392156862745" stroke-linecap="round" stroke-linejoin="round" stroke-miterlimit="10" stroke-width="2.5"/><path fill="none" stroke="rgb(0,0,0)" paint-order="fill stroke markers" d=" M 89.06403171084457 568.1283210038054 L 447.0856256233159 0" stroke-opacity="0.6980392156862745" stroke-linecap="round" stroke-linejoin="round" stroke-miterlimit="10" stroke-width="2.5"/><path fill="none" stroke="rgb(0,0,0)" paint-order="fill stroke markers" d=" M 89.06403171084457 568.1283210038054 L 12.189444860795419 0" stroke-opacity="0.6980392156862745" stroke-linecap="round" stroke-linejoin="round" stroke-miterlimit="10" stroke-width="2.5"/><path fill="none" stroke="rgb(211,47,47)" paint-order="fill stroke markers" d=" M 89.06403171084457 563.1283210038054 L 84.06403171084457 568.1283210038054 L 89.06403171084457 573.1283210038054 L 94.06403171084457 568.1283210038054 Z" stroke-opacity="1" stroke-linecap="square" stroke-miterlimit="10" stroke-width="2.5"/><path fill="rgb(211,47,47)" stroke="none" paint-order="stroke fill markers" fill-rule="evenodd" d=" M 89.06403171084457 563.1283210038054 L 84.06403171084457 568.1283210038054 L 89.06403171084457 573.1283210038054 L 94.06403171084457 568.1283210038054 Z" fill-opacity="1"/><text fill="rgb(211,47,47)" stroke="none" font-family="geogebra-sans-serif, sans-serif" font-size="16px" font-style="normal" font-weight="normal" text-decoration="normal" x="67" y="592" text-anchor="start" dominant-baseline="alphabetic" fill-opacity="1">0</text><text fill="none" stroke="rgb(255,255,255)" font-family="geogebra-sans-serif, sans-serif" font-size="16px" font-style="normal" font-weight="normal" text-decoration="normal" x="67" y="592" text-anchor="start" dominant-baseline="alphabetic" stroke-opacity="1" stroke-linejoin="bevel" stroke-miterlimit="10" stroke-width="3">0</text><text fill="rgb(211,47,47)" stroke="none" font-family="geogebra-sans-serif, sans-serif" font-size="16px" font-style="normal" font-weight="normal" text-decoration="normal" x="67" y="592" text-anchor="start" dominant-baseline="alphabetic" fill-opacity="1">0</text><path fill="rgb(21,101,192)" stroke="none" paint-order="stroke fill markers" d=" M 58.35562545948321 304.2315285712259 C 58.35562545948321 306.99295232037986 56.11704920863717 309.2315285712259 53.35562545948321 309.2315285712259 C 50.59420171032924 309.2315285712259 48.35562545948321 306.99295232037986 48.35562545948321 304.2315285712259 C 48.35562545948321 301.47010482207196 50.59420171032924 299.2315285712259 53.35562545948321 299.2315285712259 C 56.11704920863717 299.2315285712259 58.35562545948321 301.47010482207196 58.35562545948321 304.2315285712259 Z" fill-opacity="1"/><path fill="none" stroke="rgb(0,0,0)" paint-order="fill stroke markers" d=" M 58.35562545948321 304.2315285712259 C 58.35562545948321 306.99295232037986 56.11704920863717 309.2315285712259 53.35562545948321 309.2315285712259 C 50.59420171032924 309.2315285712259 48.35562545948321 306.99295232037986 48.35562545948321 304.2315285712259 C 48.35562545948321 301.47010482207196 50.59420171032924 299.2315285712259 53.35562545948321 299.2315285712259 C 56.11704920863717 299.2315285712259 58.35562545948321 301.47010482207196 58.35562545948321 304.2315285712259 Z" stroke-opacity="1" stroke-linecap="round" stroke-linejoin="round" stroke-miterlimit="10"/><text fill="rgb(21,101,192)" stroke="none" font-family="geogebra-sans-serif, sans-serif" font-size="16px" font-style="normal" font-weight="normal" text-decoration="normal" x="66" y="308" text-anchor="start" dominant-baseline="alphabetic" fill-opacity="1">5</text><text fill="none" stroke="rgb(255,255,255)" font-family="geogebra-sans-serif, sans-serif" font-size="16px" font-style="normal" font-weight="normal" text-decoration="normal" x="66" y="308" text-anchor="start" dominant-baseline="alphabetic" stroke-opacity="1" stroke-linejoin="bevel" stroke-miterlimit="10" stroke-width="3">5</text><text fill="rgb(21,101,192)" stroke="none" font-family="geogebra-sans-serif, sans-serif" font-size="16px" font-style="normal" font-weight="normal" text-decoration="normal" x="66" y="308" text-anchor="start" dominant-baseline="alphabetic" fill-opacity="1">5</text><path fill="rgb(21,101,192)" stroke="none" paint-order="stroke fill markers" d=" M 326.1686723446935 199.81193444322696 C 326.1686723446935 202.57335819238094 323.93009609384745 204.81193444322696 321.1686723446935 204.81193444322696 C 318.40724859553956 204.81193444322696 316.1686723446935 202.57335819238094 316.1686723446935 199.81193444322696 C 316.1686723446935 197.05051069407298 318.40724859553956 194.81193444322696 321.1686723446935 194.81193444322696 C 323.93009609384745 194.81193444322696 326.1686723446935 197.05051069407298 326.1686723446935 199.81193444322696 Z" fill-opacity="1"/><path fill="none" stroke="rgb(0,0,0)" paint-order="fill stroke markers" d=" M 326.1686723446935 199.81193444322696 C 326.1686723446935 202.57335819238094 323.93009609384745 204.81193444322696 321.1686723446935 204.81193444322696 C 318.40724859553956 204.81193444322696 316.1686723446935 202.57335819238094 316.1686723446935 199.81193444322696 C 316.1686723446935 197.05051069407298 318.40724859553956 194.81193444322696 321.1686723446935 194.81193444322696 C 323.93009609384745 194.81193444322696 326.1686723446935 197.05051069407298 326.1686723446935 199.81193444322696 Z" stroke-opacity="1" stroke-linecap="round" stroke-linejoin="round" stroke-miterlimit="10"/><text fill="rgb(21,101,192)" stroke="none" font-family="geogebra-sans-serif, sans-serif" font-size="16px" font-style="normal" font-weight="normal" text-decoration="normal" x="336" y="204" text-anchor="start" dominant-baseline="alphabetic" fill-opacity="1">4</text><text fill="none" stroke="rgb(255,255,255)" font-family="geogebra-sans-serif, sans-serif" font-size="16px" font-style="normal" font-weight="normal" text-decoration="normal" x="336" y="204" text-anchor="start" dominant-baseline="alphabetic" stroke-opacity="1" stroke-linejoin="bevel" stroke-miterlimit="10" stroke-width="3">4</text><text fill="rgb(21,101,192)" stroke="none" font-family="geogebra-sans-serif, sans-serif" font-size="16px" font-style="normal" font-weight="normal" text-decoration="normal" x="336" y="204" text-anchor="start" dominant-baseline="alphabetic" fill-opacity="1">4</text><path fill="rgb(21,101,192)" stroke="none" paint-order="stroke fill markers" d=" M 680.7021344117812 404.85404654911594 C 680.7021344117812 407.6154702982699 678.4635581609352 409.85404654911594 675.7021344117812 409.85404654911594 C 672.9407106626272 409.85404654911594 670.7021344117812 407.6154702982699 670.7021344117812 404.85404654911594 C 670.7021344117812 402.092622799962 672.9407106626272 399.85404654911594 675.7021344117812 399.85404654911594 C 678.4635581609352 399.85404654911594 680.7021344117812 402.092622799962 680.7021344117812 404.85404654911594 Z" fill-opacity="1"/><path fill="none" stroke="rgb(0,0,0)" paint-order="fill stroke markers" d=" M 680.7021344117812 404.85404654911594 C 680.7021344117812 407.6154702982699 678.4635581609352 409.85404654911594 675.7021344117812 409.85404654911594 C 672.9407106626272 409.85404654911594 670.7021344117812 407.6154702982699 670.7021344117812 404.85404654911594 C 670.7021344117812 402.092622799962 672.9407106626272 399.85404654911594 675.7021344117812 399.85404654911594 C 678.4635581609352 399.85404654911594 680.7021344117812 402.092622799962 680.7021344117812 404.85404654911594 Z" stroke-opacity="1" stroke-linecap="round" stroke-linejoin="round" stroke-miterlimit="10"/><text fill="rgb(21,101,192)" stroke="none" font-family="geogebra-sans-serif, sans-serif" font-size="16px" font-style="normal" font-weight="normal" text-decoration="normal" x="692" y="423" text-anchor="start" dominant-baseline="alphabetic" fill-opacity="1">2</text><text fill="none" stroke="rgb(255,255,255)" font-family="geogebra-sans-serif, sans-serif" font-size="16px" font-style="normal" font-weight="normal" text-decoration="normal" x="692" y="423" text-anchor="start" dominant-baseline="alphabetic" stroke-opacity="1" stroke-linejoin="bevel" stroke-miterlimit="10" stroke-width="3">2</text><text fill="rgb(21,101,192)" stroke="none" font-family="geogebra-sans-serif, sans-serif" font-size="16px" font-style="normal" font-weight="normal" text-decoration="normal" x="692" y="423" text-anchor="start" dominant-baseline="alphabetic" fill-opacity="1">2</text><path fill="rgb(21,101,192)" stroke="none" paint-order="stroke fill markers" d=" M 295.5614669863837 397.2598942488978 C 295.5614669863837 400.02131799805176 293.32289073553767 402.2598942488978 290.5614669863837 402.2598942488978 C 287.8000432372298 402.2598942488978 285.5614669863837 400.02131799805176 285.5614669863837 397.2598942488978 C 285.5614669863837 394.49847049974386 287.8000432372298 392.2598942488978 290.5614669863837 392.2598942488978 C 293.32289073553767 392.2598942488978 295.5614669863837 394.49847049974386 295.5614669863837 397.2598942488978 Z" fill-opacity="1"/><path fill="none" stroke="rgb(0,0,0)" paint-order="fill stroke markers" d=" M 295.5614669863837 397.2598942488978 C 295.5614669863837 400.02131799805176 293.32289073553767 402.2598942488978 290.5614669863837 402.2598942488978 C 287.8000432372298 402.2598942488978 285.5614669863837 400.02131799805176 285.5614669863837 397.2598942488978 C 285.5614669863837 394.49847049974386 287.8000432372298 392.2598942488978 290.5614669863837 392.2598942488978 C 293.32289073553767 392.2598942488978 295.5614669863837 394.49847049974386 295.5614669863837 397.2598942488978 Z" stroke-opacity="1" stroke-linecap="round" stroke-linejoin="round" stroke-miterlimit="10"/><text fill="rgb(21,101,192)" stroke="none" font-family="geogebra-sans-serif, sans-serif" font-size="16px" font-style="normal" font-weight="normal" text-decoration="normal" x="308" y="402" text-anchor="start" dominant-baseline="alphabetic" fill-opacity="1">3</text><text fill="none" stroke="rgb(255,255,255)" font-family="geogebra-sans-serif, sans-serif" font-size="16px" font-style="normal" font-weight="normal" text-decoration="normal" x="308" y="402" text-anchor="start" dominant-baseline="alphabetic" stroke-opacity="1" stroke-linejoin="bevel" stroke-miterlimit="10" stroke-width="3">3</text><text fill="rgb(21,101,192)" stroke="none" font-family="geogebra-sans-serif, sans-serif" font-size="16px" font-style="normal" font-weight="normal" text-decoration="normal" x="308" y="402" text-anchor="start" dominant-baseline="alphabetic" fill-opacity="1">3</text><path fill="rgb(21,101,192)" stroke="none" paint-order="stroke fill markers" d=" M 512.3625049410778 543.4473260280965 C 512.3625049410778 546.2087497772505 510.1239286902317 548.4473260280965 507.36250494107776 548.4473260280965 C 504.6010811919238 548.4473260280965 502.36250494107776 546.2087497772505 502.36250494107776 543.4473260280965 C 502.36250494107776 540.6859022789425 504.6010811919238 538.4473260280965 507.36250494107776 538.4473260280965 C 510.1239286902317 538.4473260280965 512.3625049410778 540.6859022789425 512.3625049410778 543.4473260280965 Z" fill-opacity="1"/><path fill="none" stroke="rgb(0,0,0)" paint-order="fill stroke markers" d=" M 512.3625049410778 543.4473260280965 C 512.3625049410778 546.2087497772505 510.1239286902317 548.4473260280965 507.36250494107776 548.4473260280965 C 504.6010811919238 548.4473260280965 502.36250494107776 546.2087497772505 502.36250494107776 543.4473260280965 C 502.36250494107776 540.6859022789425 504.6010811919238 538.4473260280965 507.36250494107776 538.4473260280965 C 510.1239286902317 538.4473260280965 512.3625049410778 540.6859022789425 512.3625049410778 543.4473260280965 Z" stroke-opacity="1" stroke-linecap="round" stroke-linejoin="round" stroke-miterlimit="10"/><text fill="rgb(21,101,192)" stroke="none" font-family="geogebra-sans-serif, sans-serif" font-size="16px" font-style="normal" font-weight="normal" text-decoration="normal" x="511" y="533" text-anchor="start" dominant-baseline="alphabetic" fill-opacity="1">1</text><text fill="none" stroke="rgb(255,255,255)" font-family="geogebra-sans-serif, sans-serif" font-size="16px" font-style="normal" font-weight="normal" text-decoration="normal" x="511" y="533" text-anchor="start" dominant-baseline="alphabetic" stroke-opacity="1" stroke-linejoin="bevel" stroke-miterlimit="10" stroke-width="3">1</text><text fill="rgb(21,101,192)" stroke="none" font-family="geogebra-sans-serif, sans-serif" font-size="16px" font-style="normal" font-weight="normal" text-decoration="normal" x="511" y="533" text-anchor="start" dominant-baseline="alphabetic" fill-opacity="1">1</text></g></g></svg>