<svg version="1.1" xmlns="http://www.w3.org/2000/svg" xmlns:xlink="http://www.w3.org/1999/xlink" width="986" height="600"><defs><clipPath id="FJGoJNbETEhh"><path fill="none" stroke="none" d=" M 0 0 L 986 0 L 986 600 L 0 600 L 0 0 Z"/></clipPath></defs><g transform="scale(1,1)" clip-path="url(#FJGoJNbETEhh)"><g><rect fill="rgb(255,255,255)" stroke="none" x="0" y="0" width="986" height="600" fill-opacity="1"/><path fill="none" stroke="rgb(192,192,192)" paint-order="fill stroke markers" d=" M 18.5 0.5 L 18.5 600.5 M 18.5 0.5 L 18.5 600.5 M 191.5 0.5 L 191.5 600.5 M 278.5 0.5 L 278.5 600.5 M 365.5 0.5 L 365.5 600.5 M 451.5 0.5 L 451.5 600.5 M 538.5 0.5 L 538.5 600.5 M 625.5 0.5 L 625.5 600.5 M 711.5 0.5 L 711.5 600.5 M 798.5 0.5 L 798.5 600.5 M 885.5 0.5 L 885.5 600.5 M 972.5 0.5 L 972.5 600.5" stroke-opacity="1" stroke-linecap="round" stroke-linejoin="round" stroke-miterlimit="10"/><path fill="none" stroke="rgb(192,192,192)" paint-order="fill stroke markers" d=" M 0.5 0.5 L 0.5 600.5 M 35.5 0.5 L 35.5 600.5 M 52.5 0.5 L 52.5 600.5 M 70.5 0.5 L 70.5 600.5 M 87.5 0.5 L 87.5 600.5 M 122.5 0.5 L 122.5 600.5 M 139.5 0.5 L 139.5 600.5 M 156.5 0.5 L 156.5 600.5 M 174.5 0.5 L 174.5 600.5 M 209.5 0.5 L 209.5 600.5 M 226.5 0.5 L 226.5 600.5 M 243.5 0.5 L 243.5 600.5 M 261.5 0.5 L 261.5 600.5 M 295.5 0.5 L 295.5 600.5 M 313.5 0.5 L 313.5 600.5 M 330.5 0.5 L 330.5 600.5 M 347.5 0.5 L 347.5 600.5 M 382.5 0.5 L 382.5 600.5 M 399.5 0.5 L 399.5 600.5 M 417.5 0.5 L 417.5 600.5 M 434.5 0.5 L 434.5 600.5 M 469.5 0.5 L 469.5 600.5 M 486.5 0.5 L 486.5 600.5 M 503.5 0.5 L 503.5 600.5 M 521.5 0.5 L 521.5 600.5 M 555.5 0.5 L 555.5 600.5 M 573.5 0.5 L 573.5 600.5 M 590.5 0.5 L 590.5 600.5 M 607.5 0.5 L 607.5 600.5 M 642.5 0.5 L 642.5 600.5 M 659.5 0.5 L 659.5 600.5 M 677.5 0.5 L 677.5 600.5 M 694.5 0.5 L 694.5 600.5 M 729.5 0.5 L 729.5 600.5 M 746.5 0.5 L 746.5 600.5 M 764.5 0.5 L 764.5 600.5 M 781.5 0.5 L 781.5 600.5 M 816.5 0.5 L 816.5 600.5 M 833.5 0.5 L 833.5 600.5 M 850.5 0.5 L 850.5 600.5 M 868.5 0.5 L 868.5 600.5 M 902.5 0.5 L 902.5 600.5 M 920.5 0.5 L 920.5 600.5 M 937.5 0.5 L 937.5 600.5 M 954.5 0.5 L 954.5 600.5" stroke-opacity="0.23529411764705882" stroke-linecap="round" stroke-linejoin="round" stroke-miterlimit="10"/><path fill="none" stroke="rgb(192,192,192)" paint-order="fill stroke markers" d=" M 0.5 36.5 L 986.5 36.5 M 0.5 36.5 L 986.5 36.5 M 0.5 123.5 L 986.5 123.5 M 0.5 210.5 L 986.5 210.5 M 0.5 296.5 L 986.5 296.5 M 0.5 383.5 L 986.5 383.5 M 0.5 470.5 L 986.5 470.5" stroke-opacity="1" stroke-linecap="round" stroke-linejoin="round" stroke-miterlimit="10"/><path fill="none" stroke="rgb(192,192,192)" paint-order="fill stroke markers" d=" M 0.5 2.5 L 986.5 2.5 M 0.5 2.5 L 986.5 2.5 M 0.5 19.5 L 986.5 19.5 M 0.5 54.5 L 986.5 54.5 M 0.5 71.5 L 986.5 71.5 M 0.5 88.5 L 986.5 88.5 M 0.5 106.5 L 986.5 106.5 M 0.5 140.5 L 986.5 140.5 M 0.5 158.5 L 986.5 158.5 M 0.5 175.5 L 986.5 175.5 M 0.5 192.5 L 986.5 192.5 M 0.5 227.5 L 986.5 227.5 M 0.5 244.5 L 986.5 244.5 M 0.5 262.5 L 986.5 262.5 M 0.5 279.5 L 986.5 279.5 M 0.5 314.5 L 986.5 314.5 M 0.5 331.5 L 986.5 331.5 M 0.5 348.5 L 986.5 348.5 M 0.5 366.5 L 986.5 366.5 M 0.5 400.5 L 986.5 400.5 M 0.5 418.5 L 986.5 418.5 M 0.5 435.5 L 986.5 435.5 M 0.5 453.5 L 986.5 453.5 M 0.5 487.5 L 986.5 487.5 M 0.5 505.5 L 986.5 505.5 M 0.5 522.5 L 986.5 522.5 M 0.5 539.5 L 986.5 539.5 M 0.5 574.5 L 986.5 574.5 M 0.5 591.5 L 986.5 591.5" stroke-opacity="0.23529411764705882" stroke-linecap="round" stroke-linejoin="round" stroke-miterlimit="10"/><path fill="none" stroke="rgb(0,0,0)" paint-order="fill stroke markers" d=" M 104.5 2.5 L 104.5 600.5" stroke-opacity="1" stroke-miterlimit="10"/><path fill="none" stroke="rgb(0,0,0)" paint-order="fill stroke markers" d=" M 104.5 1.5 L 100.5 5.5" stroke-opacity="1" stroke-miterlimit="10"/><path fill="none" stroke="rgb(0,0,0)" paint-order="fill stroke markers" d=" M 104.5 1.5 L 108.5 5.5" stroke-opacity="1" stroke-miterlimit="10"/><path fill="none" stroke="rgb(0,0,0)" paint-order="fill stroke markers" d=" M 0.5 557.5 L 984.5 557.5" stroke-opacity="1" stroke-miterlimit="10"/><path fill="none" stroke="rgb(0,0,0)" paint-order="fill stroke markers" d=" M 985.5 557.5 L 981.5 553.5" stroke-opacity="1" stroke-miterlimit="10"/><path fill="none" stroke="rgb(0,0,0)" paint-order="fill stroke markers" d=" M 985.5 557.5 L 981.5 561.5" stroke-opacity="1" stroke-miterlimit="10"/><text fill="rgb(0,0,0)" stroke="none" font-family="geogebra-sans-serif, sans-serif" font-size="12px" font-style="normal" font-weight="normal" text-decoration="normal" x="13" y="573" text-anchor="start" dominant-baseline="alphabetic" fill-opacity="1">–1</text><text fill="none" stroke="rgb(255,255,255)" font-family="geogebra-sans-serif, sans-serif" font-size="12px" font-style="normal" font-weight="normal" text-decoration="normal" x="13" y="573" text-anchor="start" dominant-baseline="alphabetic" stroke-opacity="1" stroke-linejoin="bevel" stroke-miterlimit="10" stroke-width="3">–1</text><text fill="rgb(0,0,0)" stroke="none" font-family="geogebra-sans-serif, sans-serif" font-size="12px" font-style="normal" font-weight="normal" text-decoration="normal" x="13" y="573" text-anchor="start" dominant-baseline="alphabetic" fill-opacity="1">–1</text><text fill="rgb(0,0,0)" stroke="none" font-family="geogebra-sans-serif, sans-serif" font-size="12px" font-style="normal" font-weight="normal" text-decoration="normal" x="189" y="573" text-anchor="start" dominant-baseline="alphabetic" fill-opacity="1">1</text><text fill="none" stroke="rgb(255,255,255)" font-family="geogebra-sans-serif, sans-serif" font-size="12px" font-style="normal" font-weight="normal" text-decoration="normal" x="189" y="573" text-anchor="start" dominant-baseline="alphabetic" stroke-opacity="1" stroke-linejoin="bevel" stroke-miterlimit="10" stroke-width="3">1</text><text fill="rgb(0,0,0)" stroke="none" font-family="geogebra-sans-serif, sans-serif" font-size="12px" font-style="normal" font-weight="normal" text-decoration="normal" x="189" y="573" text-anchor="start" dominant-baseline="alphabetic" fill-opacity="1">1</text><text fill="rgb(0,0,0)" stroke="none" font-family="geogebra-sans-serif, sans-serif" font-size="12px" font-style="normal" font-weight="normal" text-decoration="normal" x="276" y="573" text-anchor="start" dominant-baseline="alphabetic" fill-opacity="1">2</text><text fill="none" stroke="rgb(255,255,255)" font-family="geogebra-sans-serif, sans-serif" font-size="12px" font-style="normal" font-weight="normal" text-decoration="normal" x="276" y="573" text-anchor="start" dominant-baseline="alphabetic" stroke-opacity="1" stroke-linejoin="bevel" stroke-miterlimit="10" stroke-width="3">2</text><text fill="rgb(0,0,0)" stroke="none" font-family="geogebra-sans-serif, sans-serif" font-size="12px" font-style="normal" font-weight="normal" text-decoration="normal" x="276" y="573" text-anchor="start" dominant-baseline="alphabetic" fill-opacity="1">2</text><text fill="rgb(0,0,0)" stroke="none" font-family="geogebra-sans-serif, sans-serif" font-size="12px" font-style="normal" font-weight="normal" text-decoration="normal" x="363" y="573" text-anchor="start" dominant-baseline="alphabetic" fill-opacity="1">3</text><text fill="none" stroke="rgb(255,255,255)" font-family="geogebra-sans-serif, sans-serif" font-size="12px" font-style="normal" font-weight="normal" text-decoration="normal" x="363" y="573" text-anchor="start" dominant-baseline="alphabetic" stroke-opacity="1" stroke-linejoin="bevel" stroke-miterlimit="10" stroke-width="3">3</text><text fill="rgb(0,0,0)" stroke="none" font-family="geogebra-sans-serif, sans-serif" font-size="12px" font-style="normal" font-weight="normal" text-decoration="normal" x="363" y="573" text-anchor="start" dominant-baseline="alphabetic" fill-opacity="1">3</text><text fill="rgb(0,0,0)" stroke="none" font-family="geogebra-sans-serif, sans-serif" font-size="12px" font-style="normal" font-weight="normal" text-decoration="normal" x="449" y="573" text-anchor="start" dominant-baseline="alphabetic" fill-opacity="1">4</text><text fill="none" stroke="rgb(255,255,255)" font-family="geogebra-sans-serif, sans-serif" font-size="12px" font-style="normal" font-weight="normal" text-decoration="normal" x="449" y="573" text-anchor="start" dominant-baseline="alphabetic" stroke-opacity="1" stroke-linejoin="bevel" stroke-miterlimit="10" stroke-width="3">4</text><text fill="rgb(0,0,0)" stroke="none" font-family="geogebra-sans-serif, sans-serif" font-size="12px" font-style="normal" font-weight="normal" text-decoration="normal" x="449" y="573" text-anchor="start" dominant-baseline="alphabetic" fill-opacity="1">4</text><text fill="rgb(0,0,0)" stroke="none" font-family="geogebra-sans-serif, sans-serif" font-size="12px" font-style="normal" font-weight="normal" text-decoration="normal" x="536" y="573" text-anchor="start" dominant-baseline="alphabetic" fill-opacity="1">5</text><text fill="none" stroke="rgb(255,255,255)" font-family="geogebra-sans-serif, sans-serif" font-size="12px" font-style="normal" font-weight="normal" text-decoration="normal" x="536" y="573" text-anchor="start" dominant-baseline="alphabetic" stroke-opacity="1" stroke-linejoin="bevel" stroke-miterlimit="10" stroke-width="3">5</text><text fill="rgb(0,0,0)" stroke="none" font-family="geogebra-sans-serif, sans-serif" font-size="12px" font-style="normal" font-weight="normal" text-decoration="normal" x="536" y="573" text-anchor="start" dominant-baseline="alphabetic" fill-opacity="1">5</text><text fill="rgb(0,0,0)" stroke="none" font-family="geogebra-sans-serif, sans-serif" font-size="12px" font-style="normal" font-weight="normal" text-decoration="normal" x="623" y="573" text-anchor="start" dominant-baseline="alphabetic" fill-opacity="1">6</text><text fill="none" stroke="rgb(255,255,255)" font-family="geogebra-sans-serif, sans-serif" font-size="12px" font-style="normal" font-weight="normal" text-decoration="normal" x="623" y="573" text-anchor="start" dominant-baseline="alphabetic" stroke-opacity="1" stroke-linejoin="bevel" stroke-miterlimit="10" stroke-width="3">6</text><text fill="rgb(0,0,0)" stroke="none" font-family="geogebra-sans-serif, sans-serif" font-size="12px" font-style="normal" font-weight="normal" text-decoration="normal" x="623" y="573" text-anchor="start" dominant-baseline="alphabetic" fill-opacity="1">6</text><text fill="rgb(0,0,0)" stroke="none" font-family="geogebra-sans-serif, sans-serif" font-size="12px" font-style="normal" font-weight="normal" text-decoration="normal" x="709" y="573" text-anchor="start" dominant-baseline="alphabetic" fill-opacity="1">7</text><text fill="none" stroke="rgb(255,255,255)" font-family="geogebra-sans-serif, sans-serif" font-size="12px" font-style="normal" font-weight="normal" text-decoration="normal" x="709" y="573" text-anchor="start" dominant-baseline="alphabetic" stroke-opacity="1" stroke-linejoin="bevel" stroke-miterlimit="10" stroke-width="3">7</text><text fill="rgb(0,0,0)" stroke="none" font-family="geogebra-sans-serif, sans-serif" font-size="12px" font-style="normal" font-weight="normal" text-decoration="normal" x="709" y="573" text-anchor="start" dominant-baseline="alphabetic" fill-opacity="1">7</text><text fill="rgb(0,0,0)" stroke="none" font-family="geogebra-sans-serif, sans-serif" font-size="12px" font-style="normal" font-weight="normal" text-decoration="normal" x="796" y="573" text-anchor="start" dominant-baseline="alphabetic" fill-opacity="1">8</text><text fill="none" stroke="rgb(255,255,255)" font-family="geogebra-sans-serif, sans-serif" font-size="12px" font-style="normal" font-weight="normal" text-decoration="normal" x="796" y="573" text-anchor="start" dominant-baseline="alphabetic" stroke-opacity="1" stroke-linejoin="bevel" stroke-miterlimit="10" stroke-width="3">8</text><text fill="rgb(0,0,0)" stroke="none" font-family="geogebra-sans-serif, sans-serif" font-size="12px" font-style="normal" font-weight="normal" text-decoration="normal" x="796" y="573" text-anchor="start" dominant-baseline="alphabetic" fill-opacity="1">8</text><text fill="rgb(0,0,0)" stroke="none" font-family="geogebra-sans-serif, sans-serif" font-size="12px" font-style="normal" font-weight="normal" text-decoration="normal" x="883" y="573" text-anchor="start" dominant-baseline="alphabetic" fill-opacity="1">9</text><text fill="none" stroke="rgb(255,255,255)" font-family="geogebra-sans-serif, sans-serif" font-size="12px" font-style="normal" font-weight="normal" text-decoration="normal" x="883" y="573" text-anchor="start" dominant-baseline="alphabetic" stroke-opacity="1" stroke-linejoin="bevel" stroke-miterlimit="10" stroke-width="3">9</text><text fill="rgb(0,0,0)" stroke="none" font-family="geogebra-sans-serif, sans-serif" font-size="12px" font-style="normal" font-weight="normal" text-decoration="normal" x="883" y="573" text-anchor="start" dominant-baseline="alphabetic" fill-opacity="1">9</text><text fill="rgb(0,0,0)" stroke="none" font-family="geogebra-sans-serif, sans-serif" font-size="12px" font-style="normal" font-weight="normal" text-decoration="normal" x="967" y="573" text-anchor="start" dominant-baseline="alphabetic" fill-opacity="1">10</text><text fill="none" stroke="rgb(255,255,255)" font-family="geogebra-sans-serif, sans-serif" font-size="12px" font-style="normal" font-weight="normal" text-decoration="normal" x="967" y="573" text-anchor="start" dominant-baseline="alphabetic" stroke-opacity="1" stroke-linejoin="bevel" stroke-miterlimit="10" stroke-width="3">10</text><text fill="rgb(0,0,0)" stroke="none" font-family="geogebra-sans-serif, sans-serif" font-size="12px" font-style="normal" font-weight="normal" text-decoration="normal" x="967" y="573" text-anchor="start" dominant-baseline="alphabetic" fill-opacity="1">10</text><text fill="rgb(0,0,0)" stroke="none" font-family="geogebra-sans-serif, sans-serif" font-size="12px" font-style="normal" font-weight="normal" text-decoration="normal" x="90" y="475" text-anchor="start" dominant-baseline="alphabetic" fill-opacity="1">1</text><text fill="none" stroke="rgb(255,255,255)" font-family="geogebra-sans-serif, sans-serif" font-size="12px" font-style="normal" font-weight="normal" text-decoration="normal" x="90" y="475" text-anchor="start" dominant-baseline="alphabetic" stroke-opacity="1" stroke-linejoin="bevel" stroke-miterlimit="10" stroke-width="3">1</text><text fill="rgb(0,0,0)" stroke="none" font-family="geogebra-sans-serif, sans-serif" font-size="12px" font-style="normal" font-weight="normal" text-decoration="normal" x="90" y="475" text-anchor="start" dominant-baseline="alphabetic" fill-opacity="1">1</text><text fill="rgb(0,0,0)" stroke="none" font-family="geogebra-sans-serif, sans-serif" font-size="12px" font-style="normal" font-weight="normal" text-decoration="normal" x="90" y="388" text-anchor="start" dominant-baseline="alphabetic" fill-opacity="1">2</text><text fill="none" stroke="rgb(255,255,255)" font-family="geogebra-sans-serif, sans-serif" font-size="12px" font-style="normal" font-weight="normal" text-decoration="normal" x="90" y="388" text-anchor="start" dominant-baseline="alphabetic" stroke-opacity="1" stroke-linejoin="bevel" stroke-miterlimit="10" stroke-width="3">2</text><text fill="rgb(0,0,0)" stroke="none" font-family="geogebra-sans-serif, sans-serif" font-size="12px" font-style="normal" font-weight="normal" text-decoration="normal" x="90" y="388" text-anchor="start" dominant-baseline="alphabetic" fill-opacity="1">2</text><text fill="rgb(0,0,0)" stroke="none" font-family="geogebra-sans-serif, sans-serif" font-size="12px" font-style="normal" font-weight="normal" text-decoration="normal" x="90" y="301" text-anchor="start" dominant-baseline="alphabetic" fill-opacity="1">3</text><text fill="none" stroke="rgb(255,255,255)" font-family="geogebra-sans-serif, sans-serif" font-size="12px" font-style="normal" font-weight="normal" text-decoration="normal" x="90" y="301" text-anchor="start" dominant-baseline="alphabetic" stroke-opacity="1" stroke-linejoin="bevel" stroke-miterlimit="10" stroke-width="3">3</text><text fill="rgb(0,0,0)" stroke="none" font-family="geogebra-sans-serif, sans-serif" font-size="12px" font-style="normal" font-weight="normal" text-decoration="normal" x="90" y="301" text-anchor="start" dominant-baseline="alphabetic" fill-opacity="1">3</text><text fill="rgb(0,0,0)" stroke="none" font-family="geogebra-sans-serif, sans-serif" font-size="12px" font-style="normal" font-weight="normal" text-decoration="normal" x="90" y="215" text-anchor="start" dominant-baseline="alphabetic" fill-opacity="1">4</text><text fill="none" stroke="rgb(255,255,255)" font-family="geogebra-sans-serif, sans-serif" font-size="12px" font-style="normal" font-weight="normal" text-decoration="normal" x="90" y="215" text-anchor="start" dominant-baseline="alphabetic" stroke-opacity="1" stroke-linejoin="bevel" stroke-miterlimit="10" stroke-width="3">4</text><text fill="rgb(0,0,0)" stroke="none" font-family="geogebra-sans-serif, sans-serif" font-size="12px" font-style="normal" font-weight="normal" text-decoration="normal" x="90" y="215" text-anchor="start" dominant-baseline="alphabetic" fill-opacity="1">4</text><text fill="rgb(0,0,0)" stroke="none" font-family="geogebra-sans-serif, sans-serif" font-size="12px" font-style="normal" font-weight="normal" text-decoration="normal" x="90" y="128" text-anchor="start" dominant-baseline="alphabetic" fill-opacity="1">5</text><text fill="none" stroke="rgb(255,255,255)" font-family="geogebra-sans-serif, sans-serif" font-size="12px" font-style="normal" font-weight="normal" text-decoration="normal" x="90" y="128" text-anchor="start" dominant-baseline="alphabetic" stroke-opacity="1" stroke-linejoin="bevel" stroke-miterlimit="10" stroke-width="3">5</text><text fill="rgb(0,0,0)" stroke="none" font-family="geogebra-sans-serif, sans-serif" font-size="12px" font-style="normal" font-weight="normal" text-decoration="normal" x="90" y="128" text-anchor="start" dominant-baseline="alphabetic" fill-opacity="1">5</text><text fill="rgb(0,0,0)" stroke="none" font-family="geogebra-sans-serif, sans-serif" font-size="12px" font-style="normal" font-weight="normal" text-decoration="normal" x="90" y="41" text-anchor="start" dominant-baseline="alphabetic" fill-opacity="1">6</text><text fill="none" stroke="rgb(255,255,255)" font-family="geogebra-sans-serif, sans-serif" font-size="12px" font-style="normal" font-weight="normal" text-decoration="normal" x="90" y="41" text-anchor="start" dominant-baseline="alphabetic" stroke-opacity="1" stroke-linejoin="bevel" stroke-miterlimit="10" stroke-width="3">6</text><text fill="rgb(0,0,0)" stroke="none" font-family="geogebra-sans-serif, sans-serif" font-size="12px" font-style="normal" font-weight="normal" text-decoration="normal" x="90" y="41" text-anchor="start" dominant-baseline="alphabetic" fill-opacity="1">6</text><text fill="rgb(0,0,0)" stroke="none" font-family="geogebra-sans-serif, sans-serif" font-size="12px" font-style="normal" font-weight="normal" text-decoration="normal" x="90" y="573" text-anchor="start" dominant-baseline="alphabetic" fill-opacity="1">0</text><text fill="none" stroke="rgb(255,255,255)" font-family="geogebra-sans-serif, sans-serif" font-size="12px" font-style="normal" font-weight="normal" text-decoration="normal" x="90" y="573" text-anchor="start" dominant-baseline="alphabetic" stroke-opacity="1" stroke-linejoin="bevel" stroke-miterlimit="10" stroke-width="3">0</text><text fill="rgb(0,0,0)" stroke="none" font-family="geogebra-sans-serif, sans-serif" font-size="12px" font-style="normal" font-weight="normal" text-decoration="normal" x="90" y="573" text-anchor="start" dominant-baseline="alphabetic" fill-opacity="1">0</text><path fill="none" stroke="rgb(0,0,0)" paint-order="fill stroke markers" d=" M 250 494.0000000000001 L 986 425.1149062271369" stroke-opacity="0.6980392156862745" stroke-linecap="round" stroke-linejoin="round" stroke-miterlimit="10" stroke-width="2.5"/><path fill="none" stroke="rgb(0,0,0)" paint-order="fill stroke markers" d=" M 250 494.0000000000001 L 986 338.69724770642205" stroke-opacity="0.6980392156862745" stroke-linecap="round" stroke-linejoin="round" stroke-miterlimit="10" stroke-width="2.5"/><path fill="none" stroke="rgb(0,0,0)" paint-order="fill stroke markers" d=" M 250 494.0000000000001 L 986 154.32416334956497" stroke-opacity="0.6980392156862745" stroke-linecap="round" stroke-linejoin="round" stroke-miterlimit="10" stroke-width="2.5"/><path fill="none" stroke="rgb(0,0,0)" paint-order="fill stroke markers" d=" M 250 494.0000000000001 L 986 35.68910718979407" stroke-opacity="0.6980392156862745" stroke-linecap="round" stroke-linejoin="round" stroke-miterlimit="10" stroke-width="2.5"/><path fill="none" stroke="rgb(0,0,0)" paint-order="fill stroke markers" d=" M 250 494.0000000000001 L 986 -115.28532278148282" stroke-opacity="0.6980392156862745" stroke-linecap="round" stroke-linejoin="round" stroke-miterlimit="10" stroke-width="2.5"/><path fill="none" stroke="rgb(0,0,0)" paint-order="fill stroke markers" d=" M 250 494.0000000000001 L 636.8884250975827 0" stroke-opacity="0.6980392156862745" stroke-linecap="round" stroke-linejoin="round" stroke-miterlimit="10" stroke-width="2.5"/><path fill="none" stroke="rgb(0,0,0)" paint-order="fill stroke markers" d=" M 250 494.0000000000001 L 688.1652117579923 -5.684341886080802e-14" stroke-opacity="0.6980392156862745" stroke-linecap="round" stroke-linejoin="round" stroke-miterlimit="10" stroke-width="2.5"/><path fill="none" stroke="rgb(0,0,0)" paint-order="fill stroke markers" d=" M 250 494.0000000000001 L 479.78581786964133 0" stroke-opacity="0.6980392156862745" stroke-linecap="round" stroke-linejoin="round" stroke-miterlimit="10" stroke-width="2.5"/><path fill="none" stroke="rgb(0,0,0)" paint-order="fill stroke markers" d=" M 250 494.0000000000001 L 342.6240827675897 0" stroke-opacity="0.6980392156862745" stroke-linecap="round" stroke-linejoin="round" stroke-miterlimit="10" stroke-width="2.5"/><path fill="none" stroke="rgb(0,0,0)" paint-order="fill stroke markers" d=" M 250 494.0000000000001 L 43.36460236862118 0" stroke-opacity="0.6980392156862745" stroke-linecap="round" stroke-linejoin="round" stroke-miterlimit="10" stroke-width="2.5"/><path fill="rgb(21,101,192)" stroke="none" paint-order="stroke fill markers" d=" M 200.1371850139488 362.84032980904124 C 200.1371850139488 365.6017535581952 197.89860876310277 367.84032980904124 195.1371850139488 367.84032980904124 C 192.37576126479482 367.84032980904124 190.1371850139488 365.6017535581952 190.1371850139488 362.84032980904124 C 190.1371850139488 360.0789060598873 192.37576126479482 357.84032980904124 195.1371850139488 357.84032980904124 C 197.89860876310277 357.84032980904124 200.1371850139488 360.0789060598873 200.1371850139488 362.84032980904124 Z" fill-opacity="1"/><path fill="none" stroke="rgb(0,0,0)" paint-order="fill stroke markers" d=" M 200.1371850139488 362.84032980904124 C 200.1371850139488 365.6017535581952 197.89860876310277 367.84032980904124 195.1371850139488 367.84032980904124 C 192.37576126479482 367.84032980904124 190.1371850139488 365.6017535581952 190.1371850139488 362.84032980904124 C 190.1371850139488 360.0789060598873 192.37576126479482 357.84032980904124 195.1371850139488 357.84032980904124 C 197.89860876310277 357.84032980904124 200.1371850139488 360.0789060598873 200.1371850139488 362.84032980904124 Z" stroke-opacity="1" stroke-linecap="round" stroke-linejoin="round" stroke-miterlimit="10"/><text fill="rgb(21,101,192)" stroke="none" font-family="geogebra-sans-serif, sans-serif" font-size="16px" font-style="normal" font-weight="normal" text-decoration="normal" x="199" y="353" text-anchor="start" dominant-baseline="alphabetic" fill-opacity="1">9</text><text fill="none" stroke="rgb(255,255,255)" font-family="geogebra-sans-serif, sans-serif" font-size="16px" font-style="normal" font-weight="normal" text-decoration="normal" x="199" y="353" text-anchor="start" dominant-baseline="alphabetic" stroke-opacity="1" stroke-linejoin="bevel" stroke-miterlimit="10" stroke-width="3">9</text><text fill="rgb(21,101,192)" stroke="none" font-family="geogebra-sans-serif, sans-serif" font-size="16px" font-style="normal" font-weight="normal" text-decoration="normal" x="199" y="353" text-anchor="start" dominant-baseline="alphabetic" fill-opacity="1">9</text><path fill="rgb(21,101,192)" stroke="none" paint-order="stroke fill markers" d=" M 321.5412034467613 139.1100672685725 C 321.5412034467613 141.87149101772647 319.30262719591525 144.1100672685725 316.5412034467613 144.1100672685725 C 313.77977969760735 144.1100672685725 311.5412034467613 141.87149101772647 311.5412034467613 139.1100672685725 C 311.5412034467613 136.34864351941852 313.77977969760735 134.1100672685725 316.5412034467613 134.1100672685725 C 319.30262719591525 134.1100672685725 321.5412034467613 136.34864351941852 321.5412034467613 139.1100672685725 Z" fill-opacity="1"/><path fill="none" stroke="rgb(0,0,0)" paint-order="fill stroke markers" d=" M 321.5412034467613 139.1100672685725 C 321.5412034467613 141.87149101772647 319.30262719591525 144.1100672685725 316.5412034467613 144.1100672685725 C 313.77977969760735 144.1100672685725 311.5412034467613 141.87149101772647 311.5412034467613 139.1100672685725 C 311.5412034467613 136.34864351941852 313.77977969760735 134.1100672685725 316.5412034467613 134.1100672685725 C 319.30262719591525 134.1100672685725 321.5412034467613 136.34864351941852 321.5412034467613 139.1100672685725 Z" stroke-opacity="1" stroke-linecap="round" stroke-linejoin="round" stroke-miterlimit="10"/><text fill="rgb(21,101,192)" stroke="none" font-family="geogebra-sans-serif, sans-serif" font-size="16px" font-style="normal" font-weight="normal" text-decoration="normal" x="321" y="129" text-anchor="start" dominant-baseline="alphabetic" fill-opacity="1">9</text><text fill="none" stroke="rgb(255,255,255)" font-family="geogebra-sans-serif, sans-serif" font-size="16px" font-style="normal" font-weight="normal" text-decoration="normal" x="321" y="129" text-anchor="start" dominant-baseline="alphabetic" stroke-opacity="1" stroke-linejoin="bevel" stroke-miterlimit="10" stroke-width="3">9</text><text fill="rgb(21,101,192)" stroke="none" font-family="geogebra-sans-serif, sans-serif" font-size="16px" font-style="normal" font-weight="normal" text-decoration="normal" x="321" y="129" text-anchor="start" dominant-baseline="alphabetic" fill-opacity="1">9</text><path fill="rgb(21,101,192)" stroke="none" paint-order="stroke fill markers" d=" M 585.1613577580114 121.76663606388507 C 585.1613577580114 124.52805981303904 582.9227815071654 126.76663606388507 580.1613577580114 126.76663606388507 C 577.3999340088574 126.76663606388507 575.1613577580114 124.52805981303904 575.1613577580114 121.76663606388507 C 575.1613577580114 119.00521231473111 577.3999340088574 116.76663606388507 580.1613577580114 116.76663606388507 C 582.9227815071654 116.76663606388507 585.1613577580114 119.00521231473111 585.1613577580114 121.76663606388507 Z" fill-opacity="1"/><path fill="none" stroke="rgb(0,0,0)" paint-order="fill stroke markers" d=" M 585.1613577580114 121.76663606388507 C 585.1613577580114 124.52805981303904 582.9227815071654 126.76663606388507 580.1613577580114 126.76663606388507 C 577.3999340088574 126.76663606388507 575.1613577580114 124.52805981303904 575.1613577580114 121.76663606388507 C 575.1613577580114 119.00521231473111 577.3999340088574 116.76663606388507 580.1613577580114 116.76663606388507 C 582.9227815071654 116.76663606388507 585.1613577580114 119.00521231473111 585.1613577580114 121.76663606388507 Z" stroke-opacity="1" stroke-linecap="round" stroke-linejoin="round" stroke-miterlimit="10"/><text fill="rgb(21,101,192)" stroke="none" font-family="geogebra-sans-serif, sans-serif" font-size="16px" font-style="normal" font-weight="normal" text-decoration="normal" x="584" y="112" text-anchor="start" dominant-baseline="alphabetic" fill-opacity="1">6</text><text fill="none" stroke="rgb(255,255,255)" font-family="geogebra-sans-serif, sans-serif" font-size="16px" font-style="normal" font-weight="normal" text-decoration="normal" x="584" y="112" text-anchor="start" dominant-baseline="alphabetic" stroke-opacity="1" stroke-linejoin="bevel" stroke-miterlimit="10" stroke-width="3">6</text><text fill="rgb(21,101,192)" stroke="none" font-family="geogebra-sans-serif, sans-serif" font-size="16px" font-style="normal" font-weight="normal" text-decoration="normal" x="584" y="112" text-anchor="start" dominant-baseline="alphabetic" fill-opacity="1">6</text><path fill="rgb(21,101,192)" stroke="none" paint-order="stroke fill markers" d=" M 708.2997193112926 284.7948893879475 C 708.2997193112926 287.5563131371014 706.0611430604466 289.7948893879475 703.2997193112926 289.7948893879475 C 700.5382955621386 289.7948893879475 698.2997193112926 287.5563131371014 698.2997193112926 284.7948893879475 C 698.2997193112926 282.03346563879353 700.5382955621386 279.7948893879475 703.2997193112926 279.7948893879475 C 706.0611430604466 279.7948893879475 708.2997193112926 282.03346563879353 708.2997193112926 284.7948893879475 Z" fill-opacity="1"/><path fill="none" stroke="rgb(0,0,0)" paint-order="fill stroke markers" d=" M 708.2997193112926 284.7948893879475 C 708.2997193112926 287.5563131371014 706.0611430604466 289.7948893879475 703.2997193112926 289.7948893879475 C 700.5382955621386 289.7948893879475 698.2997193112926 287.5563131371014 698.2997193112926 284.7948893879475 C 698.2997193112926 282.03346563879353 700.5382955621386 279.7948893879475 703.2997193112926 279.7948893879475 C 706.0611430604466 279.7948893879475 708.2997193112926 282.03346563879353 708.2997193112926 284.7948893879475 Z" stroke-opacity="1" stroke-linecap="round" stroke-linejoin="round" stroke-miterlimit="10"/><text fill="rgb(21,101,192)" stroke="none" font-family="geogebra-sans-serif, sans-serif" font-size="16px" font-style="normal" font-weight="normal" text-decoration="normal" x="707" y="275" text-anchor="start" dominant-baseline="alphabetic" fill-opacity="1">3</text><text fill="none" stroke="rgb(255,255,255)" font-family="geogebra-sans-serif, sans-serif" font-size="16px" font-style="normal" font-weight="normal" text-decoration="normal" x="707" y="275" text-anchor="start" dominant-baseline="alphabetic" stroke-opacity="1" stroke-linejoin="bevel" stroke-miterlimit="10" stroke-width="3">3</text><text fill="rgb(21,101,192)" stroke="none" font-family="geogebra-sans-serif, sans-serif" font-size="16px" font-style="normal" font-weight="normal" text-decoration="normal" x="707" y="275" text-anchor="start" dominant-baseline="alphabetic" fill-opacity="1">3</text><path fill="rgb(21,101,192)" stroke="none" paint-order="stroke fill markers" d=" M 637.1916513720738 458.22920143482247 C 637.1916513720738 460.9906251839764 634.9530751212278 463.22920143482247 632.1916513720738 463.22920143482247 C 629.4302276229198 463.22920143482247 627.1916513720738 460.9906251839764 627.1916513720738 458.22920143482247 C 627.1916513720738 455.4677776856685 629.4302276229198 453.22920143482247 632.1916513720738 453.22920143482247 C 634.9530751212278 453.22920143482247 637.1916513720738 455.4677776856685 637.1916513720738 458.22920143482247 Z" fill-opacity="1"/><path fill="none" stroke="rgb(0,0,0)" paint-order="fill stroke markers" d=" M 637.1916513720738 458.22920143482247 C 637.1916513720738 460.9906251839764 634.9530751212278 463.22920143482247 632.1916513720738 463.22920143482247 C 629.4302276229198 463.22920143482247 627.1916513720738 460.9906251839764 627.1916513720738 458.22920143482247 C 627.1916513720738 455.4677776856685 629.4302276229198 453.22920143482247 632.1916513720738 453.22920143482247 C 634.9530751212278 453.22920143482247 637.1916513720738 455.4677776856685 637.1916513720738 458.22920143482247 Z" stroke-opacity="1" stroke-linecap="round" stroke-linejoin="round" stroke-miterlimit="10"/><text fill="rgb(21,101,192)" stroke="none" font-family="geogebra-sans-serif, sans-serif" font-size="16px" font-style="normal" font-weight="normal" text-decoration="normal" x="636" y="448" text-anchor="start" dominant-baseline="alphabetic" fill-opacity="1">1</text><text fill="none" stroke="rgb(255,255,255)" font-family="geogebra-sans-serif, sans-serif" font-size="16px" font-style="normal" font-weight="normal" text-decoration="normal" x="636" y="448" text-anchor="start" dominant-baseline="alphabetic" stroke-opacity="1" stroke-linejoin="bevel" stroke-miterlimit="10" stroke-width="3">1</text><text fill="rgb(21,101,192)" stroke="none" font-family="geogebra-sans-serif, sans-serif" font-size="16px" font-style="normal" font-weight="normal" text-decoration="normal" x="636" y="448" text-anchor="start" dominant-baseline="alphabetic" fill-opacity="1">1</text><path fill="rgb(21,101,192)" stroke="none" paint-order="stroke fill markers" d=" M 473 448.0000000000001 C 473 450.76142374915406 470.76142374915395 453.0000000000001 468 453.0000000000001 C 465.23857625084605 453.0000000000001 463 450.76142374915406 463 448.0000000000001 C 463 445.23857625084617 465.23857625084605 443.0000000000001 468 443.0000000000001 C 470.76142374915395 443.0000000000001 473 445.23857625084617 473 448.0000000000001 Z" fill-opacity="1"/><path fill="none" stroke="rgb(0,0,0)" paint-order="fill stroke markers" d=" M 473 448.0000000000001 C 473 450.76142374915406 470.76142374915395 453.0000000000001 468 453.0000000000001 C 465.23857625084605 453.0000000000001 463 450.76142374915406 463 448.0000000000001 C 463 445.23857625084617 465.23857625084605 443.0000000000001 468 443.0000000000001 C 470.76142374915395 443.0000000000001 473 445.23857625084617 473 448.0000000000001 Z" stroke-opacity="1" stroke-linecap="round" stroke-linejoin="round" stroke-miterlimit="10"/><text fill="rgb(21,101,192)" stroke="none" font-family="geogebra-sans-serif, sans-serif" font-size="16px" font-style="normal" font-weight="normal" text-decoration="normal" x="472" y="438" text-anchor="start" dominant-baseline="alphabetic" fill-opacity="1">2</text><text fill="none" stroke="rgb(255,255,255)" font-family="geogebra-sans-serif, sans-serif" font-size="16px" font-style="normal" font-weight="normal" text-decoration="normal" x="472" y="438" text-anchor="start" dominant-baseline="alphabetic" stroke-opacity="1" stroke-linejoin="bevel" stroke-miterlimit="10" stroke-width="3">2</text><text fill="rgb(21,101,192)" stroke="none" font-family="geogebra-sans-serif, sans-serif" font-size="16px" font-style="normal" font-weight="normal" text-decoration="normal" x="472" y="438" text-anchor="start" dominant-baseline="alphabetic" fill-opacity="1">2</text><path fill="none" stroke="rgb(211,47,47)" paint-order="fill stroke markers" d=" M 250 489.0000000000001 L 245 494.0000000000001 L 250 499.0000000000001 L 255 494.0000000000001 Z" stroke-opacity="1" stroke-linecap="square" stroke-miterlimit="10" stroke-width="2.5"/><path fill="rgb(211,47,47)" stroke="none" paint-order="stroke fill markers" fill-rule="evenodd" d=" M 250 489.0000000000001 L 245 494.0000000000001 L 250 499.0000000000001 L 255 494.0000000000001 Z" fill-opacity="1"/><text fill="rgb(211,47,47)" stroke="none" font-family="geogebra-sans-serif, sans-serif" font-size="16px" font-style="normal" font-weight="normal" text-decoration="normal" x="254" y="484" text-anchor="start" dominant-baseline="alphabetic" fill-opacity="1">0</text><text fill="none" stroke="rgb(255,255,255)" font-family="geogebra-sans-serif, sans-serif" font-size="16px" font-style="normal" font-weight="normal" text-decoration="normal" x="254" y="484" text-anchor="start" dominant-baseline="alphabetic" stroke-opacity="1" stroke-linejoin="bevel" stroke-miterlimit="10" stroke-width="3">0</text><text fill="rgb(211,47,47)" stroke="none" font-family="geogebra-sans-serif, sans-serif" font-size="16px" font-style="normal" font-weight="normal" text-decoration="normal" x="254" y="484" text-anchor="start" dominant-baseline="alphabetic" fill-opacity="1">0</text><path fill="rgb(21,101,192)" stroke="none" paint-order="stroke fill markers" d=" M 392.6492713859801 198.07773336451004 C 392.6492713859801 200.83915711366402 390.41069513513406 203.07773336451004 387.6492713859801 203.07773336451004 C 384.88784763682617 203.07773336451004 382.6492713859801 200.83915711366402 382.6492713859801 198.07773336451004 C 382.6492713859801 195.31630961535606 384.88784763682617 193.07773336451004 387.6492713859801 193.07773336451004 C 390.41069513513406 193.07773336451004 392.6492713859801 195.31630961535606 392.6492713859801 198.07773336451004 Z" fill-opacity="1"/><path fill="none" stroke="rgb(0,0,0)" paint-order="fill stroke markers" d=" M 392.6492713859801 198.07773336451004 C 392.6492713859801 200.83915711366402 390.41069513513406 203.07773336451004 387.6492713859801 203.07773336451004 C 384.88784763682617 203.07773336451004 382.6492713859801 200.83915711366402 382.6492713859801 198.07773336451004 C 382.6492713859801 195.31630961535606 384.88784763682617 193.07773336451004 387.6492713859801 193.07773336451004 C 390.41069513513406 193.07773336451004 392.6492713859801 195.31630961535606 392.6492713859801 198.07773336451004 Z" stroke-opacity="1" stroke-linecap="round" stroke-linejoin="round" stroke-miterlimit="10"/><text fill="rgb(21,101,192)" stroke="none" font-family="geogebra-sans-serif, sans-serif" font-size="16px" font-style="normal" font-weight="normal" text-decoration="normal" x="392" y="188" text-anchor="start" dominant-baseline="alphabetic" fill-opacity="1">8</text><text fill="none" stroke="rgb(255,255,255)" font-family="geogebra-sans-serif, sans-serif" font-size="16px" font-style="normal" font-weight="normal" text-decoration="normal" x="392" y="188" text-anchor="start" dominant-baseline="alphabetic" stroke-opacity="1" stroke-linejoin="bevel" stroke-miterlimit="10" stroke-width="3">8</text><text fill="rgb(21,101,192)" stroke="none" font-family="geogebra-sans-serif, sans-serif" font-size="16px" font-style="normal" font-weight="normal" text-decoration="normal" x="392" y="188" text-anchor="start" dominant-baseline="alphabetic" fill-opacity="1">8</text><path fill="rgb(21,101,192)" stroke="none" paint-order="stroke fill markers" d=" M 574.7552990351988 229.29590953294752 C 574.7552990351988 232.0573332821015 572.5167227843529 234.29590953294752 569.7552990351988 234.29590953294752 C 566.9938752860448 234.29590953294752 564.7552990351988 232.0573332821015 564.7552990351988 229.29590953294752 C 564.7552990351988 226.53448578379354 566.9938752860448 224.29590953294752 569.7552990351988 224.29590953294752 C 572.5167227843529 224.29590953294752 574.7552990351988 226.53448578379354 574.7552990351988 229.29590953294752 Z" fill-opacity="1"/><path fill="none" stroke="rgb(0,0,0)" paint-order="fill stroke markers" d=" M 574.7552990351988 229.29590953294752 C 574.7552990351988 232.0573332821015 572.5167227843529 234.29590953294752 569.7552990351988 234.29590953294752 C 566.9938752860448 234.29590953294752 564.7552990351988 232.0573332821015 564.7552990351988 229.29590953294752 C 564.7552990351988 226.53448578379354 566.9938752860448 224.29590953294752 569.7552990351988 224.29590953294752 C 572.5167227843529 224.29590953294752 574.7552990351988 226.53448578379354 574.7552990351988 229.29590953294752 Z" stroke-opacity="1" stroke-linecap="round" stroke-linejoin="round" stroke-miterlimit="10"/><text fill="rgb(21,101,192)" stroke="none" font-family="geogebra-sans-serif, sans-serif" font-size="16px" font-style="normal" font-weight="normal" text-decoration="normal" x="574" y="219" text-anchor="start" dominant-baseline="alphabetic" fill-opacity="1">5</text><text fill="none" stroke="rgb(255,255,255)" font-family="geogebra-sans-serif, sans-serif" font-size="16px" font-style="normal" font-weight="normal" text-decoration="normal" x="574" y="219" text-anchor="start" dominant-baseline="alphabetic" stroke-opacity="1" stroke-linejoin="bevel" stroke-miterlimit="10" stroke-width="3">5</text><text fill="rgb(21,101,192)" stroke="none" font-family="geogebra-sans-serif, sans-serif" font-size="16px" font-style="normal" font-weight="normal" text-decoration="normal" x="574" y="219" text-anchor="start" dominant-baseline="alphabetic" fill-opacity="1">5</text><path fill="rgb(21,101,192)" stroke="none" paint-order="stroke fill markers" d=" M 378.7745264222301 335.9580114417756 C 378.7745264222301 338.7194351909296 376.53595017138406 340.9580114417756 373.7745264222301 340.9580114417756 C 371.01310267307616 340.9580114417756 368.7745264222301 338.7194351909296 368.7745264222301 335.9580114417756 C 368.7745264222301 333.1965876926217 371.01310267307616 330.9580114417756 373.7745264222301 330.9580114417756 C 376.53595017138406 330.9580114417756 378.7745264222301 333.1965876926217 378.7745264222301 335.9580114417756 Z" fill-opacity="1"/><path fill="none" stroke="rgb(0,0,0)" paint-order="fill stroke markers" d=" M 378.7745264222301 335.9580114417756 C 378.7745264222301 338.7194351909296 376.53595017138406 340.9580114417756 373.7745264222301 340.9580114417756 C 371.01310267307616 340.9580114417756 368.7745264222301 338.7194351909296 368.7745264222301 335.9580114417756 C 368.7745264222301 333.1965876926217 371.01310267307616 330.9580114417756 373.7745264222301 330.9580114417756 C 376.53595017138406 330.9580114417756 378.7745264222301 333.1965876926217 378.7745264222301 335.9580114417756 Z" stroke-opacity="1" stroke-linecap="round" stroke-linejoin="round" stroke-miterlimit="10"/><text fill="rgb(21,101,192)" stroke="none" font-family="geogebra-sans-serif, sans-serif" font-size="16px" font-style="normal" font-weight="normal" text-decoration="normal" x="378" y="326" text-anchor="start" dominant-baseline="alphabetic" fill-opacity="1">7</text><text fill="none" stroke="rgb(255,255,255)" font-family="geogebra-sans-serif, sans-serif" font-size="16px" font-style="normal" font-weight="normal" text-decoration="normal" x="378" y="326" text-anchor="start" dominant-baseline="alphabetic" stroke-opacity="1" stroke-linejoin="bevel" stroke-miterlimit="10" stroke-width="3">7</text><text fill="rgb(21,101,192)" stroke="none" font-family="geogebra-sans-serif, sans-serif" font-size="16px" font-style="normal" font-weight="normal" text-decoration="normal" x="378" y="326" text-anchor="start" dominant-baseline="alphabetic" fill-opacity="1">7</text><path fill="rgb(21,101,192)" stroke="none" paint-order="stroke fill markers" d=" M 522.7250054211363 327.2862958394319 C 522.7250054211363 330.04771958858584 520.4864291702903 332.2862958394319 517.7250054211363 332.2862958394319 C 514.9635816719823 332.2862958394319 512.7250054211363 330.04771958858584 512.7250054211363 327.2862958394319 C 512.7250054211363 324.52487209027794 514.9635816719823 322.2862958394319 517.7250054211363 322.2862958394319 C 520.4864291702903 322.2862958394319 522.7250054211363 324.52487209027794 522.7250054211363 327.2862958394319 Z" fill-opacity="1"/><path fill="none" stroke="rgb(0,0,0)" paint-order="fill stroke markers" d=" M 522.7250054211363 327.2862958394319 C 522.7250054211363 330.04771958858584 520.4864291702903 332.2862958394319 517.7250054211363 332.2862958394319 C 514.9635816719823 332.2862958394319 512.7250054211363 330.04771958858584 512.7250054211363 327.2862958394319 C 512.7250054211363 324.52487209027794 514.9635816719823 322.2862958394319 517.7250054211363 322.2862958394319 C 520.4864291702903 322.2862958394319 522.7250054211363 324.52487209027794 522.7250054211363 327.2862958394319 Z" stroke-opacity="1" stroke-linecap="round" stroke-linejoin="round" stroke-miterlimit="10"/><text fill="rgb(21,101,192)" stroke="none" font-family="geogebra-sans-serif, sans-serif" font-size="16px" font-style="normal" font-weight="normal" text-decoration="normal" x="522" y="317" text-anchor="start" dominant-baseline="alphabetic" fill-opacity="1">4</text><text fill="none" stroke="rgb(255,255,255)" font-family="geogebra-sans-serif, sans-serif" font-size="16px" font-style="normal" font-weight="normal" text-decoration="normal" x="522" y="317" text-anchor="start" dominant-baseline="alphabetic" stroke-opacity="1" stroke-linejoin="bevel" stroke-miterlimit="10" stroke-width="3">4</text><text fill="rgb(21,101,192)" stroke="none" font-family="geogebra-sans-serif, sans-serif" font-size="16px" font-style="normal" font-weight="normal" text-decoration="normal" x="522" y="317" text-anchor="start" dominant-baseline="alphabetic" fill-opacity="1">4</text></g></g></svg>