<svg version="1.1" xmlns="http://www.w3.org/2000/svg" xmlns:xlink="http://www.w3.org/1999/xlink" width="986" height="600"><defs><clipPath id="APGnhPbFeZDv"><path fill="none" stroke="none" d=" M 0 0 L 986 0 L 986 600 L 0 600 L 0 0 Z"/></clipPath></defs><g transform="scale(1,1)" clip-path="url(#APGnhPbFeZDv)"><g><rect fill="rgb(255,255,255)" stroke="none" x="0" y="0" width="986" height="600" fill-opacity="1"/><path fill="none" stroke="rgb(192,192,192)" paint-order="fill stroke markers" d=" M 8.5 0.5 L 8.5 600.5 M 8.5 0.5 L 8.5 600.5 M 75.5 0.5 L 75.5 600.5 M 143.5 0.5 L 143.5 600.5 M 210.5 0.5 L 210.5 600.5 M 278.5 0.5 L 278.5 600.5 M 345.5 0.5 L 345.5 600.5 M 413.5 0.5 L 413.5 600.5 M 480.5 0.5 L 480.5 600.5 M 547.5 0.5 L 547.5 600.5 M 615.5 0.5 L 615.5 600.5 M 682.5 0.5 L 682.5 600.5 M 750.5 0.5 L 750.5 600.5 M 817.5 0.5 L 817.5 600.5 M 885.5 0.5 L 885.5 600.5 M 952.5 0.5 L 952.5 600.5" stroke-opacity="1" stroke-linecap="round" stroke-linejoin="round" stroke-miterlimit="10"/><path fill="none" stroke="rgb(192,192,192)" paint-order="fill stroke markers" d=" M 21.5 0.5 L 21.5 600.5 M 35.5 0.5 L 35.5 600.5 M 48.5 0.5 L 48.5 600.5 M 62.5 0.5 L 62.5 600.5 M 89.5 0.5 L 89.5 600.5 M 102.5 0.5 L 102.5 600.5 M 116.5 0.5 L 116.5 600.5 M 129.5 0.5 L 129.5 600.5 M 156.5 0.5 L 156.5 600.5 M 170.5 0.5 L 170.5 600.5 M 183.5 0.5 L 183.5 600.5 M 197.5 0.5 L 197.5 600.5 M 224.5 0.5 L 224.5 600.5 M 237.5 0.5 L 237.5 600.5 M 251.5 0.5 L 251.5 600.5 M 264.5 0.5 L 264.5 600.5 M 291.5 0.5 L 291.5 600.5 M 305.5 0.5 L 305.5 600.5 M 318.5 0.5 L 318.5 600.5 M 332.5 0.5 L 332.5 600.5 M 359.5 0.5 L 359.5 600.5 M 372.5 0.5 L 372.5 600.5 M 386.5 0.5 L 386.5 600.5 M 399.5 0.5 L 399.5 600.5 M 426.5 0.5 L 426.5 600.5 M 440.5 0.5 L 440.5 600.5 M 453.5 0.5 L 453.5 600.5 M 467.5 0.5 L 467.5 600.5 M 494.5 0.5 L 494.5 600.5 M 507.5 0.5 L 507.5 600.5 M 520.5 0.5 L 520.5 600.5 M 534.5 0.5 L 534.5 600.5 M 561.5 0.5 L 561.5 600.5 M 574.5 0.5 L 574.5 600.5 M 588.5 0.5 L 588.5 600.5 M 601.5 0.5 L 601.5 600.5 M 628.5 0.5 L 628.5 600.5 M 642.5 0.5 L 642.5 600.5 M 655.5 0.5 L 655.5 600.5 M 669.5 0.5 L 669.5 600.5 M 696.5 0.5 L 696.5 600.5 M 709.5 0.5 L 709.5 600.5 M 723.5 0.5 L 723.5 600.5 M 736.5 0.5 L 736.5 600.5 M 763.5 0.5 L 763.5 600.5 M 777.5 0.5 L 777.5 600.5 M 790.5 0.5 L 790.5 600.5 M 804.5 0.5 L 804.5 600.5 M 831.5 0.5 L 831.5 600.5 M 844.5 0.5 L 844.5 600.5 M 858.5 0.5 L 858.5 600.5 M 871.5 0.5 L 871.5 600.5 M 898.5 0.5 L 898.5 600.5 M 912.5 0.5 L 912.5 600.5 M 925.5 0.5 L 925.5 600.5 M 939.5 0.5 L 939.5 600.5 M 966.5 0.5 L 966.5 600.5 M 979.5 0.5 L 979.5 600.5" stroke-opacity="0.23529411764705882" stroke-linecap="round" stroke-linejoin="round" stroke-miterlimit="10"/><path fill="none" stroke="rgb(192,192,192)" paint-order="fill stroke markers" d=" M 0.5 26.5 L 986.5 26.5 M 0.5 26.5 L 986.5 26.5 M 0.5 86.5 L 986.5 86.5 M 0.5 146.5 L 986.5 146.5 M 0.5 205.5 L 986.5 205.5 M 0.5 265.5 L 986.5 265.5 M 0.5 325.5 L 986.5 325.5 M 0.5 384.5 L 986.5 384.5 M 0.5 444.5 L 986.5 444.5 M 0.5 504.5 L 986.5 504.5 M 0.5 564.5 L 986.5 564.5" stroke-opacity="1" stroke-linecap="round" stroke-linejoin="round" stroke-miterlimit="10"/><path fill="none" stroke="rgb(192,192,192)" paint-order="fill stroke markers" d=" M 0.5 2.5 L 986.5 2.5 M 0.5 2.5 L 986.5 2.5 M 0.5 14.5 L 986.5 14.5 M 0.5 38.5 L 986.5 38.5 M 0.5 50.5 L 986.5 50.5 M 0.5 62.5 L 986.5 62.5 M 0.5 74.5 L 986.5 74.5 M 0.5 98.5 L 986.5 98.5 M 0.5 110.5 L 986.5 110.5 M 0.5 122.5 L 986.5 122.5 M 0.5 134.5 L 986.5 134.5 M 0.5 157.5 L 986.5 157.5 M 0.5 169.5 L 986.5 169.5 M 0.5 181.5 L 986.5 181.5 M 0.5 193.5 L 986.5 193.5 M 0.5 217.5 L 986.5 217.5 M 0.5 229.5 L 986.5 229.5 M 0.5 241.5 L 986.5 241.5 M 0.5 253.5 L 986.5 253.5 M 0.5 277.5 L 986.5 277.5 M 0.5 289.5 L 986.5 289.5 M 0.5 301.5 L 986.5 301.5 M 0.5 313.5 L 986.5 313.5 M 0.5 337.5 L 986.5 337.5 M 0.5 349.5 L 986.5 349.5 M 0.5 361.5 L 986.5 361.5 M 0.5 372.5 L 986.5 372.5 M 0.5 396.5 L 986.5 396.5 M 0.5 408.5 L 986.5 408.5 M 0.5 420.5 L 986.5 420.5 M 0.5 432.5 L 986.5 432.5 M 0.5 456.5 L 986.5 456.5 M 0.5 468.5 L 986.5 468.5 M 0.5 480.5 L 986.5 480.5 M 0.5 492.5 L 986.5 492.5 M 0.5 516.5 L 986.5 516.5 M 0.5 528.5 L 986.5 528.5 M 0.5 540.5 L 986.5 540.5 M 0.5 552.5 L 986.5 552.5 M 0.5 576.5 L 986.5 576.5 M 0.5 587.5 L 986.5 587.5 M 0.5 599.5 L 986.5 599.5" stroke-opacity="0.23529411764705882" stroke-linecap="round" stroke-linejoin="round" stroke-miterlimit="10"/><path fill="rgb(0,0,0)" stroke="none" paint-order="stroke fill markers" d=" M 239.26163789184227 427.8278072995976 C 236.74557334905865 414.4592099704376 231.3340520157468 403.40837378684876 224.2175468153256 397.1063565692478 L 210.80113895032684 444.6299266264012 Z" fill-opacity="0.09803921568627451"/><path fill="none" stroke="rgb(0,0,0)" paint-order="fill stroke markers" d=" M 239.26163789184227 427.8278072995976 C 236.74557334905865 414.4592099704376 231.3340520157468 403.40837378684876 224.2175468153256 397.1063565692478 L 210.80113895032684 444.6299266264012 Z" stroke-opacity="0.6" stroke-linecap="round" stroke-linejoin="round" stroke-miterlimit="10" stroke-width="2.5"/><path fill="none" stroke="rgb(0,0,0)" paint-order="fill stroke markers" d=" M 210.80113895032684 444.6299266264012 L 273.61484543418425 222.13135542368767" stroke-opacity="0.6980392156862745" stroke-linecap="round" stroke-linejoin="round" stroke-miterlimit="10" stroke-width="2.5"/><path fill="rgb(0,0,0)" stroke="none" paint-order="stroke fill markers" fill-rule="evenodd" d=" M 278.2335981404012 205.77081987503237 L 277.70497932134805 223.28604360024192 L 269.52471154702044 220.9766672471334 Z" fill-opacity="0.6980392156862745"/><path fill="none" stroke="rgb(0,0,0)" paint-order="fill stroke markers" d=" M 210.80113895032684 444.6299266264012 L 398.45928650118424 333.84288124551205" stroke-opacity="0.6980392156862745" stroke-linecap="round" stroke-linejoin="round" stroke-miterlimit="10" stroke-width="2.5"/><path fill="rgb(0,0,0)" stroke="none" paint-order="stroke fill markers" fill-rule="evenodd" d=" M 413.09851652055 325.2003732507168 L 400.61991349988307 337.5026887503535 L 396.2986595024854 330.1830737406706 Z" fill-opacity="0.6980392156862745"/><path fill="none" stroke="rgb(0,0,0)" paint-order="fill stroke markers" d=" M 550.2526310549108 443.86925444899737 L 613.0663375387682 221.3706832462838" stroke-opacity="0.6980392156862745" stroke-linecap="round" stroke-linejoin="round" stroke-miterlimit="10" stroke-width="2.5"/><path fill="rgb(0,0,0)" stroke="none" paint-order="stroke fill markers" fill-rule="evenodd" d=" M 617.6850902449852 205.0101476976285 L 617.156471425932 222.52537142283805 L 608.9762036516044 220.21599506972953 Z" fill-opacity="0.6980392156862745"/><path fill="none" stroke="rgb(0,0,0)" paint-order="fill stroke markers" d=" M 550.2526310549108 443.86925444899737 L 737.910778605768 333.0822090681083" stroke-opacity="0.6980392156862745" stroke-linecap="round" stroke-linejoin="round" stroke-miterlimit="10" stroke-width="2.5"/><path fill="rgb(0,0,0)" stroke="none" paint-order="stroke fill markers" fill-rule="evenodd" d=" M 752.5500086251337 324.439701073313 L 740.0714056044668 336.74201657294975 L 735.7501516070691 329.4224015632668 Z" fill-opacity="0.6980392156862745"/><path fill="none" stroke="rgb(21,101,192)" paint-order="fill stroke markers" d=" M 210.80113895032684 438.6299266264012 L 204.80113895032684 444.6299266264012" stroke-opacity="1" stroke-linecap="square" stroke-miterlimit="10" stroke-width="3"/><path fill="none" stroke="rgb(21,101,192)" paint-order="fill stroke markers" d=" M 204.80113895032684 444.6299266264012 L 210.80113895032684 450.6299266264012" stroke-opacity="1" stroke-linecap="square" stroke-miterlimit="10" stroke-width="3"/><path fill="none" stroke="rgb(21,101,192)" paint-order="fill stroke markers" d=" M 210.80113895032684 450.6299266264012 L 216.80113895032684 444.6299266264012" stroke-opacity="1" stroke-linecap="square" stroke-miterlimit="10" stroke-width="3"/><path fill="none" stroke="rgb(21,101,192)" paint-order="fill stroke markers" d=" M 216.80113895032684 444.6299266264012 L 210.80113895032684 438.6299266264012" stroke-opacity="1" stroke-linecap="square" stroke-miterlimit="10" stroke-width="3"/><text fill="rgb(21,101,192)" stroke="none" font-family="geogebra-sans-serif, sans-serif" font-size="16px" font-style="normal" font-weight="normal" text-decoration="normal" x="191" y="432" text-anchor="start" dominant-baseline="alphabetic" fill-opacity="1">A</text><text fill="none" stroke="rgb(255,255,255)" font-family="geogebra-sans-serif, sans-serif" font-size="16px" font-style="normal" font-weight="normal" text-decoration="normal" x="191" y="432" text-anchor="start" dominant-baseline="alphabetic" stroke-opacity="1" stroke-linejoin="bevel" stroke-miterlimit="10" stroke-width="3">A</text><text fill="rgb(21,101,192)" stroke="none" font-family="geogebra-sans-serif, sans-serif" font-size="16px" font-style="normal" font-weight="normal" text-decoration="normal" x="191" y="432" text-anchor="start" dominant-baseline="alphabetic" fill-opacity="1">A</text><path fill="rgb(21,101,192)" stroke="none" paint-order="stroke fill markers" d=" M 283.2335981404012 205.77081987503237 C 283.2335981404012 208.53224362418635 280.9950218895552 210.77081987503237 278.2335981404012 210.77081987503237 C 275.4721743912473 210.77081987503237 273.2335981404012 208.53224362418635 273.2335981404012 205.77081987503237 C 273.2335981404012 203.0093961258784 275.4721743912473 200.77081987503237 278.2335981404012 200.77081987503237 C 280.9950218895552 200.77081987503237 283.2335981404012 203.0093961258784 283.2335981404012 205.77081987503237 Z" fill-opacity="1"/><path fill="none" stroke="rgb(0,0,0)" paint-order="fill stroke markers" d=" M 283.2335981404012 205.77081987503237 C 283.2335981404012 208.53224362418635 280.9950218895552 210.77081987503237 278.2335981404012 210.77081987503237 C 275.4721743912473 210.77081987503237 273.2335981404012 208.53224362418635 273.2335981404012 205.77081987503237 C 273.2335981404012 203.0093961258784 275.4721743912473 200.77081987503237 278.2335981404012 200.77081987503237 C 280.9950218895552 200.77081987503237 283.2335981404012 203.0093961258784 283.2335981404012 205.77081987503237 Z" stroke-opacity="1" stroke-linecap="round" stroke-linejoin="round" stroke-miterlimit="10"/><text fill="rgb(21,101,192)" stroke="none" font-family="geogebra-sans-serif, sans-serif" font-size="16px" font-style="normal" font-weight="normal" text-decoration="normal" x="282" y="196" text-anchor="start" dominant-baseline="alphabetic" fill-opacity="1">B</text><text fill="none" stroke="rgb(255,255,255)" font-family="geogebra-sans-serif, sans-serif" font-size="16px" font-style="normal" font-weight="normal" text-decoration="normal" x="282" y="196" text-anchor="start" dominant-baseline="alphabetic" stroke-opacity="1" stroke-linejoin="bevel" stroke-miterlimit="10" stroke-width="3">B</text><text fill="rgb(21,101,192)" stroke="none" font-family="geogebra-sans-serif, sans-serif" font-size="16px" font-style="normal" font-weight="normal" text-decoration="normal" x="282" y="196" text-anchor="start" dominant-baseline="alphabetic" fill-opacity="1">B</text><path fill="rgb(211,47,47)" stroke="none" paint-order="stroke fill markers" d=" M 418.09851652055 325.2003732507168 C 418.09851652055 327.9617969998707 415.85994026970394 330.2003732507168 413.09851652055 330.2003732507168 C 410.33709277139604 330.2003732507168 408.09851652055 327.9617969998707 408.09851652055 325.2003732507168 C 408.09851652055 322.43894950156283 410.33709277139604 320.2003732507168 413.09851652055 320.2003732507168 C 415.85994026970394 320.2003732507168 418.09851652055 322.43894950156283 418.09851652055 325.2003732507168 Z" fill-opacity="1"/><path fill="none" stroke="rgb(0,0,0)" paint-order="fill stroke markers" d=" M 418.09851652055 325.2003732507168 C 418.09851652055 327.9617969998707 415.85994026970394 330.2003732507168 413.09851652055 330.2003732507168 C 410.33709277139604 330.2003732507168 408.09851652055 327.9617969998707 408.09851652055 325.2003732507168 C 408.09851652055 322.43894950156283 410.33709277139604 320.2003732507168 413.09851652055 320.2003732507168 C 415.85994026970394 320.2003732507168 418.09851652055 322.43894950156283 418.09851652055 325.2003732507168 Z" stroke-opacity="1" stroke-linecap="round" stroke-linejoin="round" stroke-miterlimit="10"/><text fill="rgb(211,47,47)" stroke="none" font-family="geogebra-sans-serif, sans-serif" font-size="16px" font-style="normal" font-weight="normal" text-decoration="normal" x="417" y="315" text-anchor="start" dominant-baseline="alphabetic" fill-opacity="1">C</text><text fill="none" stroke="rgb(255,255,255)" font-family="geogebra-sans-serif, sans-serif" font-size="16px" font-style="normal" font-weight="normal" text-decoration="normal" x="417" y="315" text-anchor="start" dominant-baseline="alphabetic" stroke-opacity="1" stroke-linejoin="bevel" stroke-miterlimit="10" stroke-width="3">C</text><text fill="rgb(211,47,47)" stroke="none" font-family="geogebra-sans-serif, sans-serif" font-size="16px" font-style="normal" font-weight="normal" text-decoration="normal" x="417" y="315" text-anchor="start" dominant-baseline="alphabetic" fill-opacity="1">C</text><text fill="rgb(211,47,47)" stroke="none" font-family="geogebra-sans-serif, sans-serif" font-size="14px" font-style="normal" font-weight="normal" text-decoration="normal" x="429" y="322" text-anchor="start" dominant-baseline="alphabetic" fill-opacity="1">2</text><text fill="none" stroke="rgb(255,255,255)" font-family="geogebra-sans-serif, sans-serif" font-size="14px" font-style="normal" font-weight="normal" text-decoration="normal" x="429" y="322" text-anchor="start" dominant-baseline="alphabetic" stroke-opacity="1" stroke-linejoin="bevel" stroke-miterlimit="10" stroke-width="3">2</text><text fill="rgb(211,47,47)" stroke="none" font-family="geogebra-sans-serif, sans-serif" font-size="14px" font-style="normal" font-weight="normal" text-decoration="normal" x="429" y="322" text-anchor="start" dominant-baseline="alphabetic" fill-opacity="1">2</text><path fill="none" stroke="rgb(21,101,192)" paint-order="fill stroke markers" d=" M 550.2526310549108 437.86925444899737 L 544.2526310549108 443.86925444899737" stroke-opacity="1" stroke-linecap="square" stroke-miterlimit="10" stroke-width="3"/><path fill="none" stroke="rgb(21,101,192)" paint-order="fill stroke markers" d=" M 544.2526310549108 443.86925444899737 L 550.2526310549108 449.86925444899737" stroke-opacity="1" stroke-linecap="square" stroke-miterlimit="10" stroke-width="3"/><path fill="none" stroke="rgb(21,101,192)" paint-order="fill stroke markers" d=" M 550.2526310549108 449.86925444899737 L 556.2526310549108 443.86925444899737" stroke-opacity="1" stroke-linecap="square" stroke-miterlimit="10" stroke-width="3"/><path fill="none" stroke="rgb(21,101,192)" paint-order="fill stroke markers" d=" M 556.2526310549108 443.86925444899737 L 550.2526310549108 437.86925444899737" stroke-opacity="1" stroke-linecap="square" stroke-miterlimit="10" stroke-width="3"/><text fill="rgb(21,101,192)" stroke="none" font-family="geogebra-sans-serif, sans-serif" font-size="16px" font-style="normal" font-weight="normal" text-decoration="normal" x="530" y="431" text-anchor="start" dominant-baseline="alphabetic" fill-opacity="1">A</text><text fill="none" stroke="rgb(255,255,255)" font-family="geogebra-sans-serif, sans-serif" font-size="16px" font-style="normal" font-weight="normal" text-decoration="normal" x="530" y="431" text-anchor="start" dominant-baseline="alphabetic" stroke-opacity="1" stroke-linejoin="bevel" stroke-miterlimit="10" stroke-width="3">A</text><text fill="rgb(21,101,192)" stroke="none" font-family="geogebra-sans-serif, sans-serif" font-size="16px" font-style="normal" font-weight="normal" text-decoration="normal" x="530" y="431" text-anchor="start" dominant-baseline="alphabetic" fill-opacity="1">A</text><text fill="rgb(21,101,192)" stroke="none" font-family="geogebra-sans-serif, sans-serif" font-size="14px" font-style="normal" font-weight="normal" text-decoration="normal" x="541" y="438" text-anchor="start" dominant-baseline="alphabetic" fill-opacity="1">1</text><text fill="none" stroke="rgb(255,255,255)" font-family="geogebra-sans-serif, sans-serif" font-size="14px" font-style="normal" font-weight="normal" text-decoration="normal" x="541" y="438" text-anchor="start" dominant-baseline="alphabetic" stroke-opacity="1" stroke-linejoin="bevel" stroke-miterlimit="10" stroke-width="3">1</text><text fill="rgb(21,101,192)" stroke="none" font-family="geogebra-sans-serif, sans-serif" font-size="14px" font-style="normal" font-weight="normal" text-decoration="normal" x="541" y="438" text-anchor="start" dominant-baseline="alphabetic" fill-opacity="1">1</text><path fill="rgb(255,0,0)" stroke="none" paint-order="stroke fill markers" d=" M 622.6850902449852 205.0101476976285 C 622.6850902449852 207.77157144678247 620.4465139941392 210.0101476976285 617.6850902449852 210.0101476976285 C 614.9236664958312 210.0101476976285 612.6850902449852 207.77157144678247 612.6850902449852 205.0101476976285 C 612.6850902449852 202.24872394847452 614.9236664958312 200.0101476976285 617.6850902449852 200.0101476976285 C 620.4465139941392 200.0101476976285 622.6850902449852 202.24872394847452 622.6850902449852 205.0101476976285 Z" fill-opacity="1"/><path fill="none" stroke="rgb(0,0,0)" paint-order="fill stroke markers" d=" M 622.6850902449852 205.0101476976285 C 622.6850902449852 207.77157144678247 620.4465139941392 210.0101476976285 617.6850902449852 210.0101476976285 C 614.9236664958312 210.0101476976285 612.6850902449852 207.77157144678247 612.6850902449852 205.0101476976285 C 612.6850902449852 202.24872394847452 614.9236664958312 200.0101476976285 617.6850902449852 200.0101476976285 C 620.4465139941392 200.0101476976285 622.6850902449852 202.24872394847452 622.6850902449852 205.0101476976285 Z" stroke-opacity="1" stroke-linecap="round" stroke-linejoin="round" stroke-miterlimit="10"/><text fill="rgb(255,0,0)" stroke="none" font-family="geogebra-sans-serif, sans-serif" font-size="16px" font-style="normal" font-weight="normal" text-decoration="normal" x="622" y="195" text-anchor="start" dominant-baseline="alphabetic" fill-opacity="1">C1</text><text fill="none" stroke="rgb(255,255,255)" font-family="geogebra-sans-serif, sans-serif" font-size="16px" font-style="normal" font-weight="normal" text-decoration="normal" x="622" y="195" text-anchor="start" dominant-baseline="alphabetic" stroke-opacity="1" stroke-linejoin="bevel" stroke-miterlimit="10" stroke-width="3">C1</text><text fill="rgb(255,0,0)" stroke="none" font-family="geogebra-sans-serif, sans-serif" font-size="16px" font-style="normal" font-weight="normal" text-decoration="normal" x="622" y="195" text-anchor="start" dominant-baseline="alphabetic" fill-opacity="1">C1</text><path fill="rgb(0,0,255)" stroke="none" paint-order="stroke fill markers" d=" M 757.5500086251337 324.439701073313 C 757.5500086251337 327.20112482246697 755.3114323742877 329.439701073313 752.5500086251337 329.439701073313 C 749.7885848759797 329.439701073313 747.5500086251337 327.20112482246697 747.5500086251337 324.439701073313 C 747.5500086251337 321.67827732415907 749.7885848759797 319.439701073313 752.5500086251337 319.439701073313 C 755.3114323742877 319.439701073313 757.5500086251337 321.67827732415907 757.5500086251337 324.439701073313 Z" fill-opacity="1"/><path fill="none" stroke="rgb(0,0,0)" paint-order="fill stroke markers" d=" M 757.5500086251337 324.439701073313 C 757.5500086251337 327.20112482246697 755.3114323742877 329.439701073313 752.5500086251337 329.439701073313 C 749.7885848759797 329.439701073313 747.5500086251337 327.20112482246697 747.5500086251337 324.439701073313 C 747.5500086251337 321.67827732415907 749.7885848759797 319.439701073313 752.5500086251337 319.439701073313 C 755.3114323742877 319.439701073313 757.5500086251337 321.67827732415907 757.5500086251337 324.439701073313 Z" stroke-opacity="1" stroke-linecap="round" stroke-linejoin="round" stroke-miterlimit="10"/><text fill="rgb(0,0,255)" stroke="none" font-family="geogebra-sans-serif, sans-serif" font-size="16px" font-style="normal" font-weight="normal" text-decoration="normal" x="757" y="314" text-anchor="start" dominant-baseline="alphabetic" fill-opacity="1">B1</text><text fill="none" stroke="rgb(255,255,255)" font-family="geogebra-sans-serif, sans-serif" font-size="16px" font-style="normal" font-weight="normal" text-decoration="normal" x="757" y="314" text-anchor="start" dominant-baseline="alphabetic" stroke-opacity="1" stroke-linejoin="bevel" stroke-miterlimit="10" stroke-width="3">B1</text><text fill="rgb(0,0,255)" stroke="none" font-family="geogebra-sans-serif, sans-serif" font-size="16px" font-style="normal" font-weight="normal" text-decoration="normal" x="757" y="314" text-anchor="start" dominant-baseline="alphabetic" fill-opacity="1">B1</text><text fill="rgb(0,0,0)" stroke="none" font-family="geogebra-sans-serif, sans-serif" font-size="22px" font-style="normal" font-weight="bold" text-decoration="normal" x="686" y="230" text-anchor="start" dominant-baseline="alphabetic" fill-opacity="1">B &gt; C</text><text fill="rgb(0,0,0)" stroke="none" font-family="geogebra-sans-serif, sans-serif" font-size="22px" font-style="normal" font-weight="bold" text-decoration="normal" x="354" y="231" text-anchor="start" dominant-baseline="alphabetic" fill-opacity="1">B &gt; C</text></g></g></svg>