<svg version="1.1" xmlns="http://www.w3.org/2000/svg" xmlns:xlink="http://www.w3.org/1999/xlink" width="986" height="632"><defs><clipPath id="BzZMsQHBDgTU"><path fill="none" stroke="none" d=" M 0 0 L 986 0 L 986 632 L 0 632 L 0 0 Z"/></clipPath></defs><g transform="scale(1,1)" clip-path="url(#BzZMsQHBDgTU)"><g><rect fill="rgb(255,255,255)" stroke="none" x="0" y="0" width="986" height="632" fill-opacity="1"/><path fill="rgb(101,87,210)" stroke="none" paint-order="stroke fill markers" d=" M 231.58529594049003 245.44370040205638 C 223.73199420473568 266.3255987518948 227.30984422743867 289.8125529962892 241.02004308760422 307.37851408781637 L 291.0000000000001 267.9999999999998 Z" fill-opacity="0.4470588235294118"/><path fill="none" stroke="rgb(101,87,210)" paint-order="fill stroke markers" d=" M 231.58529594049003 245.44370040205638 C 223.73199420473568 266.3255987518948 227.30984422743867 289.8125529962892 241.02004308760422 307.37851408781637 L 291.0000000000001 267.9999999999998 Z" stroke-opacity="0.8" stroke-linecap="round" stroke-linejoin="round" stroke-miterlimit="10" stroke-width="2.5"/><path fill="none" stroke="rgb(0,0,0)" paint-order="fill stroke markers" d=" M 575.3140046350248 43.992943401135335 L 0 497.2748595129854" stroke-opacity="0.6980392156862745" stroke-linecap="round" stroke-linejoin="round" stroke-miterlimit="10" stroke-width="2.5"/><path fill="none" stroke="rgb(46,125,50)" paint-order="fill stroke markers" d=" M 52.89422062311985 589.6670490010764 L 529.9050130568017 557.0470461335415" stroke-opacity="0.6980392156862745" stroke-linecap="round" stroke-linejoin="round" stroke-miterlimit="10" stroke-width="2.5"/><path fill="rgb(46,125,50)" stroke="none" paint-order="stroke fill markers" fill-rule="evenodd" d=" M 546.8654025353666 555.8872234163181 L 530.1949687361076 561.2871435031827 L 529.6150573774959 552.8069487639002 Z" fill-opacity="0.6980392156862745"/><path fill="none" stroke="rgb(46,125,50)" paint-order="fill stroke markers" d=" M 546.8654025353666 555.8872234163181 L 904.0486434282734 462.381288970736" stroke-opacity="0.6980392156862745" stroke-linecap="round" stroke-linejoin="round" stroke-miterlimit="10" stroke-width="2.5"/><path fill="rgb(46,125,50)" stroke="none" paint-order="stroke fill markers" fill-rule="evenodd" d=" M 920.4944457339924 458.07599147564827 L 905.1249678020454 466.49273954716574 L 902.9723190545014 458.2698383943063 Z" fill-opacity="0.6980392156862745"/><path fill="none" stroke="rgb(46,125,50)" paint-order="fill stroke markers" d=" M 920.4944457339924 458.07599147564827 L 933.6388451912004 266.2305827017048" stroke-opacity="0.6980392156862745" stroke-linecap="round" stroke-linejoin="round" stroke-miterlimit="10" stroke-width="2.5"/><path fill="rgb(46,125,50)" stroke="none" paint-order="stroke fill markers" fill-rule="evenodd" d=" M 934.8008857125238 249.2703450315894 L 937.8789046087293 266.52109283203566 L 929.3987857736715 265.94007257137395 Z" fill-opacity="0.6980392156862745"/><path fill="none" stroke="rgb(46,125,50)" paint-order="fill stroke markers" d=" M 934.8008857125238 249.2703450315894 L 590.0766789543505 52.42285721691793" stroke-opacity="0.6980392156862745" stroke-linecap="round" stroke-linejoin="round" stroke-miterlimit="10" stroke-width="2.5"/><path fill="rgb(46,125,50)" stroke="none" paint-order="stroke fill markers" fill-rule="evenodd" d=" M 575.3140046350248 43.992943401135335 L 592.1841574082962 48.732188637086516 L 587.9692005004049 56.11352579674935 Z" fill-opacity="0.6980392156862745"/><path fill="none" stroke="rgb(211,47,47)" paint-order="fill stroke markers" d=" M 575.3140046350248 43.992943401135335 L 304.3533108641351 257.47911177866723" stroke-opacity="0.6980392156862745" stroke-linecap="round" stroke-linejoin="round" stroke-miterlimit="10" stroke-width="2.5"/><path fill="rgb(211,47,47)" stroke="none" paint-order="stroke fill markers" fill-rule="evenodd" d=" M 291.0000000000001 267.9999999999998 L 301.72308880880195 254.1407840626335 L 306.98353291946825 260.817439494701 Z" fill-opacity="0.6980392156862745"/><path fill="none" stroke="rgb(46,125,50)" paint-order="fill stroke markers" d=" M 291.0000000000001 267.9999999999998 L 141.20205509097514 211.13045267144844" stroke-opacity="0.6980392156862745" stroke-linecap="round" stroke-linejoin="round" stroke-miterlimit="10" stroke-width="2.5"/><path fill="rgb(46,125,50)" stroke="none" paint-order="stroke fill markers" fill-rule="evenodd" d=" M 125.30884414952249 205.09672695921313 L 142.71048651903396 207.15714993608526 L 139.6936236629163 215.10375540681162 Z" fill-opacity="0.6980392156862745"/><path fill="none" stroke="rgb(211,47,47)" paint-order="fill stroke markers" d=" M 282.0000000000001 258.9999999999998 L 300.0000000000001 276.9999999999998" stroke-opacity="1" stroke-linecap="square" stroke-miterlimit="10" stroke-width="4.5"/><path fill="none" stroke="rgb(211,47,47)" paint-order="fill stroke markers" d=" M 282.0000000000001 276.9999999999998 L 300.0000000000001 258.9999999999998" stroke-opacity="1" stroke-linecap="square" stroke-miterlimit="10" stroke-width="4.5"/><text fill="rgb(211,47,47)" stroke="none" font-family="geogebra-sans-serif, sans-serif" font-size="16px" font-style="normal" font-weight="normal" text-decoration="normal" x="271" y="245" text-anchor="start" dominant-baseline="alphabetic" fill-opacity="1">6</text><text fill="none" stroke="rgb(255,255,255)" font-family="geogebra-sans-serif, sans-serif" font-size="16px" font-style="normal" font-weight="normal" text-decoration="normal" x="271" y="245" text-anchor="start" dominant-baseline="alphabetic" stroke-opacity="1" stroke-linejoin="bevel" stroke-miterlimit="10" stroke-width="3">6</text><text fill="rgb(211,47,47)" stroke="none" font-family="geogebra-sans-serif, sans-serif" font-size="16px" font-style="normal" font-weight="normal" text-decoration="normal" x="271" y="245" text-anchor="start" dominant-baseline="alphabetic" fill-opacity="1">6</text><path fill="rgb(21,101,192)" stroke="none" paint-order="stroke fill markers" d=" M 580.3140046350248 43.992943401135335 C 580.3140046350248 46.7543671502893 578.0754283841788 48.992943401135335 575.3140046350248 48.992943401135335 C 572.5525808858708 48.992943401135335 570.3140046350248 46.7543671502893 570.3140046350248 43.992943401135335 C 570.3140046350248 41.231519651981365 572.5525808858708 38.992943401135335 575.3140046350248 38.992943401135335 C 578.0754283841788 38.992943401135335 580.3140046350248 41.231519651981365 580.3140046350248 43.992943401135335 Z" fill-opacity="1"/><path fill="none" stroke="rgb(0,0,0)" paint-order="fill stroke markers" d=" M 580.3140046350248 43.992943401135335 C 580.3140046350248 46.7543671502893 578.0754283841788 48.992943401135335 575.3140046350248 48.992943401135335 C 572.5525808858708 48.992943401135335 570.3140046350248 46.7543671502893 570.3140046350248 43.992943401135335 C 570.3140046350248 41.231519651981365 572.5525808858708 38.992943401135335 575.3140046350248 38.992943401135335 C 578.0754283841788 38.992943401135335 580.3140046350248 41.231519651981365 580.3140046350248 43.992943401135335 Z" stroke-opacity="1" stroke-linecap="round" stroke-linejoin="round" stroke-miterlimit="10"/><text fill="rgb(21,101,192)" stroke="none" font-family="geogebra-sans-serif, sans-serif" font-size="16px" font-style="normal" font-weight="normal" text-decoration="normal" x="596" y="51" text-anchor="start" dominant-baseline="alphabetic" fill-opacity="1">5</text><text fill="none" stroke="rgb(255,255,255)" font-family="geogebra-sans-serif, sans-serif" font-size="16px" font-style="normal" font-weight="normal" text-decoration="normal" x="596" y="51" text-anchor="start" dominant-baseline="alphabetic" stroke-opacity="1" stroke-linejoin="bevel" stroke-miterlimit="10" stroke-width="3">5</text><text fill="rgb(21,101,192)" stroke="none" font-family="geogebra-sans-serif, sans-serif" font-size="16px" font-style="normal" font-weight="normal" text-decoration="normal" x="596" y="51" text-anchor="start" dominant-baseline="alphabetic" fill-opacity="1">5</text><path fill="rgb(21,101,192)" stroke="none" paint-order="stroke fill markers" d=" M 925.4944457339924 458.07599147564827 C 925.4944457339924 460.8374152248022 923.2558694831464 463.07599147564827 920.4944457339924 463.07599147564827 C 917.7330219848384 463.07599147564827 915.4944457339924 460.8374152248022 915.4944457339924 458.07599147564827 C 915.4944457339924 455.3145677264943 917.7330219848384 453.07599147564827 920.4944457339924 453.07599147564827 C 923.2558694831464 453.07599147564827 925.4944457339924 455.3145677264943 925.4944457339924 458.07599147564827 Z" fill-opacity="1"/><path fill="none" stroke="rgb(0,0,0)" paint-order="fill stroke markers" d=" M 925.4944457339924 458.07599147564827 C 925.4944457339924 460.8374152248022 923.2558694831464 463.07599147564827 920.4944457339924 463.07599147564827 C 917.7330219848384 463.07599147564827 915.4944457339924 460.8374152248022 915.4944457339924 458.07599147564827 C 915.4944457339924 455.3145677264943 917.7330219848384 453.07599147564827 920.4944457339924 453.07599147564827 C 923.2558694831464 453.07599147564827 925.4944457339924 455.3145677264943 925.4944457339924 458.07599147564827 Z" stroke-opacity="1" stroke-linecap="round" stroke-linejoin="round" stroke-miterlimit="10"/><text fill="rgb(21,101,192)" stroke="none" font-family="geogebra-sans-serif, sans-serif" font-size="16px" font-style="normal" font-weight="normal" text-decoration="normal" x="924" y="448" text-anchor="start" dominant-baseline="alphabetic" fill-opacity="1">2</text><text fill="none" stroke="rgb(255,255,255)" font-family="geogebra-sans-serif, sans-serif" font-size="16px" font-style="normal" font-weight="normal" text-decoration="normal" x="924" y="448" text-anchor="start" dominant-baseline="alphabetic" stroke-opacity="1" stroke-linejoin="bevel" stroke-miterlimit="10" stroke-width="3">2</text><text fill="rgb(21,101,192)" stroke="none" font-family="geogebra-sans-serif, sans-serif" font-size="16px" font-style="normal" font-weight="normal" text-decoration="normal" x="924" y="448" text-anchor="start" dominant-baseline="alphabetic" fill-opacity="1">2</text><path fill="rgb(21,101,192)" stroke="none" paint-order="stroke fill markers" d=" M 939.8008857125238 249.2703450315894 C 939.8008857125238 252.03176878074336 937.5623094616778 254.2703450315894 934.8008857125238 254.2703450315894 C 932.0394619633698 254.2703450315894 929.8008857125238 252.03176878074336 929.8008857125238 249.2703450315894 C 929.8008857125238 246.5089212824354 932.0394619633698 244.2703450315894 934.8008857125238 244.2703450315894 C 937.5623094616778 244.2703450315894 939.8008857125238 246.5089212824354 939.8008857125238 249.2703450315894 Z" fill-opacity="1"/><path fill="none" stroke="rgb(0,0,0)" paint-order="fill stroke markers" d=" M 939.8008857125238 249.2703450315894 C 939.8008857125238 252.03176878074336 937.5623094616778 254.2703450315894 934.8008857125238 254.2703450315894 C 932.0394619633698 254.2703450315894 929.8008857125238 252.03176878074336 929.8008857125238 249.2703450315894 C 929.8008857125238 246.5089212824354 932.0394619633698 244.2703450315894 934.8008857125238 244.2703450315894 C 937.5623094616778 244.2703450315894 939.8008857125238 246.5089212824354 939.8008857125238 249.2703450315894 Z" stroke-opacity="1" stroke-linecap="round" stroke-linejoin="round" stroke-miterlimit="10"/><text fill="rgb(21,101,192)" stroke="none" font-family="geogebra-sans-serif, sans-serif" font-size="16px" font-style="normal" font-weight="normal" text-decoration="normal" x="939" y="239" text-anchor="start" dominant-baseline="alphabetic" fill-opacity="1">3</text><text fill="none" stroke="rgb(255,255,255)" font-family="geogebra-sans-serif, sans-serif" font-size="16px" font-style="normal" font-weight="normal" text-decoration="normal" x="939" y="239" text-anchor="start" dominant-baseline="alphabetic" stroke-opacity="1" stroke-linejoin="bevel" stroke-miterlimit="10" stroke-width="3">3</text><text fill="rgb(21,101,192)" stroke="none" font-family="geogebra-sans-serif, sans-serif" font-size="16px" font-style="normal" font-weight="normal" text-decoration="normal" x="939" y="239" text-anchor="start" dominant-baseline="alphabetic" fill-opacity="1">3</text><path fill="rgb(21,101,192)" stroke="none" paint-order="stroke fill markers" d=" M 130.30884414952249 205.09672695921313 C 130.30884414952249 207.8581507083671 128.07026789867646 210.09672695921313 125.30884414952249 210.09672695921313 C 122.54742040036852 210.09672695921313 120.30884414952249 207.8581507083671 120.30884414952249 205.09672695921313 C 120.30884414952249 202.33530321005915 122.54742040036852 200.09672695921313 125.30884414952249 200.09672695921313 C 128.07026789867646 200.09672695921313 130.30884414952249 202.33530321005915 130.30884414952249 205.09672695921313 Z" fill-opacity="1"/><path fill="none" stroke="rgb(0,0,0)" paint-order="fill stroke markers" d=" M 130.30884414952249 205.09672695921313 C 130.30884414952249 207.8581507083671 128.07026789867646 210.09672695921313 125.30884414952249 210.09672695921313 C 122.54742040036852 210.09672695921313 120.30884414952249 207.8581507083671 120.30884414952249 205.09672695921313 C 120.30884414952249 202.33530321005915 122.54742040036852 200.09672695921313 125.30884414952249 200.09672695921313 C 128.07026789867646 200.09672695921313 130.30884414952249 202.33530321005915 130.30884414952249 205.09672695921313 Z" stroke-opacity="1" stroke-linecap="round" stroke-linejoin="round" stroke-miterlimit="10"/><text fill="rgb(21,101,192)" stroke="none" font-family="geogebra-sans-serif, sans-serif" font-size="16px" font-style="normal" font-weight="normal" text-decoration="normal" x="102" y="202" text-anchor="start" dominant-baseline="alphabetic" fill-opacity="1">7</text><text fill="none" stroke="rgb(255,255,255)" font-family="geogebra-sans-serif, sans-serif" font-size="16px" font-style="normal" font-weight="normal" text-decoration="normal" x="102" y="202" text-anchor="start" dominant-baseline="alphabetic" stroke-opacity="1" stroke-linejoin="bevel" stroke-miterlimit="10" stroke-width="3">7</text><text fill="rgb(21,101,192)" stroke="none" font-family="geogebra-sans-serif, sans-serif" font-size="16px" font-style="normal" font-weight="normal" text-decoration="normal" x="102" y="202" text-anchor="start" dominant-baseline="alphabetic" fill-opacity="1">7</text><path fill="rgb(21,101,192)" stroke="none" paint-order="stroke fill markers" d=" M 551.8654025353666 555.8872234163181 C 551.8654025353666 558.6486471654721 549.6268262845206 560.8872234163181 546.8654025353666 560.8872234163181 C 544.1039787862126 560.8872234163181 541.8654025353666 558.6486471654721 541.8654025353666 555.8872234163181 C 541.8654025353666 553.1257996671641 544.1039787862126 550.8872234163181 546.8654025353666 550.8872234163181 C 549.6268262845206 550.8872234163181 551.8654025353666 553.1257996671641 551.8654025353666 555.8872234163181 Z" fill-opacity="1"/><path fill="none" stroke="rgb(0,0,0)" paint-order="fill stroke markers" d=" M 551.8654025353666 555.8872234163181 C 551.8654025353666 558.6486471654721 549.6268262845206 560.8872234163181 546.8654025353666 560.8872234163181 C 544.1039787862126 560.8872234163181 541.8654025353666 558.6486471654721 541.8654025353666 555.8872234163181 C 541.8654025353666 553.1257996671641 544.1039787862126 550.8872234163181 546.8654025353666 550.8872234163181 C 549.6268262845206 550.8872234163181 551.8654025353666 553.1257996671641 551.8654025353666 555.8872234163181 Z" stroke-opacity="1" stroke-linecap="round" stroke-linejoin="round" stroke-miterlimit="10"/><text fill="rgb(21,101,192)" stroke="none" font-family="geogebra-sans-serif, sans-serif" font-size="16px" font-style="normal" font-weight="normal" text-decoration="normal" x="551" y="546" text-anchor="start" dominant-baseline="alphabetic" fill-opacity="1">1</text><text fill="none" stroke="rgb(255,255,255)" font-family="geogebra-sans-serif, sans-serif" font-size="16px" font-style="normal" font-weight="normal" text-decoration="normal" x="551" y="546" text-anchor="start" dominant-baseline="alphabetic" stroke-opacity="1" stroke-linejoin="bevel" stroke-miterlimit="10" stroke-width="3">1</text><text fill="rgb(21,101,192)" stroke="none" font-family="geogebra-sans-serif, sans-serif" font-size="16px" font-style="normal" font-weight="normal" text-decoration="normal" x="551" y="546" text-anchor="start" dominant-baseline="alphabetic" fill-opacity="1">1</text><path fill="none" stroke="rgb(211,47,47)" paint-order="fill stroke markers" d=" M 47.89422062311985 584.6670490010764 L 57.89422062311985 594.6670490010764" stroke-opacity="1" stroke-linecap="square" stroke-miterlimit="10" stroke-width="2.5"/><path fill="none" stroke="rgb(211,47,47)" paint-order="fill stroke markers" d=" M 47.89422062311985 594.6670490010764 L 57.89422062311985 584.6670490010764" stroke-opacity="1" stroke-linecap="square" stroke-miterlimit="10" stroke-width="2.5"/><text fill="rgb(211,47,47)" stroke="none" font-family="geogebra-sans-serif, sans-serif" font-size="16px" font-style="normal" font-weight="normal" text-decoration="normal" x="32" y="577" text-anchor="start" dominant-baseline="alphabetic" fill-opacity="1">0</text><text fill="none" stroke="rgb(255,255,255)" font-family="geogebra-sans-serif, sans-serif" font-size="16px" font-style="normal" font-weight="normal" text-decoration="normal" x="32" y="577" text-anchor="start" dominant-baseline="alphabetic" stroke-opacity="1" stroke-linejoin="bevel" stroke-miterlimit="10" stroke-width="3">0</text><text fill="rgb(211,47,47)" stroke="none" font-family="geogebra-sans-serif, sans-serif" font-size="16px" font-style="normal" font-weight="normal" text-decoration="normal" x="32" y="577" text-anchor="start" dominant-baseline="alphabetic" fill-opacity="1">0</text><path fill="rgb(21,101,192)" stroke="none" paint-order="stroke fill markers" d=" M 232.5852959404899 245.4437004020565 C 232.5852959404899 245.99598515188728 232.1375806903207 246.4437004020565 231.5852959404899 246.4437004020565 C 231.03301119065912 246.4437004020565 230.5852959404899 245.99598515188728 230.5852959404899 245.4437004020565 C 230.5852959404899 244.8914156522257 231.03301119065912 244.4437004020565 231.5852959404899 244.4437004020565 C 232.1375806903207 244.4437004020565 232.5852959404899 244.8914156522257 232.5852959404899 245.4437004020565 Z" fill-opacity="1"/><path fill="none" stroke="rgb(0,0,0)" paint-order="fill stroke markers" d=" M 232.5852959404899 245.4437004020565 C 232.5852959404899 245.99598515188728 232.1375806903207 246.4437004020565 231.5852959404899 246.4437004020565 C 231.03301119065912 246.4437004020565 230.5852959404899 245.99598515188728 230.5852959404899 245.4437004020565 C 230.5852959404899 244.8914156522257 231.03301119065912 244.4437004020565 231.5852959404899 244.4437004020565 C 232.1375806903207 244.4437004020565 232.5852959404899 244.8914156522257 232.5852959404899 245.4437004020565 Z" stroke-opacity="1" stroke-linecap="round" stroke-linejoin="round" stroke-miterlimit="10"/><path fill="rgb(21,101,192)" stroke="none" paint-order="stroke fill markers" d=" M 240.74067469078818 308.38651068384854 C 240.74067469078818 308.93879543367933 240.29295944061897 309.38651068384854 239.74067469078818 309.38651068384854 C 239.1883899409574 309.38651068384854 238.74067469078818 308.93879543367933 238.74067469078818 308.38651068384854 C 238.74067469078818 307.83422593401775 239.1883899409574 307.38651068384854 239.74067469078818 307.38651068384854 C 240.29295944061897 307.38651068384854 240.74067469078818 307.83422593401775 240.74067469078818 308.38651068384854 Z" fill-opacity="1"/><path fill="none" stroke="rgb(0,0,0)" paint-order="fill stroke markers" d=" M 240.74067469078818 308.38651068384854 C 240.74067469078818 308.93879543367933 240.29295944061897 309.38651068384854 239.74067469078818 309.38651068384854 C 239.1883899409574 309.38651068384854 238.74067469078818 308.93879543367933 238.74067469078818 308.38651068384854 C 238.74067469078818 307.83422593401775 239.1883899409574 307.38651068384854 239.74067469078818 307.38651068384854 C 240.29295944061897 307.38651068384854 240.74067469078818 307.83422593401775 240.74067469078818 308.38651068384854 Z" stroke-opacity="1" stroke-linecap="round" stroke-linejoin="round" stroke-miterlimit="10"/></g></g></svg>