<svg version="1.1" xmlns="http://www.w3.org/2000/svg" xmlns:xlink="http://www.w3.org/1999/xlink" width="986" height="632"><defs><clipPath id="TssHQgZzzdwW"><path fill="none" stroke="none" d=" M 0 0 L 986 0 L 986 632 L 0 632 L 0 0 Z"/></clipPath></defs><g transform="scale(1,1)" clip-path="url(#TssHQgZzzdwW)"><g><rect fill="rgb(255,255,255)" stroke="none" x="0" y="0" width="986" height="632" fill-opacity="1"/><path fill="rgb(21,101,192)" stroke="none" paint-order="stroke fill markers" d=" M 161.62626530900013 121.92926944170947 C 137.64740612673873 142.22960124563213 126.65724787832106 171.05095373047214 132.08922442098344 199.3892520507158 C 137.52120096364587 227.72755037095948 158.71301767859495 252.127642919111 189.0441419619504 264.9667000706211 L 236.22370600687623 185.08293269065112 Z" fill-opacity="0.09803921568627451"/><path fill="none" stroke="rgb(21,101,192)" paint-order="fill stroke markers" d=" M 161.62626530900013 121.92926944170947 C 137.64740612673873 142.22960124563213 126.65724787832106 171.05095373047214 132.08922442098344 199.3892520507158 C 137.52120096364587 227.72755037095948 158.71301767859495 252.127642919111 189.0441419619504 264.9667000706211 L 236.22370600687623 185.08293269065112 Z" stroke-opacity="0.8" stroke-linecap="round" stroke-linejoin="round" stroke-miterlimit="10" stroke-width="2.5"/><path fill="rgb(21,101,192)" stroke="none" paint-order="stroke fill markers" d=" M 700.3075488426042 290.8838932394663 C 754.099579126526 313.65386855126275 819.0670993704772 304.7284283081594 861.5934332859639 268.72593618261976 L 762.7938756389428 185.08293269065112 Z" fill-opacity="0.09803921568627451"/><path fill="none" stroke="rgb(21,101,192)" paint-order="fill stroke markers" d=" M 700.3075488426042 290.8838932394663 C 754.099579126526 313.65386855126275 819.0670993704772 304.7284283081594 861.5934332859639 268.72593618261976 L 762.7938756389428 185.08293269065112 Z" stroke-opacity="0.8" stroke-linecap="round" stroke-linejoin="round" stroke-miterlimit="10" stroke-width="2.5"/><path fill="none" stroke="rgb(0,0,0)" paint-order="fill stroke markers" d=" M 60.70031612952073 482.27664209743546 L 227.57863271185397 199.72064794009128" stroke-opacity="0.6980392156862745" stroke-linecap="round" stroke-linejoin="round" stroke-miterlimit="10" stroke-width="2.5"/><path fill="rgb(0,0,0)" stroke="none" paint-order="stroke fill markers" fill-rule="evenodd" d=" M 236.22370600687623 185.08293269065112 L 231.238061524214 201.88191626384685 L 223.91920389949394 197.55937961633572 Z" fill-opacity="0.6980392156862745"/><path fill="none" stroke="rgb(0,0,0)" paint-order="fill stroke markers" d=" M 236.22370600687623 185.08293269065112 L 73.67507356928829 47.470415444711584" stroke-opacity="0.6980392156862745" stroke-linecap="round" stroke-linejoin="round" stroke-miterlimit="10" stroke-width="2.5"/><path fill="rgb(0,0,0)" stroke="none" paint-order="stroke fill markers" fill-rule="evenodd" d=" M 60.70031612952073 36.486077987258966 L 76.42115793365144 44.226726084769695 L 70.92898920492513 50.71410480465347 Z" fill-opacity="0.6980392156862745"/><path fill="none" stroke="rgb(0,0,0)" paint-order="fill stroke markers" d=" M 587.2704857615873 482.27664209743546 L 754.1488023439206 199.72064794009128" stroke-opacity="0.6980392156862745" stroke-linecap="round" stroke-linejoin="round" stroke-miterlimit="10" stroke-width="2.5"/><path fill="rgb(0,0,0)" stroke="none" paint-order="stroke fill markers" fill-rule="evenodd" d=" M 762.7938756389428 185.08293269065112 L 757.8082311562806 201.88191626384685 L 750.4893735315605 197.55937961633572 Z" fill-opacity="0.6980392156862745"/><path fill="none" stroke="rgb(0,0,0)" paint-order="fill stroke markers" d=" M 762.7938756389428 185.08293269065112 L 925.3425080765309 322.69544993659065" stroke-opacity="0.6980392156862745" stroke-linecap="round" stroke-linejoin="round" stroke-miterlimit="10" stroke-width="2.5"/><path fill="rgb(0,0,0)" stroke="none" paint-order="stroke fill markers" fill-rule="evenodd" d=" M 938.3172655162984 333.6797873940433 L 922.5964237121677 325.9391392965325 L 928.088592440894 319.4517605766488 Z" fill-opacity="0.6980392156862745"/><path fill="rgb(21,101,192)" stroke="none" paint-order="stroke fill markers" d=" M 65.70031612952073 482.27664209743546 C 65.70031612952073 485.0380658465894 63.46173987867469 487.27664209743546 60.70031612952073 487.27664209743546 C 57.93889238036676 487.27664209743546 55.70031612952073 485.0380658465894 55.70031612952073 482.27664209743546 C 55.70031612952073 479.5152183482815 57.93889238036676 477.27664209743546 60.70031612952073 477.27664209743546 C 63.46173987867469 477.27664209743546 65.70031612952073 479.5152183482815 65.70031612952073 482.27664209743546 Z" fill-opacity="1"/><path fill="none" stroke="rgb(0,0,0)" paint-order="fill stroke markers" d=" M 65.70031612952073 482.27664209743546 C 65.70031612952073 485.0380658465894 63.46173987867469 487.27664209743546 60.70031612952073 487.27664209743546 C 57.93889238036676 487.27664209743546 55.70031612952073 485.0380658465894 55.70031612952073 482.27664209743546 C 55.70031612952073 479.5152183482815 57.93889238036676 477.27664209743546 60.70031612952073 477.27664209743546 C 63.46173987867469 477.27664209743546 65.70031612952073 479.5152183482815 65.70031612952073 482.27664209743546 Z" stroke-opacity="1" stroke-linecap="round" stroke-linejoin="round" stroke-miterlimit="10"/><text fill="rgb(21,101,192)" stroke="none" font-family="geogebra-sans-serif, sans-serif" font-size="16px" font-style="normal" font-weight="normal" text-decoration="normal" x="74" y="487" text-anchor="start" dominant-baseline="alphabetic" fill-opacity="1">A</text><text fill="none" stroke="rgb(255,255,255)" font-family="geogebra-sans-serif, sans-serif" font-size="16px" font-style="normal" font-weight="normal" text-decoration="normal" x="74" y="487" text-anchor="start" dominant-baseline="alphabetic" stroke-opacity="1" stroke-linejoin="bevel" stroke-miterlimit="10" stroke-width="3">A</text><text fill="rgb(21,101,192)" stroke="none" font-family="geogebra-sans-serif, sans-serif" font-size="16px" font-style="normal" font-weight="normal" text-decoration="normal" x="74" y="487" text-anchor="start" dominant-baseline="alphabetic" fill-opacity="1">A</text><path fill="rgb(21,101,192)" stroke="none" paint-order="stroke fill markers" d=" M 241.22370600687623 185.08293269065112 C 241.22370600687623 187.8443564398051 238.9851297560302 190.08293269065112 236.22370600687623 190.08293269065112 C 233.46228225772225 190.08293269065112 231.22370600687623 187.8443564398051 231.22370600687623 185.08293269065112 C 231.22370600687623 182.32150894149714 233.46228225772225 180.08293269065112 236.22370600687623 180.08293269065112 C 238.9851297560302 180.08293269065112 241.22370600687623 182.32150894149714 241.22370600687623 185.08293269065112 Z" fill-opacity="1"/><path fill="none" stroke="rgb(0,0,0)" paint-order="fill stroke markers" d=" M 241.22370600687623 185.08293269065112 C 241.22370600687623 187.8443564398051 238.9851297560302 190.08293269065112 236.22370600687623 190.08293269065112 C 233.46228225772225 190.08293269065112 231.22370600687623 187.8443564398051 231.22370600687623 185.08293269065112 C 231.22370600687623 182.32150894149714 233.46228225772225 180.08293269065112 236.22370600687623 180.08293269065112 C 238.9851297560302 180.08293269065112 241.22370600687623 182.32150894149714 241.22370600687623 185.08293269065112 Z" stroke-opacity="1" stroke-linecap="round" stroke-linejoin="round" stroke-miterlimit="10"/><text fill="rgb(21,101,192)" stroke="none" font-family="geogebra-sans-serif, sans-serif" font-size="16px" font-style="normal" font-weight="normal" text-decoration="normal" x="245" y="190" text-anchor="start" dominant-baseline="alphabetic" fill-opacity="1">B</text><text fill="none" stroke="rgb(255,255,255)" font-family="geogebra-sans-serif, sans-serif" font-size="16px" font-style="normal" font-weight="normal" text-decoration="normal" x="245" y="190" text-anchor="start" dominant-baseline="alphabetic" stroke-opacity="1" stroke-linejoin="bevel" stroke-miterlimit="10" stroke-width="3">B</text><text fill="rgb(21,101,192)" stroke="none" font-family="geogebra-sans-serif, sans-serif" font-size="16px" font-style="normal" font-weight="normal" text-decoration="normal" x="245" y="190" text-anchor="start" dominant-baseline="alphabetic" fill-opacity="1">B</text><path fill="rgb(21,101,192)" stroke="none" paint-order="stroke fill markers" d=" M 65.70031612952073 36.486077987258966 C 65.70031612952073 39.24750173641293 63.46173987867469 41.486077987258966 60.70031612952073 41.486077987258966 C 57.93889238036676 41.486077987258966 55.70031612952073 39.24750173641293 55.70031612952073 36.486077987258966 C 55.70031612952073 33.724654238104996 57.93889238036676 31.486077987258966 60.70031612952073 31.486077987258966 C 63.46173987867469 31.486077987258966 65.70031612952073 33.724654238104996 65.70031612952073 36.486077987258966 Z" fill-opacity="1"/><path fill="none" stroke="rgb(0,0,0)" paint-order="fill stroke markers" d=" M 65.70031612952073 36.486077987258966 C 65.70031612952073 39.24750173641293 63.46173987867469 41.486077987258966 60.70031612952073 41.486077987258966 C 57.93889238036676 41.486077987258966 55.70031612952073 39.24750173641293 55.70031612952073 36.486077987258966 C 55.70031612952073 33.724654238104996 57.93889238036676 31.486077987258966 60.70031612952073 31.486077987258966 C 63.46173987867469 31.486077987258966 65.70031612952073 33.724654238104996 65.70031612952073 36.486077987258966 Z" stroke-opacity="1" stroke-linecap="round" stroke-linejoin="round" stroke-miterlimit="10"/><text fill="rgb(21,101,192)" stroke="none" font-family="geogebra-sans-serif, sans-serif" font-size="16px" font-style="normal" font-weight="normal" text-decoration="normal" x="55" y="28" text-anchor="start" dominant-baseline="alphabetic" fill-opacity="1">C</text><text fill="none" stroke="rgb(255,255,255)" font-family="geogebra-sans-serif, sans-serif" font-size="16px" font-style="normal" font-weight="normal" text-decoration="normal" x="55" y="28" text-anchor="start" dominant-baseline="alphabetic" stroke-opacity="1" stroke-linejoin="bevel" stroke-miterlimit="10" stroke-width="3">C</text><text fill="rgb(21,101,192)" stroke="none" font-family="geogebra-sans-serif, sans-serif" font-size="16px" font-style="normal" font-weight="normal" text-decoration="normal" x="55" y="28" text-anchor="start" dominant-baseline="alphabetic" fill-opacity="1">C</text><path fill="rgb(21,101,192)" stroke="none" paint-order="stroke fill markers" d=" M 592.2704857615873 482.27664209743546 C 592.2704857615873 485.0380658465894 590.0319095107413 487.27664209743546 587.2704857615873 487.27664209743546 C 584.5090620124333 487.27664209743546 582.2704857615873 485.0380658465894 582.2704857615873 482.27664209743546 C 582.2704857615873 479.5152183482815 584.5090620124333 477.27664209743546 587.2704857615873 477.27664209743546 C 590.0319095107413 477.27664209743546 592.2704857615873 479.5152183482815 592.2704857615873 482.27664209743546 Z" fill-opacity="1"/><path fill="none" stroke="rgb(0,0,0)" paint-order="fill stroke markers" d=" M 592.2704857615873 482.27664209743546 C 592.2704857615873 485.0380658465894 590.0319095107413 487.27664209743546 587.2704857615873 487.27664209743546 C 584.5090620124333 487.27664209743546 582.2704857615873 485.0380658465894 582.2704857615873 482.27664209743546 C 582.2704857615873 479.5152183482815 584.5090620124333 477.27664209743546 587.2704857615873 477.27664209743546 C 590.0319095107413 477.27664209743546 592.2704857615873 479.5152183482815 592.2704857615873 482.27664209743546 Z" stroke-opacity="1" stroke-linecap="round" stroke-linejoin="round" stroke-miterlimit="10"/><text fill="rgb(21,101,192)" stroke="none" font-family="geogebra-sans-serif, sans-serif" font-size="16px" font-style="normal" font-weight="normal" text-decoration="normal" x="598" y="486" text-anchor="start" dominant-baseline="alphabetic" fill-opacity="1">A</text><text fill="none" stroke="rgb(255,255,255)" font-family="geogebra-sans-serif, sans-serif" font-size="16px" font-style="normal" font-weight="normal" text-decoration="normal" x="598" y="486" text-anchor="start" dominant-baseline="alphabetic" stroke-opacity="1" stroke-linejoin="bevel" stroke-miterlimit="10" stroke-width="3">A</text><text fill="rgb(21,101,192)" stroke="none" font-family="geogebra-sans-serif, sans-serif" font-size="16px" font-style="normal" font-weight="normal" text-decoration="normal" x="598" y="486" text-anchor="start" dominant-baseline="alphabetic" fill-opacity="1">A</text><text fill="rgb(21,101,192)" stroke="none" font-family="geogebra-sans-serif, sans-serif" font-size="14px" font-style="normal" font-weight="normal" text-decoration="normal" x="609" y="493" text-anchor="start" dominant-baseline="alphabetic" fill-opacity="1">1</text><text fill="none" stroke="rgb(255,255,255)" font-family="geogebra-sans-serif, sans-serif" font-size="14px" font-style="normal" font-weight="normal" text-decoration="normal" x="609" y="493" text-anchor="start" dominant-baseline="alphabetic" stroke-opacity="1" stroke-linejoin="bevel" stroke-miterlimit="10" stroke-width="3">1</text><text fill="rgb(21,101,192)" stroke="none" font-family="geogebra-sans-serif, sans-serif" font-size="14px" font-style="normal" font-weight="normal" text-decoration="normal" x="609" y="493" text-anchor="start" dominant-baseline="alphabetic" fill-opacity="1">1</text><path fill="rgb(21,101,192)" stroke="none" paint-order="stroke fill markers" d=" M 767.7938756389428 185.08293269065112 C 767.7938756389428 187.8443564398051 765.5552993880968 190.08293269065112 762.7938756389428 190.08293269065112 C 760.0324518897888 190.08293269065112 757.7938756389428 187.8443564398051 757.7938756389428 185.08293269065112 C 757.7938756389428 182.32150894149714 760.0324518897888 180.08293269065112 762.7938756389428 180.08293269065112 C 765.5552993880968 180.08293269065112 767.7938756389428 182.32150894149714 767.7938756389428 185.08293269065112 Z" fill-opacity="1"/><path fill="none" stroke="rgb(0,0,0)" paint-order="fill stroke markers" d=" M 767.7938756389428 185.08293269065112 C 767.7938756389428 187.8443564398051 765.5552993880968 190.08293269065112 762.7938756389428 190.08293269065112 C 760.0324518897888 190.08293269065112 757.7938756389428 187.8443564398051 757.7938756389428 185.08293269065112 C 757.7938756389428 182.32150894149714 760.0324518897888 180.08293269065112 762.7938756389428 180.08293269065112 C 765.5552993880968 180.08293269065112 767.7938756389428 182.32150894149714 767.7938756389428 185.08293269065112 Z" stroke-opacity="1" stroke-linecap="round" stroke-linejoin="round" stroke-miterlimit="10"/><text fill="rgb(21,101,192)" stroke="none" font-family="geogebra-sans-serif, sans-serif" font-size="16px" font-style="normal" font-weight="normal" text-decoration="normal" x="767" y="175" text-anchor="start" dominant-baseline="alphabetic" fill-opacity="1">B</text><text fill="none" stroke="rgb(255,255,255)" font-family="geogebra-sans-serif, sans-serif" font-size="16px" font-style="normal" font-weight="normal" text-decoration="normal" x="767" y="175" text-anchor="start" dominant-baseline="alphabetic" stroke-opacity="1" stroke-linejoin="bevel" stroke-miterlimit="10" stroke-width="3">B</text><text fill="rgb(21,101,192)" stroke="none" font-family="geogebra-sans-serif, sans-serif" font-size="16px" font-style="normal" font-weight="normal" text-decoration="normal" x="767" y="175" text-anchor="start" dominant-baseline="alphabetic" fill-opacity="1">B</text><text fill="rgb(21,101,192)" stroke="none" font-family="geogebra-sans-serif, sans-serif" font-size="14px" font-style="normal" font-weight="normal" text-decoration="normal" x="778" y="182" text-anchor="start" dominant-baseline="alphabetic" fill-opacity="1">1</text><text fill="none" stroke="rgb(255,255,255)" font-family="geogebra-sans-serif, sans-serif" font-size="14px" font-style="normal" font-weight="normal" text-decoration="normal" x="778" y="182" text-anchor="start" dominant-baseline="alphabetic" stroke-opacity="1" stroke-linejoin="bevel" stroke-miterlimit="10" stroke-width="3">1</text><text fill="rgb(21,101,192)" stroke="none" font-family="geogebra-sans-serif, sans-serif" font-size="14px" font-style="normal" font-weight="normal" text-decoration="normal" x="778" y="182" text-anchor="start" dominant-baseline="alphabetic" fill-opacity="1">1</text><path fill="rgb(21,101,192)" stroke="none" paint-order="stroke fill markers" d=" M 943.3172655162984 333.6797873940433 C 943.3172655162984 336.4412111431972 941.0786892654525 338.6797873940433 938.3172655162984 338.6797873940433 C 935.5558417671444 338.6797873940433 933.3172655162984 336.4412111431972 933.3172655162984 333.6797873940433 C 933.3172655162984 330.9183636448893 935.5558417671444 328.6797873940433 938.3172655162984 328.6797873940433 C 941.0786892654525 328.6797873940433 943.3172655162984 330.9183636448893 943.3172655162984 333.6797873940433 Z" fill-opacity="1"/><path fill="none" stroke="rgb(0,0,0)" paint-order="fill stroke markers" d=" M 943.3172655162984 333.6797873940433 C 943.3172655162984 336.4412111431972 941.0786892654525 338.6797873940433 938.3172655162984 338.6797873940433 C 935.5558417671444 338.6797873940433 933.3172655162984 336.4412111431972 933.3172655162984 333.6797873940433 C 933.3172655162984 330.9183636448893 935.5558417671444 328.6797873940433 938.3172655162984 328.6797873940433 C 941.0786892654525 328.6797873940433 943.3172655162984 330.9183636448893 943.3172655162984 333.6797873940433 Z" stroke-opacity="1" stroke-linecap="round" stroke-linejoin="round" stroke-miterlimit="10"/><text fill="rgb(21,101,192)" stroke="none" font-family="geogebra-sans-serif, sans-serif" font-size="16px" font-style="normal" font-weight="normal" text-decoration="normal" x="942" y="324" text-anchor="start" dominant-baseline="alphabetic" fill-opacity="1">C</text><text fill="none" stroke="rgb(255,255,255)" font-family="geogebra-sans-serif, sans-serif" font-size="16px" font-style="normal" font-weight="normal" text-decoration="normal" x="942" y="324" text-anchor="start" dominant-baseline="alphabetic" stroke-opacity="1" stroke-linejoin="bevel" stroke-miterlimit="10" stroke-width="3">C</text><text fill="rgb(21,101,192)" stroke="none" font-family="geogebra-sans-serif, sans-serif" font-size="16px" font-style="normal" font-weight="normal" text-decoration="normal" x="942" y="324" text-anchor="start" dominant-baseline="alphabetic" fill-opacity="1">C</text><text fill="rgb(21,101,192)" stroke="none" font-family="geogebra-sans-serif, sans-serif" font-size="14px" font-style="normal" font-weight="normal" text-decoration="normal" x="954" y="331" text-anchor="start" dominant-baseline="alphabetic" fill-opacity="1">1</text><text fill="none" stroke="rgb(255,255,255)" font-family="geogebra-sans-serif, sans-serif" font-size="14px" font-style="normal" font-weight="normal" text-decoration="normal" x="954" y="331" text-anchor="start" dominant-baseline="alphabetic" stroke-opacity="1" stroke-linejoin="bevel" stroke-miterlimit="10" stroke-width="3">1</text><text fill="rgb(21,101,192)" stroke="none" font-family="geogebra-sans-serif, sans-serif" font-size="14px" font-style="normal" font-weight="normal" text-decoration="normal" x="954" y="331" text-anchor="start" dominant-baseline="alphabetic" fill-opacity="1">1</text><path fill="rgb(21,101,192)" stroke="none" paint-order="stroke fill markers" d=" M 162.62626530900013 121.9292694417095 C 162.62626530900013 122.48155419154028 162.17855005883092 122.9292694417095 161.62626530900013 122.9292694417095 C 161.07398055916934 122.9292694417095 160.62626530900013 122.48155419154028 160.62626530900013 121.9292694417095 C 160.62626530900013 121.3769846918787 161.07398055916934 120.9292694417095 161.62626530900013 120.9292694417095 C 162.17855005883092 120.9292694417095 162.62626530900013 121.3769846918787 162.62626530900013 121.9292694417095 Z" fill-opacity="1"/><path fill="none" stroke="rgb(0,0,0)" paint-order="fill stroke markers" d=" M 162.62626530900013 121.9292694417095 C 162.62626530900013 122.48155419154028 162.17855005883092 122.9292694417095 161.62626530900013 122.9292694417095 C 161.07398055916934 122.9292694417095 160.62626530900013 122.48155419154028 160.62626530900013 121.9292694417095 C 160.62626530900013 121.3769846918787 161.07398055916934 120.9292694417095 161.62626530900013 120.9292694417095 C 162.17855005883092 120.9292694417095 162.62626530900013 121.3769846918787 162.62626530900013 121.9292694417095 Z" stroke-opacity="1" stroke-linecap="round" stroke-linejoin="round" stroke-miterlimit="10"/><path fill="rgb(21,101,192)" stroke="none" paint-order="stroke fill markers" d=" M 187.3750632817073 269.48594616217787 C 187.3750632817073 270.03823091200866 186.9273480315381 270.48594616217787 186.3750632817073 270.48594616217787 C 185.8227785318765 270.48594616217787 185.3750632817073 270.03823091200866 185.3750632817073 269.48594616217787 C 185.3750632817073 268.9336614123471 185.8227785318765 268.48594616217787 186.3750632817073 268.48594616217787 C 186.9273480315381 268.48594616217787 187.3750632817073 268.9336614123471 187.3750632817073 269.48594616217787 Z" fill-opacity="1"/><path fill="none" stroke="rgb(0,0,0)" paint-order="fill stroke markers" d=" M 187.3750632817073 269.48594616217787 C 187.3750632817073 270.03823091200866 186.9273480315381 270.48594616217787 186.3750632817073 270.48594616217787 C 185.8227785318765 270.48594616217787 185.3750632817073 270.03823091200866 185.3750632817073 269.48594616217787 C 185.3750632817073 268.9336614123471 185.8227785318765 268.48594616217787 186.3750632817073 268.48594616217787 C 186.9273480315381 268.48594616217787 187.3750632817073 268.9336614123471 187.3750632817073 269.48594616217787 Z" stroke-opacity="1" stroke-linecap="round" stroke-linejoin="round" stroke-miterlimit="10"/><path fill="rgb(21,101,192)" stroke="none" paint-order="stroke fill markers" d=" M 701.3075488426043 290.8838932394663 C 701.3075488426043 291.4361779892971 700.8598335924352 291.8838932394663 700.3075488426043 291.8838932394663 C 699.7552640927735 291.8838932394663 699.3075488426043 291.4361779892971 699.3075488426043 290.8838932394663 C 699.3075488426043 290.3316084896355 699.7552640927735 289.8838932394663 700.3075488426043 289.8838932394663 C 700.8598335924352 289.8838932394663 701.3075488426043 290.3316084896355 701.3075488426043 290.8838932394663 Z" fill-opacity="1"/><path fill="none" stroke="rgb(0,0,0)" paint-order="fill stroke markers" d=" M 701.3075488426043 290.8838932394663 C 701.3075488426043 291.4361779892971 700.8598335924352 291.8838932394663 700.3075488426043 291.8838932394663 C 699.7552640927735 291.8838932394663 699.3075488426043 291.4361779892971 699.3075488426043 290.8838932394663 C 699.3075488426043 290.3316084896355 699.7552640927735 289.8838932394663 700.3075488426043 289.8838932394663 C 700.8598335924352 289.8838932394663 701.3075488426043 290.3316084896355 701.3075488426043 290.8838932394663 Z" stroke-opacity="1" stroke-linecap="round" stroke-linejoin="round" stroke-miterlimit="10"/><path fill="rgb(21,101,192)" stroke="none" paint-order="stroke fill markers" d=" M 845.4122519319133 254.18047012772846 C 845.4122519319133 254.73275487755924 844.9645366817441 255.18047012772846 844.4122519319133 255.18047012772846 C 843.8599671820824 255.18047012772846 843.4122519319133 254.73275487755924 843.4122519319133 254.18047012772846 C 843.4122519319133 253.62818537789767 843.8599671820824 253.18047012772846 844.4122519319133 253.18047012772846 C 844.9645366817441 253.18047012772846 845.4122519319133 253.62818537789767 845.4122519319133 254.18047012772846 Z" fill-opacity="1"/><path fill="none" stroke="rgb(0,0,0)" paint-order="fill stroke markers" d=" M 845.4122519319133 254.18047012772846 C 845.4122519319133 254.73275487755924 844.9645366817441 255.18047012772846 844.4122519319133 255.18047012772846 C 843.8599671820824 255.18047012772846 843.4122519319133 254.73275487755924 843.4122519319133 254.18047012772846 C 843.4122519319133 253.62818537789767 843.8599671820824 253.18047012772846 844.4122519319133 253.18047012772846 C 844.9645366817441 253.18047012772846 845.4122519319133 253.62818537789767 845.4122519319133 254.18047012772846 Z" stroke-opacity="1" stroke-linecap="round" stroke-linejoin="round" stroke-miterlimit="10"/><g transform="scale(25,25)"><g transform="translate(1.52,23.618334)"><path fill="rgb(0,0,0)" stroke="none" paint-order="stroke fill markers" d=" M 0.255 0.25 L 0.11800000000000001 0.25 L 0.11800000000000001 -0.75 L 0.255 -0.75 L 0.255 -0.71 L 0.158 -0.71 L 0.158 0.21 L 0.255 0.21 L 0.255 0.25 Z"/></g><g transform="translate(2.131113,23.618334)"><path fill="rgb(0,0,0)" stroke="none" paint-order="stroke fill markers" d=" M 0.537 -0.595 L 0.217 -0.595 Q 0.186 -0.595 0.183 -0.609 Q 0.182 -0.612 0.182 -0.615 Q 0.188 -0.635 0.217 -0.635 L 0.554 -0.635 Q 0.534 -0.661 0.53 -0.6930000000000001 Q 0.53 -0.709 0.544 -0.713 Q 0.547 -0.714 0.55 -0.714 Q 0.5650000000000001 -0.714 0.5700000000000001 -0.6920000000000001 Q 0.583 -0.654 0.611 -0.635 Q 0.625 -0.625 0.625 -0.615 Q 0.625 -0.604 0.608 -0.594 Q 0.5630000000000001 -0.5720000000000001 0.529 -0.529 Q 0.518 -0.516 0.51 -0.516 Q 0.496 -0.516 0.491 -0.53 Q 0.49 -0.533 0.49 -0.536 Q 0.49 -0.552 0.537 -0.595 Z"/></g><g transform="translate(2.1937285,23.618333999999997)"><path fill="rgb(0,0,0)" stroke="none" paint-order="stroke fill markers" d=" M 0.373 -0.378 Q 0.378 -0.41200000000000003 0.404 -0.42 Q 0.40900000000000003 -0.422 0.41500000000000004 -0.422 Q 0.441 -0.422 0.444 -0.395 Q 0.444 -0.389 0.437 -0.361 L 0.401 -0.221 Q 0.386 -0.158 0.379 -0.131 Q 0.366 -0.079 0.366 -0.057 Q 0.366 -0.011 0.396 -0.011 Q 0.434 -0.011 0.46 -0.091 Q 0.465 -0.108 0.47200000000000003 -0.135 Q 0.48 -0.152 0.486 -0.153 Q 0.498 -0.153 0.498 -0.14300000000000002 Q 0.498 -0.128 0.48 -0.073 Q 0.47400000000000003 -0.056 0.468 -0.044 Q 0.44 0.011 0.394 0.011 Q 0.338 0.011 0.313 -0.037 Q 0.306 -0.049 0.303 -0.064 Q 0.24 0.011 0.17300000000000001 0.011 Q 0.098 0.011 0.062 -0.057 Q 0.04 -0.097 0.04 -0.149 Q 0.04 -0.257 0.115 -0.34900000000000003 Q 0.185 -0.433 0.267 -0.441 Q 0.274 -0.442 0.281 -0.442 Q 0.342 -0.442 0.373 -0.378 M 0.308 -0.11900000000000001 L 0.308 -0.11900000000000001 L 0.358 -0.315 Q 0.361 -0.33 0.361 -0.332 Q 0.361 -0.353 0.343 -0.383 Q 0.321 -0.42 0.28200000000000003 -0.42 Q 0.23 -0.42 0.183 -0.352 Q 0.17400000000000002 -0.339 0.166 -0.324 Q 0.137 -0.266 0.117 -0.159 Q 0.111 -0.125 0.111 -0.105 Q 0.111 -0.037 0.149 -0.017 Q 0.16 -0.011 0.17500000000000002 -0.011 Q 0.231 -0.011 0.28800000000000003 -0.082 Q 0.302 -0.098 0.307 -0.115 L 0.307 -0.116 Q 0.308 -0.11800000000000001 0.308 -0.11900000000000001 Z"/></g><g transform="translate(2.7223185,23.618334)"><path fill="rgb(0,0,0)" stroke="none" paint-order="stroke fill markers" d=" M 0.203 -0.001 L 0.203 -0.001 Q 0.203 0.096 0.14 0.169 Q 0.123 0.189 0.112 0.193 Q 0.10200000000000001 0.193 0.10200000000000001 0.182 Q 0.10200000000000001 0.177 0.113 0.166 Q 0.17300000000000001 0.106 0.18 0.019 Q 0.181 0.009000000000000001 0.181 -0.001 Q 0.181 -0.016 0.179 -0.016 Q 0.178 -0.016 0.17400000000000002 -0.013000000000000001 Q 0.16 0 0.139 0 Q 0.10200000000000001 0 0.09 -0.034 Q 0.08600000000000001 -0.043000000000000003 0.08600000000000001 -0.053 Q 0.08600000000000001 -0.089 0.117 -0.10200000000000001 Q 0.127 -0.106 0.139 -0.106 Q 0.183 -0.106 0.198 -0.048 Q 0.203 -0.027 0.203 -0.001 Z"/></g><g transform="translate(3.1667646666666665,23.354444)"><path fill="rgb(0,0,0)" stroke="none" paint-order="stroke fill markers" d=" M 0.537 -0.595 L 0.217 -0.595 Q 0.186 -0.595 0.183 -0.609 Q 0.182 -0.612 0.182 -0.615 Q 0.188 -0.635 0.217 -0.635 L 0.554 -0.635 Q 0.534 -0.661 0.53 -0.6930000000000001 Q 0.53 -0.709 0.544 -0.713 Q 0.547 -0.714 0.55 -0.714 Q 0.5650000000000001 -0.714 0.5700000000000001 -0.6920000000000001 Q 0.583 -0.654 0.611 -0.635 Q 0.625 -0.625 0.625 -0.615 Q 0.625 -0.604 0.608 -0.594 Q 0.5630000000000001 -0.5720000000000001 0.529 -0.529 Q 0.518 -0.516 0.51 -0.516 Q 0.496 -0.516 0.491 -0.53 Q 0.49 -0.533 0.49 -0.536 Q 0.49 -0.552 0.537 -0.595 Z"/></g><g transform="translate(3.2790916666666665,23.618334000000004)"><path fill="rgb(0,0,0)" stroke="none" paint-order="stroke fill markers" d=" M 0.23900000000000002 -0.683 L 0.165 -0.382 Q 0.223 -0.442 0.28200000000000003 -0.442 Q 0.357 -0.442 0.394 -0.373 Q 0.41500000000000004 -0.333 0.41500000000000004 -0.28200000000000003 Q 0.41500000000000004 -0.176 0.341 -0.084 Q 0.272 0.001 0.189 0.01 Q 0.181 0.011 0.17400000000000002 0.011 Q 0.10200000000000001 0.011 0.067 -0.056 Q 0.047 -0.094 0.047 -0.146 Q 0.047 -0.18 0.063 -0.247 L 0.145 -0.5730000000000001 Q 0.159 -0.632 0.159 -0.635 Q 0.159 -0.646 0.145 -0.649 L 0.145 -0.649 Q 0.133 -0.652 0.109 -0.652 Q 0.08700000000000001 -0.652 0.085 -0.664 Q 0.085 -0.681 0.10400000000000001 -0.684 L 0.226 -0.6940000000000001 Q 0.23900000000000002 -0.6940000000000001 0.23900000000000002 -0.683 M 0.145 -0.305 L 0.123 -0.213 Q 0.107 -0.15 0.107 -0.112 Q 0.107 -0.026000000000000002 0.159 -0.013000000000000001 Q 0.166 -0.011 0.17400000000000002 -0.011 Q 0.227 -0.011 0.273 -0.081 Q 0.28300000000000003 -0.096 0.292 -0.114 Q 0.319 -0.171 0.337 -0.268 Q 0.343 -0.303 0.343 -0.326 Q 0.343 -0.406 0.294 -0.418 L 0.293 -0.419 Q 0.28700000000000003 -0.42 0.28 -0.42 Q 0.22 -0.42 0.16 -0.34 Q 0.152 -0.33 0.145 -0.305 Z"/></g><g transform="translate(4.041592666666666,23.618334)"><path fill="rgb(0,0,0)" stroke="none" paint-order="stroke fill markers" d=" M 0.159 -0.75 L 0.159 0.25 L 0.022 0.25 L 0.022 0.21 L 0.11900000000000001 0.21 L 0.11900000000000001 -0.71 L 0.022 -0.71 L 0.022 -0.75 L 0.159 -0.75 Z"/></g><g transform="translate(4.597150277777777,23.618334)"><path fill="rgb(0,0,0)" stroke="none" paint-order="stroke fill markers" d=" M 0.675 -0.228 L 0.121 0.033 Q 0.108 0.04 0.10300000000000001 0.04 Q 0.08700000000000001 0.04 0.084 0.025 Q 0.083 0.022 0.083 0.02 Q 0.083 0.008 0.10200000000000001 -0.002 L 0.627 -0.25 L 0.10200000000000001 -0.498 Q 0.083 -0.508 0.083 -0.52 Q 0.083 -0.536 0.098 -0.539 Q 0.101 -0.54 0.10300000000000001 -0.54 Q 0.108 -0.54 0.121 -0.533 L 0.675 -0.272 Q 0.6940000000000001 -0.263 0.6940000000000001 -0.25 Q 0.6940000000000001 -0.23700000000000002 0.675 -0.228 Z"/></g><g transform="translate(5.652709888888888,23.618334)"><path fill="rgb(0,0,0)" stroke="none" paint-order="stroke fill markers" d=" M 0.46 -0.32 Q 0.46 -0.17400000000000002 0.423 -0.094 Q 0.364 0.018000000000000002 0.249 0.022 Q 0.158 0.022 0.10300000000000001 -0.05 Q 0.092 -0.063 0.084 -0.079 Q 0.039 -0.162 0.039 -0.32 Q 0.039 -0.467 0.076 -0.547 Q 0.126 -0.659 0.23800000000000002 -0.666 L 0.25 -0.666 Q 0.339 -0.666 0.395 -0.595 L 0.395 -0.594 Q 0.40900000000000003 -0.5760000000000001 0.42 -0.554 Q 0.46 -0.46900000000000003 0.46 -0.32 M 0.249 0 L 0.249 0 Q 0.312 0 0.34600000000000003 -0.061 Q 0.36 -0.088 0.366 -0.125 Q 0.377 -0.189 0.377 -0.332 Q 0.377 -0.47100000000000003 0.367 -0.527 Q 0.34900000000000003 -0.622 0.275 -0.641 Q 0.262 -0.644 0.249 -0.644 Q 0.179 -0.644 0.147 -0.5740000000000001 Q 0.136 -0.55 0.13 -0.516 Q 0.122 -0.462 0.122 -0.332 Q 0.122 -0.181 0.133 -0.121 Q 0.151 -0.025 0.221 -0.004 Q 0.23500000000000001 0 0.249 0 Z"/></g></g><g transform="scale(25,25)"><g transform="translate(22.72,23.618334)"><path fill="rgb(0,0,0)" stroke="none" paint-order="stroke fill markers" d=" M 0.255 0.25 L 0.11800000000000001 0.25 L 0.11800000000000001 -0.75 L 0.255 -0.75 L 0.255 -0.71 L 0.158 -0.71 L 0.158 0.21 L 0.255 0.21 L 0.255 0.25 Z"/></g><g transform="translate(23.331113,23.618334)"><path fill="rgb(0,0,0)" stroke="none" paint-order="stroke fill markers" d=" M 0.537 -0.595 L 0.217 -0.595 Q 0.186 -0.595 0.183 -0.609 Q 0.182 -0.612 0.182 -0.615 Q 0.188 -0.635 0.217 -0.635 L 0.554 -0.635 Q 0.534 -0.661 0.53 -0.6930000000000001 Q 0.53 -0.709 0.544 -0.713 Q 0.547 -0.714 0.55 -0.714 Q 0.5650000000000001 -0.714 0.5700000000000001 -0.6920000000000001 Q 0.583 -0.654 0.611 -0.635 Q 0.625 -0.625 0.625 -0.615 Q 0.625 -0.604 0.608 -0.594 Q 0.5630000000000001 -0.5720000000000001 0.529 -0.529 Q 0.518 -0.516 0.51 -0.516 Q 0.496 -0.516 0.491 -0.53 Q 0.49 -0.533 0.49 -0.536 Q 0.49 -0.552 0.537 -0.595 Z"/></g><g transform="translate(23.393728499999998,23.618333999999997)"><path fill="rgb(0,0,0)" stroke="none" paint-order="stroke fill markers" d=" M 0.373 -0.378 Q 0.378 -0.41200000000000003 0.404 -0.42 Q 0.40900000000000003 -0.422 0.41500000000000004 -0.422 Q 0.441 -0.422 0.444 -0.395 Q 0.444 -0.389 0.437 -0.361 L 0.401 -0.221 Q 0.386 -0.158 0.379 -0.131 Q 0.366 -0.079 0.366 -0.057 Q 0.366 -0.011 0.396 -0.011 Q 0.434 -0.011 0.46 -0.091 Q 0.465 -0.108 0.47200000000000003 -0.135 Q 0.48 -0.152 0.486 -0.153 Q 0.498 -0.153 0.498 -0.14300000000000002 Q 0.498 -0.128 0.48 -0.073 Q 0.47400000000000003 -0.056 0.468 -0.044 Q 0.44 0.011 0.394 0.011 Q 0.338 0.011 0.313 -0.037 Q 0.306 -0.049 0.303 -0.064 Q 0.24 0.011 0.17300000000000001 0.011 Q 0.098 0.011 0.062 -0.057 Q 0.04 -0.097 0.04 -0.149 Q 0.04 -0.257 0.115 -0.34900000000000003 Q 0.185 -0.433 0.267 -0.441 Q 0.274 -0.442 0.281 -0.442 Q 0.342 -0.442 0.373 -0.378 M 0.308 -0.11900000000000001 L 0.308 -0.11900000000000001 L 0.358 -0.315 Q 0.361 -0.33 0.361 -0.332 Q 0.361 -0.353 0.343 -0.383 Q 0.321 -0.42 0.28200000000000003 -0.42 Q 0.23 -0.42 0.183 -0.352 Q 0.17400000000000002 -0.339 0.166 -0.324 Q 0.137 -0.266 0.117 -0.159 Q 0.111 -0.125 0.111 -0.105 Q 0.111 -0.037 0.149 -0.017 Q 0.16 -0.011 0.17500000000000002 -0.011 Q 0.231 -0.011 0.28800000000000003 -0.082 Q 0.302 -0.098 0.307 -0.115 L 0.307 -0.116 Q 0.308 -0.11800000000000001 0.308 -0.11900000000000001 Z"/></g><g transform="translate(23.9223185,23.618334)"><path fill="rgb(0,0,0)" stroke="none" paint-order="stroke fill markers" d=" M 0.203 -0.001 L 0.203 -0.001 Q 0.203 0.096 0.14 0.169 Q 0.123 0.189 0.112 0.193 Q 0.10200000000000001 0.193 0.10200000000000001 0.182 Q 0.10200000000000001 0.177 0.113 0.166 Q 0.17300000000000001 0.106 0.18 0.019 Q 0.181 0.009000000000000001 0.181 -0.001 Q 0.181 -0.016 0.179 -0.016 Q 0.178 -0.016 0.17400000000000002 -0.013000000000000001 Q 0.16 0 0.139 0 Q 0.10200000000000001 0 0.09 -0.034 Q 0.08600000000000001 -0.043000000000000003 0.08600000000000001 -0.053 Q 0.08600000000000001 -0.089 0.117 -0.10200000000000001 Q 0.127 -0.106 0.139 -0.106 Q 0.183 -0.106 0.198 -0.048 Q 0.203 -0.027 0.203 -0.001 Z"/></g><g transform="translate(24.366764666666665,23.354444)"><path fill="rgb(0,0,0)" stroke="none" paint-order="stroke fill markers" d=" M 0.537 -0.595 L 0.217 -0.595 Q 0.186 -0.595 0.183 -0.609 Q 0.182 -0.612 0.182 -0.615 Q 0.188 -0.635 0.217 -0.635 L 0.554 -0.635 Q 0.534 -0.661 0.53 -0.6930000000000001 Q 0.53 -0.709 0.544 -0.713 Q 0.547 -0.714 0.55 -0.714 Q 0.5650000000000001 -0.714 0.5700000000000001 -0.6920000000000001 Q 0.583 -0.654 0.611 -0.635 Q 0.625 -0.625 0.625 -0.615 Q 0.625 -0.604 0.608 -0.594 Q 0.5630000000000001 -0.5720000000000001 0.529 -0.529 Q 0.518 -0.516 0.51 -0.516 Q 0.496 -0.516 0.491 -0.53 Q 0.49 -0.533 0.49 -0.536 Q 0.49 -0.552 0.537 -0.595 Z"/></g><g transform="translate(24.479091666666665,23.618334000000004)"><path fill="rgb(0,0,0)" stroke="none" paint-order="stroke fill markers" d=" M 0.23900000000000002 -0.683 L 0.165 -0.382 Q 0.223 -0.442 0.28200000000000003 -0.442 Q 0.357 -0.442 0.394 -0.373 Q 0.41500000000000004 -0.333 0.41500000000000004 -0.28200000000000003 Q 0.41500000000000004 -0.176 0.341 -0.084 Q 0.272 0.001 0.189 0.01 Q 0.181 0.011 0.17400000000000002 0.011 Q 0.10200000000000001 0.011 0.067 -0.056 Q 0.047 -0.094 0.047 -0.146 Q 0.047 -0.18 0.063 -0.247 L 0.145 -0.5730000000000001 Q 0.159 -0.632 0.159 -0.635 Q 0.159 -0.646 0.145 -0.649 L 0.145 -0.649 Q 0.133 -0.652 0.109 -0.652 Q 0.08700000000000001 -0.652 0.085 -0.664 Q 0.085 -0.681 0.10400000000000001 -0.684 L 0.226 -0.6940000000000001 Q 0.23900000000000002 -0.6940000000000001 0.23900000000000002 -0.683 M 0.145 -0.305 L 0.123 -0.213 Q 0.107 -0.15 0.107 -0.112 Q 0.107 -0.026000000000000002 0.159 -0.013000000000000001 Q 0.166 -0.011 0.17400000000000002 -0.011 Q 0.227 -0.011 0.273 -0.081 Q 0.28300000000000003 -0.096 0.292 -0.114 Q 0.319 -0.171 0.337 -0.268 Q 0.343 -0.303 0.343 -0.326 Q 0.343 -0.406 0.294 -0.418 L 0.293 -0.419 Q 0.28700000000000003 -0.42 0.28 -0.42 Q 0.22 -0.42 0.16 -0.34 Q 0.152 -0.33 0.145 -0.305 Z"/></g><g transform="translate(25.241592666666666,23.618334)"><path fill="rgb(0,0,0)" stroke="none" paint-order="stroke fill markers" d=" M 0.159 -0.75 L 0.159 0.25 L 0.022 0.25 L 0.022 0.21 L 0.11900000000000001 0.21 L 0.11900000000000001 -0.71 L 0.022 -0.71 L 0.022 -0.75 L 0.159 -0.75 Z"/></g><g transform="translate(25.797150277777774,23.618334)"><path fill="rgb(0,0,0)" stroke="none" paint-order="stroke fill markers" d=" M 0.675 -0.498 L 0.15 -0.25 L 0.675 -0.002 Q 0.6940000000000001 0.008 0.6940000000000001 0.02 Q 0.6940000000000001 0.036000000000000004 0.679 0.039 Q 0.676 0.04 0.674 0.04 Q 0.669 0.04 0.656 0.033 L 0.10200000000000001 -0.228 Q 0.083 -0.23700000000000002 0.083 -0.25 Q 0.083 -0.263 0.10200000000000001 -0.272 L 0.656 -0.533 Q 0.669 -0.54 0.674 -0.54 Q 0.6900000000000001 -0.54 0.6930000000000001 -0.525 Q 0.6940000000000001 -0.522 0.6940000000000001 -0.52 Q 0.6940000000000001 -0.508 0.675 -0.498 Z"/></g><g transform="translate(26.852709888888885,23.618334)"><path fill="rgb(0,0,0)" stroke="none" paint-order="stroke fill markers" d=" M 0.46 -0.32 Q 0.46 -0.17400000000000002 0.423 -0.094 Q 0.364 0.018000000000000002 0.249 0.022 Q 0.158 0.022 0.10300000000000001 -0.05 Q 0.092 -0.063 0.084 -0.079 Q 0.039 -0.162 0.039 -0.32 Q 0.039 -0.467 0.076 -0.547 Q 0.126 -0.659 0.23800000000000002 -0.666 L 0.25 -0.666 Q 0.339 -0.666 0.395 -0.595 L 0.395 -0.594 Q 0.40900000000000003 -0.5760000000000001 0.42 -0.554 Q 0.46 -0.46900000000000003 0.46 -0.32 M 0.249 0 L 0.249 0 Q 0.312 0 0.34600000000000003 -0.061 Q 0.36 -0.088 0.366 -0.125 Q 0.377 -0.189 0.377 -0.332 Q 0.377 -0.47100000000000003 0.367 -0.527 Q 0.34900000000000003 -0.622 0.275 -0.641 Q 0.262 -0.644 0.249 -0.644 Q 0.179 -0.644 0.147 -0.5740000000000001 Q 0.136 -0.55 0.13 -0.516 Q 0.122 -0.462 0.122 -0.332 Q 0.122 -0.181 0.133 -0.121 Q 0.151 -0.025 0.221 -0.004 Q 0.23500000000000001 0 0.249 0 Z"/></g></g></g></g></svg>