<svg version="1.1" xmlns="http://www.w3.org/2000/svg" xmlns:xlink="http://www.w3.org/1999/xlink" width="986" height="600"><defs><clipPath id="hALRbdRobzKm"><path fill="none" stroke="none" d=" M 0 0 L 986 0 L 986 600 L 0 600 L 0 0 Z"/></clipPath></defs><g transform="scale(1,1)" clip-path="url(#hALRbdRobzKm)"><g><rect fill="rgb(255,255,255)" stroke="none" x="0" y="0" width="986" height="600" fill-opacity="1"/><path fill="none" stroke="rgb(192,192,192)" paint-order="fill stroke markers" d=" M 84.5 0.5 L 84.5 600.5 M 137.5 0.5 L 137.5 600.5 M 189.5 0.5 L 189.5 600.5 M 242.5 0.5 L 242.5 600.5 M 295.5 0.5 L 295.5 600.5 M 347.5 0.5 L 347.5 600.5 M 400.5 0.5 L 400.5 600.5 M 453.5 0.5 L 453.5 600.5 M 506.5 0.5 L 506.5 600.5 M 558.5 0.5 L 558.5 600.5 M 611.5 0.5 L 611.5 600.5 M 664.5 0.5 L 664.5 600.5 M 716.5 0.5 L 716.5 600.5 M 769.5 0.5 L 769.5 600.5 M 822.5 0.5 L 822.5 600.5 M 874.5 0.5 L 874.5 600.5 M 927.5 0.5 L 927.5 600.5 M 980.5 0.5 L 980.5 600.5" stroke-opacity="1" stroke-linecap="round" stroke-linejoin="round" stroke-miterlimit="10"/><path fill="none" stroke="rgb(192,192,192)" paint-order="fill stroke markers" d=" M 0.5 0.5 L 0.5 600.5 M 10.5 0.5 L 10.5 600.5 M 21.5 0.5 L 21.5 600.5 M 42.5 0.5 L 42.5 600.5 M 52.5 0.5 L 52.5 600.5 M 63.5 0.5 L 63.5 600.5 M 73.5 0.5 L 73.5 600.5 M 94.5 0.5 L 94.5 600.5 M 105.5 0.5 L 105.5 600.5 M 116.5 0.5 L 116.5 600.5 M 126.5 0.5 L 126.5 600.5 M 147.5 0.5 L 147.5 600.5 M 158.5 0.5 L 158.5 600.5 M 168.5 0.5 L 168.5 600.5 M 179.5 0.5 L 179.5 600.5 M 200.5 0.5 L 200.5 600.5 M 210.5 0.5 L 210.5 600.5 M 221.5 0.5 L 221.5 600.5 M 231.5 0.5 L 231.5 600.5 M 253.5 0.5 L 253.5 600.5 M 263.5 0.5 L 263.5 600.5 M 274.5 0.5 L 274.5 600.5 M 284.5 0.5 L 284.5 600.5 M 305.5 0.5 L 305.5 600.5 M 316.5 0.5 L 316.5 600.5 M 326.5 0.5 L 326.5 600.5 M 337.5 0.5 L 337.5 600.5 M 358.5 0.5 L 358.5 600.5 M 368.5 0.5 L 368.5 600.5 M 379.5 0.5 L 379.5 600.5 M 390.5 0.5 L 390.5 600.5 M 411.5 0.5 L 411.5 600.5 M 421.5 0.5 L 421.5 600.5 M 432.5 0.5 L 432.5 600.5 M 442.5 0.5 L 442.5 600.5 M 463.5 0.5 L 463.5 600.5 M 474.5 0.5 L 474.5 600.5 M 484.5 0.5 L 484.5 600.5 M 495.5 0.5 L 495.5 600.5 M 516.5 0.5 L 516.5 600.5 M 527.5 0.5 L 527.5 600.5 M 537.5 0.5 L 537.5 600.5 M 548.5 0.5 L 548.5 600.5 M 569.5 0.5 L 569.5 600.5 M 579.5 0.5 L 579.5 600.5 M 590.5 0.5 L 590.5 600.5 M 600.5 0.5 L 600.5 600.5 M 621.5 0.5 L 621.5 600.5 M 632.5 0.5 L 632.5 600.5 M 643.5 0.5 L 643.5 600.5 M 653.5 0.5 L 653.5 600.5 M 674.5 0.5 L 674.5 600.5 M 685.5 0.5 L 685.5 600.5 M 695.5 0.5 L 695.5 600.5 M 706.5 0.5 L 706.5 600.5 M 727.5 0.5 L 727.5 600.5 M 737.5 0.5 L 737.5 600.5 M 748.5 0.5 L 748.5 600.5 M 758.5 0.5 L 758.5 600.5 M 780.5 0.5 L 780.5 600.5 M 790.5 0.5 L 790.5 600.5 M 801.5 0.5 L 801.5 600.5 M 811.5 0.5 L 811.5 600.5 M 832.5 0.5 L 832.5 600.5 M 843.5 0.5 L 843.5 600.5 M 853.5 0.5 L 853.5 600.5 M 864.5 0.5 L 864.5 600.5 M 885.5 0.5 L 885.5 600.5 M 895.5 0.5 L 895.5 600.5 M 906.5 0.5 L 906.5 600.5 M 917.5 0.5 L 917.5 600.5 M 938.5 0.5 L 938.5 600.5 M 948.5 0.5 L 948.5 600.5 M 959.5 0.5 L 959.5 600.5 M 969.5 0.5 L 969.5 600.5" stroke-opacity="0.23529411764705882" stroke-linecap="round" stroke-linejoin="round" stroke-miterlimit="10"/><path fill="none" stroke="rgb(192,192,192)" paint-order="fill stroke markers" d=" M 0.5 19.5 L 986.5 19.5 M 0.5 19.5 L 986.5 19.5 M 0.5 97.5 L 986.5 97.5 M 0.5 176.5 L 986.5 176.5 M 0.5 254.5 L 986.5 254.5 M 0.5 333.5 L 986.5 333.5 M 0.5 411.5 L 986.5 411.5 M 0.5 490.5 L 986.5 490.5" stroke-opacity="1" stroke-linecap="round" stroke-linejoin="round" stroke-miterlimit="10"/><path fill="none" stroke="rgb(192,192,192)" paint-order="fill stroke markers" d=" M 0.5 3.5 L 986.5 3.5 M 0.5 3.5 L 986.5 3.5 M 0.5 35.5 L 986.5 35.5 M 0.5 50.5 L 986.5 50.5 M 0.5 66.5 L 986.5 66.5 M 0.5 82.5 L 986.5 82.5 M 0.5 113.5 L 986.5 113.5 M 0.5 129.5 L 986.5 129.5 M 0.5 144.5 L 986.5 144.5 M 0.5 160.5 L 986.5 160.5 M 0.5 191.5 L 986.5 191.5 M 0.5 207.5 L 986.5 207.5 M 0.5 223.5 L 986.5 223.5 M 0.5 238.5 L 986.5 238.5 M 0.5 270.5 L 986.5 270.5 M 0.5 286.5 L 986.5 286.5 M 0.5 301.5 L 986.5 301.5 M 0.5 317.5 L 986.5 317.5 M 0.5 348.5 L 986.5 348.5 M 0.5 364.5 L 986.5 364.5 M 0.5 380.5 L 986.5 380.5 M 0.5 395.5 L 986.5 395.5 M 0.5 427.5 L 986.5 427.5 M 0.5 442.5 L 986.5 442.5 M 0.5 458.5 L 986.5 458.5 M 0.5 474.5 L 986.5 474.5 M 0.5 505.5 L 986.5 505.5 M 0.5 521.5 L 986.5 521.5 M 0.5 537.5 L 986.5 537.5 M 0.5 552.5 L 986.5 552.5 M 0.5 584.5 L 986.5 584.5 M 0.5 599.5 L 986.5 599.5" stroke-opacity="0.23529411764705882" stroke-linecap="round" stroke-linejoin="round" stroke-miterlimit="10"/><path fill="none" stroke="rgb(0,0,0)" paint-order="fill stroke markers" d=" M 31.5 2.5 L 31.5 600.5" stroke-opacity="1" stroke-miterlimit="10"/><path fill="none" stroke="rgb(0,0,0)" paint-order="fill stroke markers" d=" M 31.5 1.5 L 27.5 5.5" stroke-opacity="1" stroke-miterlimit="10"/><path fill="none" stroke="rgb(0,0,0)" paint-order="fill stroke markers" d=" M 31.5 1.5 L 35.5 5.5" stroke-opacity="1" stroke-miterlimit="10"/><path fill="none" stroke="rgb(0,0,0)" paint-order="fill stroke markers" d=" M 0.5 568.5 L 984.5 568.5" stroke-opacity="1" stroke-miterlimit="10"/><path fill="none" stroke="rgb(0,0,0)" paint-order="fill stroke markers" d=" M 985.5 568.5 L 981.5 564.5" stroke-opacity="1" stroke-miterlimit="10"/><path fill="none" stroke="rgb(0,0,0)" paint-order="fill stroke markers" d=" M 985.5 568.5 L 981.5 572.5" stroke-opacity="1" stroke-miterlimit="10"/><text fill="rgb(0,0,0)" stroke="none" font-family="geogebra-sans-serif, sans-serif" font-size="12px" font-style="normal" font-weight="normal" text-decoration="normal" x="76" y="584" text-anchor="start" dominant-baseline="alphabetic" fill-opacity="1">0.5</text><text fill="rgb(0,0,0)" stroke="none" font-family="geogebra-sans-serif, sans-serif" font-size="12px" font-style="normal" font-weight="normal" text-decoration="normal" x="76" y="584" text-anchor="start" dominant-baseline="alphabetic" fill-opacity="1">0.5</text><text fill="rgb(0,0,0)" stroke="none" font-family="geogebra-sans-serif, sans-serif" font-size="12px" font-style="normal" font-weight="normal" text-decoration="normal" x="135" y="584" text-anchor="start" dominant-baseline="alphabetic" fill-opacity="1">1</text><text fill="rgb(0,0,0)" stroke="none" font-family="geogebra-sans-serif, sans-serif" font-size="12px" font-style="normal" font-weight="normal" text-decoration="normal" x="135" y="584" text-anchor="start" dominant-baseline="alphabetic" fill-opacity="1">1</text><text fill="rgb(0,0,0)" stroke="none" font-family="geogebra-sans-serif, sans-serif" font-size="12px" font-style="normal" font-weight="normal" text-decoration="normal" x="181" y="584" text-anchor="start" dominant-baseline="alphabetic" fill-opacity="1">1.5</text><text fill="rgb(0,0,0)" stroke="none" font-family="geogebra-sans-serif, sans-serif" font-size="12px" font-style="normal" font-weight="normal" text-decoration="normal" x="181" y="584" text-anchor="start" dominant-baseline="alphabetic" fill-opacity="1">1.5</text><text fill="rgb(0,0,0)" stroke="none" font-family="geogebra-sans-serif, sans-serif" font-size="12px" font-style="normal" font-weight="normal" text-decoration="normal" x="240" y="584" text-anchor="start" dominant-baseline="alphabetic" fill-opacity="1">2</text><text fill="rgb(0,0,0)" stroke="none" font-family="geogebra-sans-serif, sans-serif" font-size="12px" font-style="normal" font-weight="normal" text-decoration="normal" x="240" y="584" text-anchor="start" dominant-baseline="alphabetic" fill-opacity="1">2</text><text fill="rgb(0,0,0)" stroke="none" font-family="geogebra-sans-serif, sans-serif" font-size="12px" font-style="normal" font-weight="normal" text-decoration="normal" x="287" y="584" text-anchor="start" dominant-baseline="alphabetic" fill-opacity="1">2.5</text><text fill="rgb(0,0,0)" stroke="none" font-family="geogebra-sans-serif, sans-serif" font-size="12px" font-style="normal" font-weight="normal" text-decoration="normal" x="287" y="584" text-anchor="start" dominant-baseline="alphabetic" fill-opacity="1">2.5</text><text fill="rgb(0,0,0)" stroke="none" font-family="geogebra-sans-serif, sans-serif" font-size="12px" font-style="normal" font-weight="normal" text-decoration="normal" x="345" y="584" text-anchor="start" dominant-baseline="alphabetic" fill-opacity="1">3</text><text fill="rgb(0,0,0)" stroke="none" font-family="geogebra-sans-serif, sans-serif" font-size="12px" font-style="normal" font-weight="normal" text-decoration="normal" x="345" y="584" text-anchor="start" dominant-baseline="alphabetic" fill-opacity="1">3</text><text fill="rgb(0,0,0)" stroke="none" font-family="geogebra-sans-serif, sans-serif" font-size="12px" font-style="normal" font-weight="normal" text-decoration="normal" x="392" y="584" text-anchor="start" dominant-baseline="alphabetic" fill-opacity="1">3.5</text><text fill="rgb(0,0,0)" stroke="none" font-family="geogebra-sans-serif, sans-serif" font-size="12px" font-style="normal" font-weight="normal" text-decoration="normal" x="392" y="584" text-anchor="start" dominant-baseline="alphabetic" fill-opacity="1">3.5</text><text fill="rgb(0,0,0)" stroke="none" font-family="geogebra-sans-serif, sans-serif" font-size="12px" font-style="normal" font-weight="normal" text-decoration="normal" x="451" y="584" text-anchor="start" dominant-baseline="alphabetic" fill-opacity="1">4</text><text fill="rgb(0,0,0)" stroke="none" font-family="geogebra-sans-serif, sans-serif" font-size="12px" font-style="normal" font-weight="normal" text-decoration="normal" x="451" y="584" text-anchor="start" dominant-baseline="alphabetic" fill-opacity="1">4</text><text fill="rgb(0,0,0)" stroke="none" font-family="geogebra-sans-serif, sans-serif" font-size="12px" font-style="normal" font-weight="normal" text-decoration="normal" x="498" y="584" text-anchor="start" dominant-baseline="alphabetic" fill-opacity="1">4.5</text><text fill="rgb(0,0,0)" stroke="none" font-family="geogebra-sans-serif, sans-serif" font-size="12px" font-style="normal" font-weight="normal" text-decoration="normal" x="498" y="584" text-anchor="start" dominant-baseline="alphabetic" fill-opacity="1">4.5</text><text fill="rgb(0,0,0)" stroke="none" font-family="geogebra-sans-serif, sans-serif" font-size="12px" font-style="normal" font-weight="normal" text-decoration="normal" x="556" y="584" text-anchor="start" dominant-baseline="alphabetic" fill-opacity="1">5</text><text fill="rgb(0,0,0)" stroke="none" font-family="geogebra-sans-serif, sans-serif" font-size="12px" font-style="normal" font-weight="normal" text-decoration="normal" x="556" y="584" text-anchor="start" dominant-baseline="alphabetic" fill-opacity="1">5</text><text fill="rgb(0,0,0)" stroke="none" font-family="geogebra-sans-serif, sans-serif" font-size="12px" font-style="normal" font-weight="normal" text-decoration="normal" x="603" y="584" text-anchor="start" dominant-baseline="alphabetic" fill-opacity="1">5.5</text><text fill="rgb(0,0,0)" stroke="none" font-family="geogebra-sans-serif, sans-serif" font-size="12px" font-style="normal" font-weight="normal" text-decoration="normal" x="603" y="584" text-anchor="start" dominant-baseline="alphabetic" fill-opacity="1">5.5</text><text fill="rgb(0,0,0)" stroke="none" font-family="geogebra-sans-serif, sans-serif" font-size="12px" font-style="normal" font-weight="normal" text-decoration="normal" x="662" y="584" text-anchor="start" dominant-baseline="alphabetic" fill-opacity="1">6</text><text fill="rgb(0,0,0)" stroke="none" font-family="geogebra-sans-serif, sans-serif" font-size="12px" font-style="normal" font-weight="normal" text-decoration="normal" x="662" y="584" text-anchor="start" dominant-baseline="alphabetic" fill-opacity="1">6</text><text fill="rgb(0,0,0)" stroke="none" font-family="geogebra-sans-serif, sans-serif" font-size="12px" font-style="normal" font-weight="normal" text-decoration="normal" x="708" y="584" text-anchor="start" dominant-baseline="alphabetic" fill-opacity="1">6.5</text><text fill="rgb(0,0,0)" stroke="none" font-family="geogebra-sans-serif, sans-serif" font-size="12px" font-style="normal" font-weight="normal" text-decoration="normal" x="708" y="584" text-anchor="start" dominant-baseline="alphabetic" fill-opacity="1">6.5</text><text fill="rgb(0,0,0)" stroke="none" font-family="geogebra-sans-serif, sans-serif" font-size="12px" font-style="normal" font-weight="normal" text-decoration="normal" x="767" y="584" text-anchor="start" dominant-baseline="alphabetic" fill-opacity="1">7</text><text fill="rgb(0,0,0)" stroke="none" font-family="geogebra-sans-serif, sans-serif" font-size="12px" font-style="normal" font-weight="normal" text-decoration="normal" x="767" y="584" text-anchor="start" dominant-baseline="alphabetic" fill-opacity="1">7</text><text fill="rgb(0,0,0)" stroke="none" font-family="geogebra-sans-serif, sans-serif" font-size="12px" font-style="normal" font-weight="normal" text-decoration="normal" x="814" y="584" text-anchor="start" dominant-baseline="alphabetic" fill-opacity="1">7.5</text><text fill="rgb(0,0,0)" stroke="none" font-family="geogebra-sans-serif, sans-serif" font-size="12px" font-style="normal" font-weight="normal" text-decoration="normal" x="814" y="584" text-anchor="start" dominant-baseline="alphabetic" fill-opacity="1">7.5</text><text fill="rgb(0,0,0)" stroke="none" font-family="geogebra-sans-serif, sans-serif" font-size="12px" font-style="normal" font-weight="normal" text-decoration="normal" x="872" y="584" text-anchor="start" dominant-baseline="alphabetic" fill-opacity="1">8</text><text fill="rgb(0,0,0)" stroke="none" font-family="geogebra-sans-serif, sans-serif" font-size="12px" font-style="normal" font-weight="normal" text-decoration="normal" x="872" y="584" text-anchor="start" dominant-baseline="alphabetic" fill-opacity="1">8</text><text fill="rgb(0,0,0)" stroke="none" font-family="geogebra-sans-serif, sans-serif" font-size="12px" font-style="normal" font-weight="normal" text-decoration="normal" x="919" y="584" text-anchor="start" dominant-baseline="alphabetic" fill-opacity="1">8.5</text><text fill="rgb(0,0,0)" stroke="none" font-family="geogebra-sans-serif, sans-serif" font-size="12px" font-style="normal" font-weight="normal" text-decoration="normal" x="919" y="584" text-anchor="start" dominant-baseline="alphabetic" fill-opacity="1">8.5</text><text fill="rgb(0,0,0)" stroke="none" font-family="geogebra-sans-serif, sans-serif" font-size="12px" font-style="normal" font-weight="normal" text-decoration="normal" x="17" y="495" text-anchor="start" dominant-baseline="alphabetic" fill-opacity="1">1</text><text fill="rgb(0,0,0)" stroke="none" font-family="geogebra-sans-serif, sans-serif" font-size="12px" font-style="normal" font-weight="normal" text-decoration="normal" x="17" y="495" text-anchor="start" dominant-baseline="alphabetic" fill-opacity="1">1</text><text fill="rgb(0,0,0)" stroke="none" font-family="geogebra-sans-serif, sans-serif" font-size="12px" font-style="normal" font-weight="normal" text-decoration="normal" x="17" y="416" text-anchor="start" dominant-baseline="alphabetic" fill-opacity="1">2</text><text fill="rgb(0,0,0)" stroke="none" font-family="geogebra-sans-serif, sans-serif" font-size="12px" font-style="normal" font-weight="normal" text-decoration="normal" x="17" y="416" text-anchor="start" dominant-baseline="alphabetic" fill-opacity="1">2</text><text fill="rgb(0,0,0)" stroke="none" font-family="geogebra-sans-serif, sans-serif" font-size="12px" font-style="normal" font-weight="normal" text-decoration="normal" x="17" y="338" text-anchor="start" dominant-baseline="alphabetic" fill-opacity="1">3</text><text fill="rgb(0,0,0)" stroke="none" font-family="geogebra-sans-serif, sans-serif" font-size="12px" font-style="normal" font-weight="normal" text-decoration="normal" x="17" y="338" text-anchor="start" dominant-baseline="alphabetic" fill-opacity="1">3</text><text fill="rgb(0,0,0)" stroke="none" font-family="geogebra-sans-serif, sans-serif" font-size="12px" font-style="normal" font-weight="normal" text-decoration="normal" x="17" y="259" text-anchor="start" dominant-baseline="alphabetic" fill-opacity="1">4</text><text fill="rgb(0,0,0)" stroke="none" font-family="geogebra-sans-serif, sans-serif" font-size="12px" font-style="normal" font-weight="normal" text-decoration="normal" x="17" y="259" text-anchor="start" dominant-baseline="alphabetic" fill-opacity="1">4</text><text fill="rgb(0,0,0)" stroke="none" font-family="geogebra-sans-serif, sans-serif" font-size="12px" font-style="normal" font-weight="normal" text-decoration="normal" x="17" y="181" text-anchor="start" dominant-baseline="alphabetic" fill-opacity="1">5</text><text fill="rgb(0,0,0)" stroke="none" font-family="geogebra-sans-serif, sans-serif" font-size="12px" font-style="normal" font-weight="normal" text-decoration="normal" x="17" y="181" text-anchor="start" dominant-baseline="alphabetic" fill-opacity="1">5</text><text fill="rgb(0,0,0)" stroke="none" font-family="geogebra-sans-serif, sans-serif" font-size="12px" font-style="normal" font-weight="normal" text-decoration="normal" x="17" y="102" text-anchor="start" dominant-baseline="alphabetic" fill-opacity="1">6</text><text fill="rgb(0,0,0)" stroke="none" font-family="geogebra-sans-serif, sans-serif" font-size="12px" font-style="normal" font-weight="normal" text-decoration="normal" x="17" y="102" text-anchor="start" dominant-baseline="alphabetic" fill-opacity="1">6</text><text fill="rgb(0,0,0)" stroke="none" font-family="geogebra-sans-serif, sans-serif" font-size="12px" font-style="normal" font-weight="normal" text-decoration="normal" x="17" y="24" text-anchor="start" dominant-baseline="alphabetic" fill-opacity="1">7</text><text fill="rgb(0,0,0)" stroke="none" font-family="geogebra-sans-serif, sans-serif" font-size="12px" font-style="normal" font-weight="normal" text-decoration="normal" x="17" y="24" text-anchor="start" dominant-baseline="alphabetic" fill-opacity="1">7</text><text fill="rgb(0,0,0)" stroke="none" font-family="geogebra-sans-serif, sans-serif" font-size="12px" font-style="normal" font-weight="normal" text-decoration="normal" x="17" y="584" text-anchor="start" dominant-baseline="alphabetic" fill-opacity="1">0</text><text fill="rgb(0,0,0)" stroke="none" font-family="geogebra-sans-serif, sans-serif" font-size="12px" font-style="normal" font-weight="normal" text-decoration="normal" x="17" y="584" text-anchor="start" dominant-baseline="alphabetic" fill-opacity="1">0</text><path fill="none" stroke="rgb(211,47,47)" paint-order="fill stroke markers" d=" M 234.07771215772252 433.2630752097563 L 229.07771215772252 438.2630752097563 L 234.07771215772252 443.2630752097563 L 239.07771215772252 438.2630752097563 Z" stroke-opacity="1" stroke-linecap="square" stroke-miterlimit="10" stroke-width="2.5"/><path fill="rgb(211,47,47)" stroke="none" paint-order="stroke fill markers" fill-rule="evenodd" d=" M 234.07771215772252 433.2630752097563 L 229.07771215772252 438.2630752097563 L 234.07771215772252 443.2630752097563 L 239.07771215772252 438.2630752097563 Z" fill-opacity="1"/><text fill="rgb(211,47,47)" stroke="none" font-family="geogebra-sans-serif, sans-serif" font-size="16px" font-style="normal" font-weight="normal" text-decoration="normal" x="238" y="428" text-anchor="start" dominant-baseline="alphabetic" fill-opacity="1">0</text><text fill="rgb(211,47,47)" stroke="none" font-family="geogebra-sans-serif, sans-serif" font-size="16px" font-style="normal" font-weight="normal" text-decoration="normal" x="238" y="428" text-anchor="start" dominant-baseline="alphabetic" fill-opacity="1">0</text><path fill="rgb(21,101,192)" stroke="none" paint-order="stroke fill markers" d=" M 209.56663261114295 220.16655253820318 C 209.56663261114295 222.92797628735715 207.32805636029693 225.16655253820318 204.56663261114295 225.16655253820318 C 201.80520886198897 225.16655253820318 199.56663261114295 222.92797628735715 199.56663261114295 220.16655253820318 C 199.56663261114295 217.4051287890492 201.80520886198897 215.16655253820318 204.56663261114295 215.16655253820318 C 207.32805636029693 215.16655253820318 209.56663261114295 217.4051287890492 209.56663261114295 220.16655253820318 Z" fill-opacity="1"/><path fill="none" stroke="rgb(0,0,0)" paint-order="fill stroke markers" d=" M 209.56663261114295 220.16655253820318 C 209.56663261114295 222.92797628735715 207.32805636029693 225.16655253820318 204.56663261114295 225.16655253820318 C 201.80520886198897 225.16655253820318 199.56663261114295 222.92797628735715 199.56663261114295 220.16655253820318 C 199.56663261114295 217.4051287890492 201.80520886198897 215.16655253820318 204.56663261114295 215.16655253820318 C 207.32805636029693 215.16655253820318 209.56663261114295 217.4051287890492 209.56663261114295 220.16655253820318 Z" stroke-opacity="1" stroke-linecap="round" stroke-linejoin="round" stroke-miterlimit="10"/><text fill="rgb(21,101,192)" stroke="none" font-family="geogebra-sans-serif, sans-serif" font-size="16px" font-style="normal" font-weight="normal" text-decoration="normal" x="209" y="210" text-anchor="start" dominant-baseline="alphabetic" fill-opacity="1">B</text><text fill="rgb(21,101,192)" stroke="none" font-family="geogebra-sans-serif, sans-serif" font-size="16px" font-style="normal" font-weight="normal" text-decoration="normal" x="209" y="210" text-anchor="start" dominant-baseline="alphabetic" fill-opacity="1">B</text><path fill="rgb(21,101,192)" stroke="none" paint-order="stroke fill markers" d=" M 430.89972921048974 133.86936730845196 C 430.89972921048974 136.63079105760593 428.6611529596437 138.86936730845196 425.89972921048974 138.86936730845196 C 423.1383054613358 138.86936730845196 420.89972921048974 136.63079105760593 420.89972921048974 133.86936730845196 C 420.89972921048974 131.10794355929798 423.1383054613358 128.86936730845196 425.89972921048974 128.86936730845196 C 428.6611529596437 128.86936730845196 430.89972921048974 131.10794355929798 430.89972921048974 133.86936730845196 Z" fill-opacity="1"/><path fill="none" stroke="rgb(0,0,0)" paint-order="fill stroke markers" d=" M 430.89972921048974 133.86936730845196 C 430.89972921048974 136.63079105760593 428.6611529596437 138.86936730845196 425.89972921048974 138.86936730845196 C 423.1383054613358 138.86936730845196 420.89972921048974 136.63079105760593 420.89972921048974 133.86936730845196 C 420.89972921048974 131.10794355929798 423.1383054613358 128.86936730845196 425.89972921048974 128.86936730845196 C 428.6611529596437 128.86936730845196 430.89972921048974 131.10794355929798 430.89972921048974 133.86936730845196 Z" stroke-opacity="1" stroke-linecap="round" stroke-linejoin="round" stroke-miterlimit="10"/><text fill="rgb(21,101,192)" stroke="none" font-family="geogebra-sans-serif, sans-serif" font-size="16px" font-style="normal" font-weight="normal" text-decoration="normal" x="430" y="124" text-anchor="start" dominant-baseline="alphabetic" fill-opacity="1">C</text><text fill="rgb(21,101,192)" stroke="none" font-family="geogebra-sans-serif, sans-serif" font-size="16px" font-style="normal" font-weight="normal" text-decoration="normal" x="430" y="124" text-anchor="start" dominant-baseline="alphabetic" fill-opacity="1">C</text><path fill="rgb(21,101,192)" stroke="none" paint-order="stroke fill markers" d=" M 723.9025904229583 303.3256583050544 C 723.9025904229583 306.08708205420834 721.6640141721123 308.3256583050544 718.9025904229583 308.3256583050544 C 716.1411666738043 308.3256583050544 713.9025904229583 306.08708205420834 713.9025904229583 303.3256583050544 C 713.9025904229583 300.56423455590044 716.1411666738043 298.3256583050544 718.9025904229583 298.3256583050544 C 721.6640141721123 298.3256583050544 723.9025904229583 300.56423455590044 723.9025904229583 303.3256583050544 Z" fill-opacity="1"/><path fill="none" stroke="rgb(0,0,0)" paint-order="fill stroke markers" d=" M 723.9025904229583 303.3256583050544 C 723.9025904229583 306.08708205420834 721.6640141721123 308.3256583050544 718.9025904229583 308.3256583050544 C 716.1411666738043 308.3256583050544 713.9025904229583 306.08708205420834 713.9025904229583 303.3256583050544 C 713.9025904229583 300.56423455590044 716.1411666738043 298.3256583050544 718.9025904229583 298.3256583050544 C 721.6640141721123 298.3256583050544 723.9025904229583 300.56423455590044 723.9025904229583 303.3256583050544 Z" stroke-opacity="1" stroke-linecap="round" stroke-linejoin="round" stroke-miterlimit="10"/><text fill="rgb(21,101,192)" stroke="none" font-family="geogebra-sans-serif, sans-serif" font-size="16px" font-style="normal" font-weight="normal" text-decoration="normal" x="723" y="293" text-anchor="start" dominant-baseline="alphabetic" fill-opacity="1">D</text><text fill="rgb(21,101,192)" stroke="none" font-family="geogebra-sans-serif, sans-serif" font-size="16px" font-style="normal" font-weight="normal" text-decoration="normal" x="723" y="293" text-anchor="start" dominant-baseline="alphabetic" fill-opacity="1">D</text><path fill="rgb(21,101,192)" stroke="none" paint-order="stroke fill markers" d=" M 405.6045181705644 297.0494993792543 C 405.6045181705644 299.81092312840826 403.36594191971835 302.0494993792543 400.6045181705644 302.0494993792543 C 397.84309442141046 302.0494993792543 395.6045181705644 299.81092312840826 395.6045181705644 297.0494993792543 C 395.6045181705644 294.28807563010037 397.84309442141046 292.0494993792543 400.6045181705644 292.0494993792543 C 403.36594191971835 292.0494993792543 405.6045181705644 294.28807563010037 405.6045181705644 297.0494993792543 Z" fill-opacity="1"/><path fill="none" stroke="rgb(0,0,0)" paint-order="fill stroke markers" d=" M 405.6045181705644 297.0494993792543 C 405.6045181705644 299.81092312840826 403.36594191971835 302.0494993792543 400.6045181705644 302.0494993792543 C 397.84309442141046 302.0494993792543 395.6045181705644 299.81092312840826 395.6045181705644 297.0494993792543 C 395.6045181705644 294.28807563010037 397.84309442141046 292.0494993792543 400.6045181705644 292.0494993792543 C 403.36594191971835 292.0494993792543 405.6045181705644 294.28807563010037 405.6045181705644 297.0494993792543 Z" stroke-opacity="1" stroke-linecap="round" stroke-linejoin="round" stroke-miterlimit="10"/><text fill="rgb(21,101,192)" stroke="none" font-family="geogebra-sans-serif, sans-serif" font-size="16px" font-style="normal" font-weight="normal" text-decoration="normal" x="405" y="287" text-anchor="start" dominant-baseline="alphabetic" fill-opacity="1">E</text><text fill="rgb(21,101,192)" stroke="none" font-family="geogebra-sans-serif, sans-serif" font-size="16px" font-style="normal" font-weight="normal" text-decoration="normal" x="405" y="287" text-anchor="start" dominant-baseline="alphabetic" fill-opacity="1">E</text><path fill="rgb(21,101,192)" stroke="none" paint-order="stroke fill markers" d=" M 584.7789297033689 417.86555870090604 C 584.7789297033689 420.62698245006 582.5403534525229 422.86555870090604 579.7789297033689 422.86555870090604 C 577.0175059542149 422.86555870090604 574.7789297033689 420.62698245006 574.7789297033689 417.86555870090604 C 574.7789297033689 415.1041349517521 577.0175059542149 412.86555870090604 579.7789297033689 412.86555870090604 C 582.5403534525229 412.86555870090604 584.7789297033689 415.1041349517521 584.7789297033689 417.86555870090604 Z" fill-opacity="1"/><path fill="none" stroke="rgb(0,0,0)" paint-order="fill stroke markers" d=" M 584.7789297033689 417.86555870090604 C 584.7789297033689 420.62698245006 582.5403534525229 422.86555870090604 579.7789297033689 422.86555870090604 C 577.0175059542149 422.86555870090604 574.7789297033689 420.62698245006 574.7789297033689 417.86555870090604 C 574.7789297033689 415.1041349517521 577.0175059542149 412.86555870090604 579.7789297033689 412.86555870090604 C 582.5403534525229 412.86555870090604 584.7789297033689 415.1041349517521 584.7789297033689 417.86555870090604 Z" stroke-opacity="1" stroke-linecap="round" stroke-linejoin="round" stroke-miterlimit="10"/><text fill="rgb(21,101,192)" stroke="none" font-family="geogebra-sans-serif, sans-serif" font-size="16px" font-style="normal" font-weight="normal" text-decoration="normal" x="584" y="408" text-anchor="start" dominant-baseline="alphabetic" fill-opacity="1">F</text><text fill="rgb(21,101,192)" stroke="none" font-family="geogebra-sans-serif, sans-serif" font-size="16px" font-style="normal" font-weight="normal" text-decoration="normal" x="584" y="408" text-anchor="start" dominant-baseline="alphabetic" fill-opacity="1">F</text></g></g></svg>