<svg version="1.1" xmlns="http://www.w3.org/2000/svg" xmlns:xlink="http://www.w3.org/1999/xlink" width="986" height="632"><defs><clipPath id="RMoVTxirpdvO"><path fill="none" stroke="none" d=" M 0 0 L 986 0 L 986 632 L 0 632 L 0 0 Z"/></clipPath></defs><g transform="scale(1,1)" clip-path="url(#RMoVTxirpdvO)"><g><rect fill="rgb(255,255,255)" stroke="none" x="0" y="0" width="986" height="632" fill-opacity="1"/><path fill="rgb(21,101,192)" stroke="none" paint-order="stroke fill markers" d=" M 697.0418331686916 545.617527896638 C 696.4044667114658 536.2089274958031 694.8926147926078 526.8808463000042 692.5260308335113 517.7551623294087 L 546.8654025353666 555.8872234163181 Z" fill-opacity="0.09803921568627451"/><path fill="none" stroke="rgb(21,101,192)" paint-order="fill stroke markers" d=" M 697.0418331686916 545.617527896638 C 696.4044667114658 536.2089274958031 694.8926147926078 526.8808463000042 692.5260308335113 517.7551623294087 L 546.8654025353666 555.8872234163181 Z" stroke-opacity="0.8" stroke-linecap="round" stroke-linejoin="round" stroke-miterlimit="10" stroke-width="2.5"/><path fill="none" stroke="rgb(21,101,192)" paint-order="fill stroke markers" d=" M 970.2710350468764 445.04512674196184 C 964.6974374404127 423.5530135463359 946.0801807266021 408.0419099104107 924.0270656141889 406.5166252858442" stroke-opacity="0.6980392156862745" stroke-linecap="round" stroke-linejoin="round" stroke-miterlimit="10" stroke-width="2.5"/><path fill="none" stroke="rgb(21,101,192)" paint-order="fill stroke markers" d=" M 938.4674743067317 195.7556759170592 C 922.7455989594138 194.668286012532 907.348729360025 200.61506844517345 896.4002254784143 212.0034446408864 C 885.4517215968035 223.3918208365994 880.0701895101698 239.05824306688106 881.6968308757229 254.8071637966885" stroke-opacity="0.6980392156862745" stroke-linecap="round" stroke-linejoin="round" stroke-miterlimit="10" stroke-width="2.5"/><path fill="none" stroke="rgb(97,97,97)" paint-order="fill stroke markers" d=" M 52.89422062311985 589.6670490010764 L 986 525.8573539547763" stroke-opacity="0.6980392156862745" stroke-linecap="round" stroke-linejoin="round" stroke-miterlimit="10" stroke-width="2.5"/><path fill="none" stroke="rgb(0,0,0)" paint-order="fill stroke markers" d=" M 546.8654025353666 555.8872234163181 L 986 440.9274879576589" stroke-opacity="0.6980392156862745" stroke-linecap="round" stroke-linejoin="round" stroke-miterlimit="10" stroke-width="2.5"/><path fill="none" stroke="rgb(97,97,97)" paint-order="fill stroke markers" d=" M 920.4944457339924 458.07599147564827 L 951.8797879853016 5.684341886080802e-14" stroke-opacity="0.6980392156862745" stroke-linecap="round" stroke-linejoin="round" stroke-miterlimit="10" stroke-width="2.5"/><path fill="none" stroke="rgb(97,97,97)" paint-order="fill stroke markers" d=" M 934.8008857125238 249.2703450315894 L 0 346.736030120058" stroke-opacity="0.6980392156862745" stroke-linecap="round" stroke-linejoin="round" stroke-miterlimit="10" stroke-width="2.5"/><path fill="none" stroke="rgb(46,125,50)" paint-order="fill stroke markers" d=" M 52.89422062311985 589.6670490010764 L 529.9050130568017 557.0470461335415" stroke-opacity="0.6980392156862745" stroke-linecap="round" stroke-linejoin="round" stroke-miterlimit="10" stroke-width="2.5"/><path fill="rgb(46,125,50)" stroke="none" paint-order="stroke fill markers" fill-rule="evenodd" d=" M 546.8654025353666 555.8872234163181 L 530.1949687361076 561.2871435031827 L 529.6150573774959 552.8069487639002 Z" fill-opacity="0.6980392156862745"/><path fill="none" stroke="rgb(46,125,50)" paint-order="fill stroke markers" d=" M 546.8654025353666 555.8872234163181 L 904.0486434282734 462.381288970736" stroke-opacity="0.6980392156862745" stroke-linecap="round" stroke-linejoin="round" stroke-miterlimit="10" stroke-width="2.5"/><path fill="rgb(46,125,50)" stroke="none" paint-order="stroke fill markers" fill-rule="evenodd" d=" M 920.4944457339924 458.07599147564827 L 905.1249678020454 466.49273954716574 L 902.9723190545014 458.2698383943063 Z" fill-opacity="0.6980392156862745"/><path fill="none" stroke="rgb(46,125,50)" paint-order="fill stroke markers" d=" M 920.4944457339924 458.07599147564827 L 933.6388451912004 266.2305827017048" stroke-opacity="0.6980392156862745" stroke-linecap="round" stroke-linejoin="round" stroke-miterlimit="10" stroke-width="2.5"/><path fill="rgb(46,125,50)" stroke="none" paint-order="stroke fill markers" fill-rule="evenodd" d=" M 934.8008857125238 249.2703450315894 L 937.8789046087293 266.52109283203566 L 929.3987857736715 265.94007257137395 Z" fill-opacity="0.6980392156862745"/><path fill="none" stroke="rgb(46,125,50)" paint-order="fill stroke markers" d=" M 934.8008857125238 249.2703450315894 L 677.5681549510393 276.0903499267876" stroke-opacity="0.6980392156862745" stroke-linecap="round" stroke-linejoin="round" stroke-miterlimit="10" stroke-width="2.5"/><path fill="rgb(46,125,50)" stroke="none" paint-order="stroke fill markers" fill-rule="evenodd" d=" M 660.6598109339993 277.85327437253864 L 677.1274238396015 271.8632639225276 L 678.0088860624771 280.3174359310476 Z" fill-opacity="0.6980392156862745"/><path fill="rgb(21,101,192)" stroke="none" paint-order="stroke fill markers" d=" M 296.0000000000001 267.9999999999998 C 296.0000000000001 270.7614237491537 293.76142374915406 272.9999999999998 291.0000000000001 272.9999999999998 C 288.23857625084617 272.9999999999998 286.0000000000001 270.7614237491537 286.0000000000001 267.9999999999998 C 286.0000000000001 265.2385762508458 288.23857625084617 262.9999999999998 291.0000000000001 262.9999999999998 C 293.76142374915406 262.9999999999998 296.0000000000001 265.2385762508458 296.0000000000001 267.9999999999998 Z" fill-opacity="1"/><path fill="none" stroke="rgb(0,0,0)" paint-order="fill stroke markers" d=" M 296.0000000000001 267.9999999999998 C 296.0000000000001 270.7614237491537 293.76142374915406 272.9999999999998 291.0000000000001 272.9999999999998 C 288.23857625084617 272.9999999999998 286.0000000000001 270.7614237491537 286.0000000000001 267.9999999999998 C 286.0000000000001 265.2385762508458 288.23857625084617 262.9999999999998 291.0000000000001 262.9999999999998 C 293.76142374915406 262.9999999999998 296.0000000000001 265.2385762508458 296.0000000000001 267.9999999999998 Z" stroke-opacity="1" stroke-linecap="round" stroke-linejoin="round" stroke-miterlimit="10"/><text fill="rgb(21,101,192)" stroke="none" font-family="geogebra-sans-serif, sans-serif" font-size="16px" font-style="normal" font-weight="normal" text-decoration="normal" x="271" y="253" text-anchor="start" dominant-baseline="alphabetic" fill-opacity="1">6</text><text fill="none" stroke="rgb(255,255,255)" font-family="geogebra-sans-serif, sans-serif" font-size="16px" font-style="normal" font-weight="normal" text-decoration="normal" x="271" y="253" text-anchor="start" dominant-baseline="alphabetic" stroke-opacity="1" stroke-linejoin="bevel" stroke-miterlimit="10" stroke-width="3">6</text><text fill="rgb(21,101,192)" stroke="none" font-family="geogebra-sans-serif, sans-serif" font-size="16px" font-style="normal" font-weight="normal" text-decoration="normal" x="271" y="253" text-anchor="start" dominant-baseline="alphabetic" fill-opacity="1">6</text><path fill="rgb(21,101,192)" stroke="none" paint-order="stroke fill markers" d=" M 580.3140046350248 43.992943401135335 C 580.3140046350248 46.7543671502893 578.0754283841788 48.992943401135335 575.3140046350248 48.992943401135335 C 572.5525808858708 48.992943401135335 570.3140046350248 46.7543671502893 570.3140046350248 43.992943401135335 C 570.3140046350248 41.231519651981365 572.5525808858708 38.992943401135335 575.3140046350248 38.992943401135335 C 578.0754283841788 38.992943401135335 580.3140046350248 41.231519651981365 580.3140046350248 43.992943401135335 Z" fill-opacity="1"/><path fill="none" stroke="rgb(0,0,0)" paint-order="fill stroke markers" d=" M 580.3140046350248 43.992943401135335 C 580.3140046350248 46.7543671502893 578.0754283841788 48.992943401135335 575.3140046350248 48.992943401135335 C 572.5525808858708 48.992943401135335 570.3140046350248 46.7543671502893 570.3140046350248 43.992943401135335 C 570.3140046350248 41.231519651981365 572.5525808858708 38.992943401135335 575.3140046350248 38.992943401135335 C 578.0754283841788 38.992943401135335 580.3140046350248 41.231519651981365 580.3140046350248 43.992943401135335 Z" stroke-opacity="1" stroke-linecap="round" stroke-linejoin="round" stroke-miterlimit="10"/><text fill="rgb(21,101,192)" stroke="none" font-family="geogebra-sans-serif, sans-serif" font-size="16px" font-style="normal" font-weight="normal" text-decoration="normal" x="596" y="51" text-anchor="start" dominant-baseline="alphabetic" fill-opacity="1">5</text><text fill="none" stroke="rgb(255,255,255)" font-family="geogebra-sans-serif, sans-serif" font-size="16px" font-style="normal" font-weight="normal" text-decoration="normal" x="596" y="51" text-anchor="start" dominant-baseline="alphabetic" stroke-opacity="1" stroke-linejoin="bevel" stroke-miterlimit="10" stroke-width="3">5</text><text fill="rgb(21,101,192)" stroke="none" font-family="geogebra-sans-serif, sans-serif" font-size="16px" font-style="normal" font-weight="normal" text-decoration="normal" x="596" y="51" text-anchor="start" dominant-baseline="alphabetic" fill-opacity="1">5</text><path fill="rgb(21,101,192)" stroke="none" paint-order="stroke fill markers" d=" M 665.6598109339993 277.85327437253864 C 665.6598109339993 280.6146981216926 663.4212346831533 282.85327437253864 660.6598109339993 282.85327437253864 C 657.8983871848453 282.85327437253864 655.6598109339993 280.6146981216926 655.6598109339993 277.85327437253864 C 655.6598109339993 275.0918506233847 657.8983871848453 272.85327437253864 660.6598109339993 272.85327437253864 C 663.4212346831533 272.85327437253864 665.6598109339993 275.0918506233847 665.6598109339993 277.85327437253864 Z" fill-opacity="1"/><path fill="none" stroke="rgb(0,0,0)" paint-order="fill stroke markers" d=" M 665.6598109339993 277.85327437253864 C 665.6598109339993 280.6146981216926 663.4212346831533 282.85327437253864 660.6598109339993 282.85327437253864 C 657.8983871848453 282.85327437253864 655.6598109339993 280.6146981216926 655.6598109339993 277.85327437253864 C 655.6598109339993 275.0918506233847 657.8983871848453 272.85327437253864 660.6598109339993 272.85327437253864 C 663.4212346831533 272.85327437253864 665.6598109339993 275.0918506233847 665.6598109339993 277.85327437253864 Z" stroke-opacity="1" stroke-linecap="round" stroke-linejoin="round" stroke-miterlimit="10"/><text fill="rgb(21,101,192)" stroke="none" font-family="geogebra-sans-serif, sans-serif" font-size="16px" font-style="normal" font-weight="normal" text-decoration="normal" x="665" y="268" text-anchor="start" dominant-baseline="alphabetic" fill-opacity="1">4</text><text fill="none" stroke="rgb(255,255,255)" font-family="geogebra-sans-serif, sans-serif" font-size="16px" font-style="normal" font-weight="normal" text-decoration="normal" x="665" y="268" text-anchor="start" dominant-baseline="alphabetic" stroke-opacity="1" stroke-linejoin="bevel" stroke-miterlimit="10" stroke-width="3">4</text><text fill="rgb(21,101,192)" stroke="none" font-family="geogebra-sans-serif, sans-serif" font-size="16px" font-style="normal" font-weight="normal" text-decoration="normal" x="665" y="268" text-anchor="start" dominant-baseline="alphabetic" fill-opacity="1">4</text><path fill="rgb(21,101,192)" stroke="none" paint-order="stroke fill markers" d=" M 925.4944457339924 458.07599147564827 C 925.4944457339924 460.8374152248022 923.2558694831464 463.07599147564827 920.4944457339924 463.07599147564827 C 917.7330219848384 463.07599147564827 915.4944457339924 460.8374152248022 915.4944457339924 458.07599147564827 C 915.4944457339924 455.3145677264943 917.7330219848384 453.07599147564827 920.4944457339924 453.07599147564827 C 923.2558694831464 453.07599147564827 925.4944457339924 455.3145677264943 925.4944457339924 458.07599147564827 Z" fill-opacity="1"/><path fill="none" stroke="rgb(0,0,0)" paint-order="fill stroke markers" d=" M 925.4944457339924 458.07599147564827 C 925.4944457339924 460.8374152248022 923.2558694831464 463.07599147564827 920.4944457339924 463.07599147564827 C 917.7330219848384 463.07599147564827 915.4944457339924 460.8374152248022 915.4944457339924 458.07599147564827 C 915.4944457339924 455.3145677264943 917.7330219848384 453.07599147564827 920.4944457339924 453.07599147564827 C 923.2558694831464 453.07599147564827 925.4944457339924 455.3145677264943 925.4944457339924 458.07599147564827 Z" stroke-opacity="1" stroke-linecap="round" stroke-linejoin="round" stroke-miterlimit="10"/><text fill="rgb(21,101,192)" stroke="none" font-family="geogebra-sans-serif, sans-serif" font-size="16px" font-style="normal" font-weight="normal" text-decoration="normal" x="924" y="448" text-anchor="start" dominant-baseline="alphabetic" fill-opacity="1">2</text><text fill="none" stroke="rgb(255,255,255)" font-family="geogebra-sans-serif, sans-serif" font-size="16px" font-style="normal" font-weight="normal" text-decoration="normal" x="924" y="448" text-anchor="start" dominant-baseline="alphabetic" stroke-opacity="1" stroke-linejoin="bevel" stroke-miterlimit="10" stroke-width="3">2</text><text fill="rgb(21,101,192)" stroke="none" font-family="geogebra-sans-serif, sans-serif" font-size="16px" font-style="normal" font-weight="normal" text-decoration="normal" x="924" y="448" text-anchor="start" dominant-baseline="alphabetic" fill-opacity="1">2</text><path fill="rgb(21,101,192)" stroke="none" paint-order="stroke fill markers" d=" M 939.8008857125238 249.2703450315894 C 939.8008857125238 252.03176878074336 937.5623094616778 254.2703450315894 934.8008857125238 254.2703450315894 C 932.0394619633698 254.2703450315894 929.8008857125238 252.03176878074336 929.8008857125238 249.2703450315894 C 929.8008857125238 246.5089212824354 932.0394619633698 244.2703450315894 934.8008857125238 244.2703450315894 C 937.5623094616778 244.2703450315894 939.8008857125238 246.5089212824354 939.8008857125238 249.2703450315894 Z" fill-opacity="1"/><path fill="none" stroke="rgb(0,0,0)" paint-order="fill stroke markers" d=" M 939.8008857125238 249.2703450315894 C 939.8008857125238 252.03176878074336 937.5623094616778 254.2703450315894 934.8008857125238 254.2703450315894 C 932.0394619633698 254.2703450315894 929.8008857125238 252.03176878074336 929.8008857125238 249.2703450315894 C 929.8008857125238 246.5089212824354 932.0394619633698 244.2703450315894 934.8008857125238 244.2703450315894 C 937.5623094616778 244.2703450315894 939.8008857125238 246.5089212824354 939.8008857125238 249.2703450315894 Z" stroke-opacity="1" stroke-linecap="round" stroke-linejoin="round" stroke-miterlimit="10"/><text fill="rgb(21,101,192)" stroke="none" font-family="geogebra-sans-serif, sans-serif" font-size="16px" font-style="normal" font-weight="normal" text-decoration="normal" x="939" y="239" text-anchor="start" dominant-baseline="alphabetic" fill-opacity="1">3</text><text fill="none" stroke="rgb(255,255,255)" font-family="geogebra-sans-serif, sans-serif" font-size="16px" font-style="normal" font-weight="normal" text-decoration="normal" x="939" y="239" text-anchor="start" dominant-baseline="alphabetic" stroke-opacity="1" stroke-linejoin="bevel" stroke-miterlimit="10" stroke-width="3">3</text><text fill="rgb(21,101,192)" stroke="none" font-family="geogebra-sans-serif, sans-serif" font-size="16px" font-style="normal" font-weight="normal" text-decoration="normal" x="939" y="239" text-anchor="start" dominant-baseline="alphabetic" fill-opacity="1">3</text><path fill="rgb(21,101,192)" stroke="none" paint-order="stroke fill markers" d=" M 130.30884414952249 205.09672695921313 C 130.30884414952249 207.8581507083671 128.07026789867646 210.09672695921313 125.30884414952249 210.09672695921313 C 122.54742040036852 210.09672695921313 120.30884414952249 207.8581507083671 120.30884414952249 205.09672695921313 C 120.30884414952249 202.33530321005915 122.54742040036852 200.09672695921313 125.30884414952249 200.09672695921313 C 128.07026789867646 200.09672695921313 130.30884414952249 202.33530321005915 130.30884414952249 205.09672695921313 Z" fill-opacity="1"/><path fill="none" stroke="rgb(0,0,0)" paint-order="fill stroke markers" d=" M 130.30884414952249 205.09672695921313 C 130.30884414952249 207.8581507083671 128.07026789867646 210.09672695921313 125.30884414952249 210.09672695921313 C 122.54742040036852 210.09672695921313 120.30884414952249 207.8581507083671 120.30884414952249 205.09672695921313 C 120.30884414952249 202.33530321005915 122.54742040036852 200.09672695921313 125.30884414952249 200.09672695921313 C 128.07026789867646 200.09672695921313 130.30884414952249 202.33530321005915 130.30884414952249 205.09672695921313 Z" stroke-opacity="1" stroke-linecap="round" stroke-linejoin="round" stroke-miterlimit="10"/><text fill="rgb(21,101,192)" stroke="none" font-family="geogebra-sans-serif, sans-serif" font-size="16px" font-style="normal" font-weight="normal" text-decoration="normal" x="102" y="202" text-anchor="start" dominant-baseline="alphabetic" fill-opacity="1">7</text><text fill="none" stroke="rgb(255,255,255)" font-family="geogebra-sans-serif, sans-serif" font-size="16px" font-style="normal" font-weight="normal" text-decoration="normal" x="102" y="202" text-anchor="start" dominant-baseline="alphabetic" stroke-opacity="1" stroke-linejoin="bevel" stroke-miterlimit="10" stroke-width="3">7</text><text fill="rgb(21,101,192)" stroke="none" font-family="geogebra-sans-serif, sans-serif" font-size="16px" font-style="normal" font-weight="normal" text-decoration="normal" x="102" y="202" text-anchor="start" dominant-baseline="alphabetic" fill-opacity="1">7</text><path fill="rgb(21,101,192)" stroke="none" paint-order="stroke fill markers" d=" M 551.8654025353666 555.8872234163181 C 551.8654025353666 558.6486471654721 549.6268262845206 560.8872234163181 546.8654025353666 560.8872234163181 C 544.1039787862126 560.8872234163181 541.8654025353666 558.6486471654721 541.8654025353666 555.8872234163181 C 541.8654025353666 553.1257996671641 544.1039787862126 550.8872234163181 546.8654025353666 550.8872234163181 C 549.6268262845206 550.8872234163181 551.8654025353666 553.1257996671641 551.8654025353666 555.8872234163181 Z" fill-opacity="1"/><path fill="none" stroke="rgb(0,0,0)" paint-order="fill stroke markers" d=" M 551.8654025353666 555.8872234163181 C 551.8654025353666 558.6486471654721 549.6268262845206 560.8872234163181 546.8654025353666 560.8872234163181 C 544.1039787862126 560.8872234163181 541.8654025353666 558.6486471654721 541.8654025353666 555.8872234163181 C 541.8654025353666 553.1257996671641 544.1039787862126 550.8872234163181 546.8654025353666 550.8872234163181 C 549.6268262845206 550.8872234163181 551.8654025353666 553.1257996671641 551.8654025353666 555.8872234163181 Z" stroke-opacity="1" stroke-linecap="round" stroke-linejoin="round" stroke-miterlimit="10"/><text fill="rgb(21,101,192)" stroke="none" font-family="geogebra-sans-serif, sans-serif" font-size="16px" font-style="normal" font-weight="normal" text-decoration="normal" x="551" y="546" text-anchor="start" dominant-baseline="alphabetic" fill-opacity="1">1</text><text fill="none" stroke="rgb(255,255,255)" font-family="geogebra-sans-serif, sans-serif" font-size="16px" font-style="normal" font-weight="normal" text-decoration="normal" x="551" y="546" text-anchor="start" dominant-baseline="alphabetic" stroke-opacity="1" stroke-linejoin="bevel" stroke-miterlimit="10" stroke-width="3">1</text><text fill="rgb(21,101,192)" stroke="none" font-family="geogebra-sans-serif, sans-serif" font-size="16px" font-style="normal" font-weight="normal" text-decoration="normal" x="551" y="546" text-anchor="start" dominant-baseline="alphabetic" fill-opacity="1">1</text><path fill="none" stroke="rgb(211,47,47)" paint-order="fill stroke markers" d=" M 47.89422062311985 584.6670490010764 L 57.89422062311985 594.6670490010764" stroke-opacity="1" stroke-linecap="square" stroke-miterlimit="10" stroke-width="2.5"/><path fill="none" stroke="rgb(211,47,47)" paint-order="fill stroke markers" d=" M 47.89422062311985 594.6670490010764 L 57.89422062311985 584.6670490010764" stroke-opacity="1" stroke-linecap="square" stroke-miterlimit="10" stroke-width="2.5"/><text fill="rgb(211,47,47)" stroke="none" font-family="geogebra-sans-serif, sans-serif" font-size="16px" font-style="normal" font-weight="normal" text-decoration="normal" x="32" y="577" text-anchor="start" dominant-baseline="alphabetic" fill-opacity="1">0</text><text fill="none" stroke="rgb(255,255,255)" font-family="geogebra-sans-serif, sans-serif" font-size="16px" font-style="normal" font-weight="normal" text-decoration="normal" x="32" y="577" text-anchor="start" dominant-baseline="alphabetic" stroke-opacity="1" stroke-linejoin="bevel" stroke-miterlimit="10" stroke-width="3">0</text><text fill="rgb(211,47,47)" stroke="none" font-family="geogebra-sans-serif, sans-serif" font-size="16px" font-style="normal" font-weight="normal" text-decoration="normal" x="32" y="577" text-anchor="start" dominant-baseline="alphabetic" fill-opacity="1">0</text><path fill="rgb(219,97,20)" stroke="none" paint-order="stroke fill markers" d=" M 698.0418331686917 545.6175278966381 C 698.0418331686917 546.1698126464689 697.5941179185226 546.6175278966381 697.0418331686917 546.6175278966381 C 696.4895484188609 546.6175278966381 696.0418331686917 546.1698126464689 696.0418331686917 545.6175278966381 C 696.0418331686917 545.0652431468072 696.4895484188609 544.6175278966381 697.0418331686917 544.6175278966381 C 697.5941179185226 544.6175278966381 698.0418331686917 545.0652431468072 698.0418331686917 545.6175278966381 Z" fill-opacity="1"/><path fill="none" stroke="rgb(0,0,0)" paint-order="fill stroke markers" d=" M 698.0418331686917 545.6175278966381 C 698.0418331686917 546.1698126464689 697.5941179185226 546.6175278966381 697.0418331686917 546.6175278966381 C 696.4895484188609 546.6175278966381 696.0418331686917 546.1698126464689 696.0418331686917 545.6175278966381 C 696.0418331686917 545.0652431468072 696.4895484188609 544.6175278966381 697.0418331686917 544.6175278966381 C 697.5941179185226 544.6175278966381 698.0418331686917 545.0652431468072 698.0418331686917 545.6175278966381 Z" stroke-opacity="1" stroke-linecap="round" stroke-linejoin="round" stroke-miterlimit="10"/><path fill="rgb(219,97,20)" stroke="none" paint-order="stroke fill markers" d=" M 692.973984052363 517.8996810083923 C 692.973984052363 518.4519657582232 692.5262688021938 518.8996810083923 691.973984052363 518.8996810083923 C 691.4216993025321 518.8996810083923 690.973984052363 518.4519657582232 690.973984052363 517.8996810083923 C 690.973984052363 517.3473962585615 691.4216993025321 516.8996810083923 691.973984052363 516.8996810083923 C 692.5262688021938 516.8996810083923 692.973984052363 517.3473962585615 692.973984052363 517.8996810083923 Z" fill-opacity="1"/><path fill="none" stroke="rgb(0,0,0)" paint-order="fill stroke markers" d=" M 692.973984052363 517.8996810083923 C 692.973984052363 518.4519657582232 692.5262688021938 518.8996810083923 691.973984052363 518.8996810083923 C 691.4216993025321 518.8996810083923 690.973984052363 518.4519657582232 690.973984052363 517.8996810083923 C 690.973984052363 517.3473962585615 691.4216993025321 516.8996810083923 691.973984052363 516.8996810083923 C 692.5262688021938 516.8996810083923 692.973984052363 517.3473962585615 692.973984052363 517.8996810083923 Z" stroke-opacity="1" stroke-linecap="round" stroke-linejoin="round" stroke-miterlimit="10"/><path fill="rgb(97,97,97)" stroke="none" paint-order="stroke fill markers" d=" M 971.2710350468764 445.0451267419618 C 971.2710350468764 445.59741149179257 970.8233197967072 446.0451267419618 970.2710350468764 446.0451267419618 C 969.7187502970455 446.0451267419618 969.2710350468764 445.59741149179257 969.2710350468764 445.0451267419618 C 969.2710350468764 444.492841992131 969.7187502970455 444.0451267419618 970.2710350468764 444.0451267419618 C 970.8233197967072 444.0451267419618 971.2710350468764 444.492841992131 971.2710350468764 445.0451267419618 Z" fill-opacity="1"/><path fill="none" stroke="rgb(0,0,0)" paint-order="fill stroke markers" d=" M 971.2710350468764 445.0451267419618 C 971.2710350468764 445.59741149179257 970.8233197967072 446.0451267419618 970.2710350468764 446.0451267419618 C 969.7187502970455 446.0451267419618 969.2710350468764 445.59741149179257 969.2710350468764 445.0451267419618 C 969.2710350468764 444.492841992131 969.7187502970455 444.0451267419618 970.2710350468764 444.0451267419618 C 970.8233197967072 444.0451267419618 971.2710350468764 444.492841992131 971.2710350468764 445.0451267419618 Z" stroke-opacity="1" stroke-linecap="round" stroke-linejoin="round" stroke-miterlimit="10"/><path fill="rgb(21,101,192)" stroke="none" paint-order="stroke fill markers" d=" M 925.0527349522009 406.1419756367724 C 925.0527349522009 406.69426038660316 924.6050197020318 407.1419756367724 924.0527349522009 407.1419756367724 C 923.5004502023701 407.1419756367724 923.0527349522009 406.69426038660316 923.0527349522009 406.1419756367724 C 923.0527349522009 405.5896908869416 923.5004502023701 405.1419756367724 924.0527349522009 405.1419756367724 C 924.6050197020318 405.1419756367724 925.0527349522009 405.5896908869416 925.0527349522009 406.1419756367724 Z" fill-opacity="1"/><path fill="none" stroke="rgb(0,0,0)" paint-order="fill stroke markers" d=" M 925.0527349522009 406.1419756367724 C 925.0527349522009 406.69426038660316 924.6050197020318 407.1419756367724 924.0527349522009 407.1419756367724 C 923.5004502023701 407.1419756367724 923.0527349522009 406.69426038660316 923.0527349522009 406.1419756367724 C 923.0527349522009 405.5896908869416 923.5004502023701 405.1419756367724 924.0527349522009 405.1419756367724 C 924.6050197020318 405.1419756367724 925.0527349522009 405.5896908869416 925.0527349522009 406.1419756367724 Z" stroke-opacity="1" stroke-linecap="round" stroke-linejoin="round" stroke-miterlimit="10"/><path fill="rgb(21,101,192)" stroke="none" paint-order="stroke fill markers" d=" M 939.4674743067316 195.75567591705908 C 939.4674743067316 196.30796066688987 939.0197590565624 196.75567591705908 938.4674743067316 196.75567591705908 C 937.9151895569007 196.75567591705908 937.4674743067316 196.30796066688987 937.4674743067316 195.75567591705908 C 937.4674743067316 195.2033911672283 937.9151895569007 194.75567591705908 938.4674743067316 194.75567591705908 C 939.0197590565624 194.75567591705908 939.4674743067316 195.2033911672283 939.4674743067316 195.75567591705908 Z" fill-opacity="1"/><path fill="none" stroke="rgb(0,0,0)" paint-order="fill stroke markers" d=" M 939.4674743067316 195.75567591705908 C 939.4674743067316 196.30796066688987 939.0197590565624 196.75567591705908 938.4674743067316 196.75567591705908 C 937.9151895569007 196.75567591705908 937.4674743067316 196.30796066688987 937.4674743067316 195.75567591705908 C 937.4674743067316 195.2033911672283 937.9151895569007 194.75567591705908 938.4674743067316 194.75567591705908 C 939.0197590565624 194.75567591705908 939.4674743067316 195.2033911672283 939.4674743067316 195.75567591705908 Z" stroke-opacity="1" stroke-linecap="round" stroke-linejoin="round" stroke-miterlimit="10"/><path fill="rgb(21,101,192)" stroke="none" paint-order="stroke fill markers" d=" M 902.1833765474461 252.7754268215415 C 902.1833765474461 253.32771157137228 901.7356612972769 253.7754268215415 901.1833765474461 253.7754268215415 C 900.6310917976152 253.7754268215415 900.1833765474461 253.32771157137228 900.1833765474461 252.7754268215415 C 900.1833765474461 252.2231420717107 900.6310917976152 251.7754268215415 901.1833765474461 251.7754268215415 C 901.7356612972769 251.7754268215415 902.1833765474461 252.2231420717107 902.1833765474461 252.7754268215415 Z" fill-opacity="1"/><path fill="none" stroke="rgb(0,0,0)" paint-order="fill stroke markers" d=" M 902.1833765474461 252.7754268215415 C 902.1833765474461 253.32771157137228 901.7356612972769 253.7754268215415 901.1833765474461 253.7754268215415 C 900.6310917976152 253.7754268215415 900.1833765474461 253.32771157137228 900.1833765474461 252.7754268215415 C 900.1833765474461 252.2231420717107 900.6310917976152 251.7754268215415 901.1833765474461 251.7754268215415 C 901.7356612972769 251.7754268215415 902.1833765474461 252.2231420717107 902.1833765474461 252.7754268215415 Z" stroke-opacity="1" stroke-linecap="round" stroke-linejoin="round" stroke-miterlimit="10"/></g></g></svg>